<svg width="823" height="160" viewBox="0 0 823 160" fill="none" xmlns="http://www.w3.org/2000/svg">
<rect width="823" height="160" fill="#303030"/>
<rect width="390" height="59" transform="translate(216.5 50.5)" fill="white"/>
<path d="M239.795 92.8164C236.068 92.8164 233.555 90.5137 233.555 87.1914V87.1562C233.555 83.8516 236.121 81.8652 240.639 81.584L245.508 81.2852V80.002C245.508 78.1211 244.277 76.9785 242.062 76.9785C239.988 76.9785 238.723 77.9453 238.441 79.3164L238.406 79.4746H234.346L234.363 79.2637C234.627 75.959 237.492 73.4805 242.221 73.4805C246.879 73.4805 249.885 75.9414 249.885 79.6855V92.5H245.508V89.6348H245.402C244.33 91.5859 242.256 92.8164 239.795 92.8164ZM237.914 87.0156C237.914 88.5449 239.18 89.4766 241.096 89.4766C243.609 89.4766 245.508 87.8066 245.508 85.5918V84.1855L241.254 84.4492C239.092 84.5898 237.914 85.5215 237.914 86.998V87.0156ZM253.418 98.6523V73.8672H257.795V77.084H257.883C258.955 74.8516 260.994 73.4805 263.666 73.4805C268.395 73.4805 271.383 77.1719 271.383 83.1836V83.2012C271.383 89.1777 268.395 92.8691 263.719 92.8691C261.064 92.8691 258.938 91.5332 257.883 89.3535H257.795V98.6523H253.418ZM262.365 89.1777C265.16 89.1777 266.918 86.875 266.918 83.2012V83.1836C266.918 79.457 265.16 77.1719 262.365 77.1719C259.658 77.1719 257.76 79.5273 257.76 83.1836V83.2012C257.76 86.8398 259.658 89.1777 262.365 89.1777ZM274.195 98.6523V73.8672H278.572V77.084H278.66C279.732 74.8516 281.771 73.4805 284.443 73.4805C289.172 73.4805 292.16 77.1719 292.16 83.1836V83.2012C292.16 89.1777 289.172 92.8691 284.496 92.8691C281.842 92.8691 279.715 91.5332 278.66 89.3535H278.572V98.6523H274.195ZM283.143 89.1777C285.938 89.1777 287.695 86.875 287.695 83.2012V83.1836C287.695 79.457 285.938 77.1719 283.143 77.1719C280.436 77.1719 278.537 79.5273 278.537 83.1836V83.2012C278.537 86.8398 280.436 89.1777 283.143 89.1777ZM302.25 92.8691C297.363 92.8691 294.568 90.5488 294.182 87.0859L294.164 86.9277H298.471L298.506 87.0859C298.84 88.6855 300.053 89.6348 302.268 89.6348C304.395 89.6348 305.678 88.7734 305.678 87.4023V87.3848C305.678 86.2598 305.027 85.627 303.094 85.1875L300 84.502C296.432 83.7109 294.639 81.9707 294.639 79.2109V79.1934C294.639 75.7832 297.609 73.4805 302.109 73.4805C306.75 73.4805 309.457 76.0293 309.615 79.2461L309.633 79.4395H305.555L305.537 79.2988C305.344 77.8047 304.148 76.7148 302.109 76.7148C300.176 76.7148 298.963 77.6113 298.963 78.9824V79C298.963 80.0723 299.684 80.7754 301.617 81.2148L304.729 81.9004C308.578 82.7617 310.072 84.2734 310.072 86.9805V86.998C310.072 90.5137 306.82 92.8691 302.25 92.8691ZM319.793 92.8691C315.891 92.8691 314.045 91.2871 314.045 87.4551V77.2422H311.408V73.8672H314.045V69.1387H318.492V73.8672H321.955V77.2422H318.492V87.0859C318.492 88.9141 319.301 89.4941 320.9 89.4941C321.322 89.4941 321.656 89.4414 321.955 89.4238V92.7109C321.445 92.7812 320.672 92.8691 319.793 92.8691ZM324.961 92.5V73.8672H329.338V77.084H329.426C330.006 74.834 331.553 73.4805 333.697 73.4805C334.242 73.4805 334.752 73.5684 335.086 73.6562V77.6113C334.717 77.4707 334.049 77.3652 333.311 77.3652C330.832 77.3652 329.338 78.9297 329.338 81.6895V92.5H324.961Z" fill="#494F64"/>
<rect x="474.5" y="58.5" width="116" height="43" rx="21.5" fill="#1A4AFA"/>
<path d="M496.516 85.6953C493.148 85.6953 491.086 83.5 491.086 79.8281V79.8203C491.086 76.2109 493.156 74.0312 496.461 74.0312C499.172 74.0312 501.016 75.6094 501.391 77.7266L501.414 77.8359H499.047L499.016 77.7578C498.641 76.6641 497.742 76.0312 496.469 76.0312C494.609 76.0312 493.492 77.4062 493.492 79.7969V79.8047C493.492 82.25 494.68 83.6953 496.555 83.6953C498.094 83.6953 499.148 82.7812 499.211 81.3906L499.219 81.2266H496.641V79.4688H501.516V80.7656C501.516 83.8359 499.656 85.6953 496.516 85.6953ZM506.695 85.6719C504.133 85.6719 502.578 84.0078 502.578 81.3281V81.3203C502.578 78.6562 504.148 76.9531 506.602 76.9531C509.055 76.9531 510.594 78.6172 510.594 81.1484V81.8516H504.828C504.852 83.1875 505.578 83.9688 506.742 83.9688C507.68 83.9688 508.25 83.4531 508.414 82.9844L508.43 82.9375H510.523L510.5 83.0234C510.242 84.2578 509.086 85.6719 506.695 85.6719ZM506.641 78.6562C505.703 78.6562 505 79.2812 504.852 80.4141H508.406C508.266 79.2578 507.586 78.6562 506.641 78.6562ZM515.102 85.6719C513.242 85.6719 512.367 84.9531 512.367 83.1562V78.8438H511.203V77.125H512.367V75.0781H514.672V77.125H516.203V78.8438H514.672V82.9062C514.672 83.6875 515.023 83.9531 515.711 83.9531C515.914 83.9531 516.062 83.9297 516.203 83.9141V85.5859C515.945 85.625 515.578 85.6719 515.102 85.6719ZM524.945 85.6953C522.266 85.6953 520.539 84.4688 520.406 82.3906L520.398 82.2656H522.625L522.641 82.3516C522.789 83.2266 523.719 83.7734 525.008 83.7734C526.312 83.7734 527.133 83.2031 527.133 82.3438V82.3359C527.133 81.5703 526.578 81.1875 525.18 80.8984L523.992 80.6641C521.766 80.2188 520.641 79.1562 520.641 77.4609V77.4531C520.641 75.3906 522.438 74.0312 524.938 74.0312C527.547 74.0312 529.148 75.3359 529.258 77.3125L529.266 77.4609H527.039L527.031 77.3672C526.914 76.4844 526.102 75.9453 524.938 75.9453C523.727 75.9531 523 76.5078 523 77.3125V77.3203C523 78.0312 523.578 78.4453 524.875 78.7031L526.07 78.9453C528.43 79.4141 529.492 80.375 529.492 82.1484V82.1562C529.492 84.3203 527.789 85.6953 524.945 85.6953ZM534.07 85.6719C532.211 85.6719 531.336 84.9531 531.336 83.1562V78.8438H530.172V77.125H531.336V75.0781H533.641V77.125H535.172V78.8438H533.641V82.9062C533.641 83.6875 533.992 83.9531 534.68 83.9531C534.883 83.9531 535.031 83.9297 535.172 83.9141V85.5859C534.914 85.625 534.547 85.6719 534.07 85.6719ZM538.844 85.6328C537.164 85.6328 536.031 84.5781 536.031 83.1016V83.0859C536.031 81.5625 537.211 80.6719 539.289 80.5391L541.359 80.4141V79.8984C541.359 79.1562 540.875 78.6953 539.984 78.6953C539.133 78.6953 538.617 79.0938 538.508 79.6328L538.492 79.7031H536.406L536.414 79.6094C536.539 78.0625 537.867 76.9531 540.078 76.9531C542.242 76.9531 543.641 78.0703 543.641 79.7578V85.5H541.359V84.25H541.312C540.836 85.1094 539.945 85.6328 538.844 85.6328ZM538.289 82.9844C538.289 83.6016 538.797 83.9688 539.586 83.9688C540.609 83.9688 541.359 83.3125 541.359 82.4375V81.8359L539.633 81.9453C538.75 82 538.289 82.375 538.289 82.9688V82.9844ZM545.117 85.5V77.125H547.398V78.5859H547.445C547.695 77.5547 548.375 76.9531 549.352 76.9531C549.602 76.9531 549.836 76.9922 550.008 77.0391V79.0469C549.82 78.9688 549.508 78.9219 549.18 78.9219C548.055 78.9219 547.398 79.5938 547.398 80.8125V85.5H545.117ZM554.586 85.6719C552.727 85.6719 551.852 84.9531 551.852 83.1562V78.8438H550.688V77.125H551.852V75.0781H554.156V77.125H555.688V78.8438H554.156V82.9062C554.156 83.6875 554.508 83.9531 555.195 83.9531C555.398 83.9531 555.547 83.9297 555.688 83.9141V85.5859C555.43 85.625 555.062 85.6719 554.586 85.6719ZM560.633 85.6719C558.07 85.6719 556.516 84.0078 556.516 81.3281V81.3203C556.516 78.6562 558.086 76.9531 560.539 76.9531C562.992 76.9531 564.531 78.6172 564.531 81.1484V81.8516H558.766C558.789 83.1875 559.516 83.9688 560.68 83.9688C561.617 83.9688 562.188 83.4531 562.352 82.9844L562.367 82.9375H564.461L564.438 83.0234C564.18 84.2578 563.023 85.6719 560.633 85.6719ZM560.578 78.6562C559.641 78.6562 558.938 79.2812 558.789 80.4141H562.344C562.203 79.2578 561.523 78.6562 560.578 78.6562ZM568.812 85.6719C566.703 85.6719 565.406 84.0312 565.406 81.3125V81.3047C565.406 78.5781 566.703 76.9531 568.812 76.9531C570 76.9531 570.938 77.5625 571.391 78.5781H571.438V74.2266H573.719V85.5H571.438V84.0703H571.391C570.945 85.0625 570.023 85.6719 568.812 85.6719ZM569.578 83.7812C570.688 83.7812 571.445 82.8281 571.445 81.3125V81.3047C571.445 79.7969 570.68 78.8438 569.578 78.8438C568.445 78.8438 567.727 79.7734 567.727 81.3047V81.3125C567.727 82.8359 568.438 83.7812 569.578 83.7812Z" fill="white"/>
</svg>
