<svg width="1321" height="538" viewBox="0 0 1321 538" fill="none" xmlns="http://www.w3.org/2000/svg">
<path d="M827.074 149.837L840.686 166.591L858.764 188.829L845.39 192.384L831.691 196.047L818.317 199.601L823.216 171.663L827.074 149.837Z" fill="#FAF7F2"/>
<path d="M818.321 201.227C818.084 201.227 817.849 201.175 817.633 201.075C817.418 200.975 817.227 200.829 817.074 200.647C816.921 200.465 816.81 200.252 816.748 200.023C816.687 199.793 816.676 199.553 816.717 199.319L825.387 149.469C825.443 149.163 825.585 148.879 825.796 148.651C826.008 148.423 826.281 148.261 826.582 148.183C826.883 148.106 827.2 148.116 827.496 148.213C827.791 148.311 828.052 148.491 828.249 148.732L859.938 187.745C860.11 187.956 860.227 188.207 860.277 188.474C860.327 188.742 860.31 189.018 860.226 189.276C860.141 189.535 859.994 189.769 859.796 189.956C859.598 190.143 859.356 190.277 859.093 190.346L818.646 201.183L818.321 201.227ZM828.075 153.544L820.359 197.477L855.928 188.005L828.075 153.544Z" fill="#010101"/>
<path d="M950.044 92.7476L978.222 144.505C978.222 144.505 965.758 164.532 962.551 198.257H932.66L926.027 146.673L950.044 92.7476Z" fill="#F8D637"/>
<path d="M962.505 199.904H932.658C932.266 199.903 931.887 199.759 931.592 199.5C931.298 199.241 931.106 198.884 931.054 198.496L924.421 146.911C924.384 146.616 924.429 146.316 924.551 146.044L948.568 92.0973C948.693 91.8228 948.892 91.5885 949.142 91.4206C949.393 91.2528 949.685 91.1579 949.987 91.1466C950.288 91.1354 950.587 91.2082 950.849 91.3569C951.111 91.5057 951.327 91.7245 951.472 91.9889L979.65 143.747C979.793 143.994 979.868 144.274 979.868 144.559C979.868 144.845 979.793 145.125 979.65 145.372C979.52 145.567 967.339 165.507 964.218 198.409C964.184 198.832 963.986 199.226 963.666 199.506C963.346 199.785 962.929 199.928 962.505 199.904ZM934.089 196.653H961.031C964.109 167.176 974.037 148.58 976.312 144.505L950.172 96.4537L927.694 146.976L934.089 196.653Z" fill="#010101"/>
<path d="M967.707 194.724H926.502V307.451H967.707V194.724Z" fill="#0D9CE8"/>
<path d="M967.706 309.099H926.523C926.091 309.099 925.678 308.927 925.373 308.623C925.068 308.318 924.897 307.904 924.897 307.473V194.768C924.897 194.337 925.068 193.923 925.373 193.618C925.678 193.313 926.091 193.142 926.523 193.142H967.706C968.137 193.142 968.551 193.313 968.856 193.618C969.16 193.923 969.332 194.337 969.332 194.768V307.473C969.332 307.904 969.16 308.318 968.856 308.623C968.551 308.927 968.137 309.099 967.706 309.099ZM928.127 305.848H966.124V196.35H928.127V305.848Z" fill="#010101"/>
<path d="M976.81 176.02H919.934V198.257H976.81V176.02Z" fill="#0D9CE8"/>
<path d="M976.81 199.904H919.933C919.502 199.904 919.088 199.733 918.784 199.428C918.479 199.124 918.307 198.71 918.307 198.279V176.02C918.307 175.588 918.479 175.175 918.784 174.87C919.088 174.565 919.502 174.394 919.933 174.394H976.81C977.241 174.394 977.654 174.565 977.959 174.87C978.264 175.175 978.435 175.588 978.435 176.02V198.257C978.438 198.472 978.398 198.686 978.318 198.886C978.237 199.086 978.118 199.267 977.967 199.421C977.815 199.574 977.635 199.696 977.437 199.779C977.238 199.862 977.025 199.904 976.81 199.904ZM921.559 196.653H975.184V177.667H921.559V196.653Z" fill="#010101"/>
<path d="M935.822 9.58398H870.059V340.635H935.822V9.58398Z" fill="#FAF7F2"/>
<path d="M935.78 342.238H870.06C869.629 342.238 869.215 342.067 868.91 341.762C868.606 341.458 868.434 341.044 868.434 340.613V9.58406C868.434 9.15293 868.606 8.73945 868.91 8.4346C869.215 8.12975 869.629 7.9585 870.06 7.9585H935.78C936.211 7.9585 936.625 8.12975 936.93 8.4346C937.235 8.73945 937.406 9.15293 937.406 9.58406V340.526C937.418 340.747 937.384 340.968 937.308 341.175C937.231 341.382 937.114 341.572 936.961 341.732C936.809 341.892 936.626 342.02 936.423 342.107C936.22 342.194 936.001 342.239 935.78 342.238ZM871.642 338.987H934.154V11.2096H871.686L871.642 338.987Z" fill="#010101"/>
<path d="M950.044 141.124C949.612 141.124 949.199 140.953 948.894 140.648C948.589 140.343 948.418 139.93 948.418 139.499V92.7691C948.418 92.338 948.589 91.9245 948.894 91.6197C949.199 91.3148 949.612 91.1436 950.044 91.1436C950.475 91.1436 950.888 91.3148 951.193 91.6197C951.498 91.9245 951.669 92.338 951.669 92.7691V139.433C951.678 139.652 951.642 139.871 951.565 140.076C951.487 140.28 951.369 140.467 951.217 140.625C951.065 140.783 950.883 140.909 950.681 140.994C950.48 141.08 950.263 141.124 950.044 141.124Z" fill="#010101"/>
<path d="M950.043 158.03C956.196 158.03 961.184 153.042 961.184 146.89C961.184 140.737 956.196 135.749 950.043 135.749C943.89 135.749 938.902 140.737 938.902 146.89C938.902 153.042 943.89 158.03 950.043 158.03Z" fill="#FAF7F2"/>
<path d="M950.04 159.678C947.515 159.678 945.047 158.929 942.947 157.526C940.848 156.123 939.212 154.13 938.245 151.797C937.279 149.464 937.026 146.897 937.519 144.421C938.011 141.945 939.227 139.67 941.013 137.885C942.798 136.099 945.073 134.883 947.55 134.391C950.026 133.898 952.593 134.151 954.926 135.117C957.259 136.084 959.253 137.72 960.656 139.819C962.058 141.918 962.807 144.387 962.807 146.912C962.801 150.296 961.455 153.539 959.062 155.932C956.669 158.325 953.425 159.672 950.04 159.678ZM950.04 137.375C948.158 137.375 946.319 137.933 944.754 138.979C943.189 140.024 941.969 141.51 941.249 143.249C940.529 144.987 940.34 146.9 940.708 148.746C941.075 150.592 941.981 152.287 943.312 153.618C944.643 154.949 946.338 155.855 948.184 156.222C950.03 156.589 951.943 156.401 953.682 155.681C955.421 154.96 956.907 153.741 957.952 152.176C958.998 150.611 959.556 148.772 959.556 146.89C959.55 144.368 958.546 141.951 956.762 140.168C954.979 138.385 952.562 137.381 950.04 137.375Z" fill="#010101"/>
<path d="M886.902 36.2428H870.06C869.629 36.2428 869.215 36.0716 868.91 35.7667C868.606 35.4619 868.434 35.0484 868.434 34.6173C868.434 34.1861 868.606 33.7727 868.91 33.4678C869.215 33.163 869.629 32.9917 870.06 32.9917H886.902C887.333 32.9917 887.746 33.163 888.051 33.4678C888.356 33.7727 888.528 34.1861 888.528 34.6173C888.528 35.0484 888.356 35.4619 888.051 35.7667C887.746 36.0716 887.333 36.2428 886.902 36.2428Z" fill="#010101"/>
<path d="M886.902 53.4738H870.06C869.629 53.4738 869.215 53.3025 868.91 52.9977C868.606 52.6928 868.434 52.2793 868.434 51.8482C868.434 51.4171 868.606 51.0036 868.91 50.6988C869.215 50.3939 869.629 50.2227 870.06 50.2227H886.902C887.333 50.2227 887.746 50.3939 888.051 50.6988C888.356 51.0036 888.528 51.4171 888.528 51.8482C888.528 52.2793 888.356 52.6928 888.051 52.9977C887.746 53.3025 887.333 53.4738 886.902 53.4738Z" fill="#010101"/>
<path d="M886.902 70.7057H870.06C869.629 70.7057 869.215 70.5345 868.91 70.2296C868.606 69.9248 868.434 69.5113 868.434 69.0801C868.434 68.649 868.606 68.2356 868.91 67.9307C869.215 67.6259 869.629 67.4546 870.06 67.4546H886.902C887.333 67.4546 887.746 67.6259 888.051 67.9307C888.356 68.2356 888.528 68.649 888.528 69.0801C888.528 69.5113 888.356 69.9248 888.051 70.2296C887.746 70.5345 887.333 70.7057 886.902 70.7057Z" fill="#010101"/>
<path d="M896.764 87.9357H870.06C869.629 87.9357 869.215 87.7644 868.91 87.4595C868.606 87.1547 868.434 86.7413 868.434 86.3101C868.434 85.879 868.606 85.4655 868.91 85.1607C869.215 84.8558 869.629 84.6846 870.06 84.6846H896.764C897.195 84.6846 897.609 84.8558 897.914 85.1607C898.219 85.4655 898.39 85.879 898.39 86.3101C898.39 86.7413 898.219 87.1547 897.914 87.4595C897.609 87.7644 897.195 87.9357 896.764 87.9357Z" fill="#010101"/>
<path d="M886.902 105.167H870.06C869.629 105.167 869.215 104.996 868.91 104.691C868.606 104.386 868.434 103.973 868.434 103.542C868.434 103.11 868.606 102.697 868.91 102.392C869.215 102.087 869.629 101.916 870.06 101.916H886.902C887.333 101.916 887.746 102.087 888.051 102.392C888.356 102.697 888.528 103.11 888.528 103.542C888.528 103.973 888.356 104.386 888.051 104.691C887.746 104.996 887.333 105.167 886.902 105.167Z" fill="#010101"/>
<path d="M886.902 122.397H870.06C869.629 122.397 869.215 122.226 868.91 121.921C868.606 121.616 868.434 121.203 868.434 120.772C868.434 120.34 868.606 119.927 868.91 119.622C869.215 119.317 869.629 119.146 870.06 119.146H886.902C887.333 119.146 887.746 119.317 888.051 119.622C888.356 119.927 888.528 120.34 888.528 120.772C888.528 121.203 888.356 121.616 888.051 121.921C887.746 122.226 887.333 122.397 886.902 122.397Z" fill="#010101"/>
<path d="M886.902 139.629H870.06C869.629 139.629 869.215 139.457 868.91 139.152C868.606 138.848 868.434 138.434 868.434 138.003C868.434 137.572 868.606 137.158 868.91 136.854C869.215 136.549 869.629 136.377 870.06 136.377H886.902C887.333 136.377 887.746 136.549 888.051 136.854C888.356 137.158 888.528 137.572 888.528 138.003C888.528 138.434 888.356 138.848 888.051 139.152C887.746 139.457 887.333 139.629 886.902 139.629Z" fill="#010101"/>
<path d="M896.764 156.86H870.06C869.629 156.86 869.215 156.689 868.91 156.384C868.606 156.079 868.434 155.666 868.434 155.234C868.434 154.803 868.606 154.39 868.91 154.085C869.215 153.78 869.629 153.609 870.06 153.609H896.764C897.195 153.609 897.609 153.78 897.914 154.085C898.219 154.39 898.39 154.803 898.39 155.234C898.39 155.666 898.219 156.079 897.914 156.384C897.609 156.689 897.195 156.86 896.764 156.86Z" fill="#010101"/>
<path d="M886.902 174.09H870.06C869.629 174.09 869.215 173.919 868.91 173.614C868.606 173.309 868.434 172.896 868.434 172.464C868.434 172.033 868.606 171.62 868.91 171.315C869.215 171.01 869.629 170.839 870.06 170.839H886.902C887.333 170.839 887.746 171.01 888.051 171.315C888.356 171.62 888.528 172.033 888.528 172.464C888.528 172.896 888.356 173.309 888.051 173.614C887.746 173.919 887.333 174.09 886.902 174.09Z" fill="#010101"/>
<path d="M886.902 191.3H870.06C869.629 191.3 869.215 191.129 868.91 190.824C868.606 190.519 868.434 190.106 868.434 189.674C868.434 189.243 868.606 188.83 868.91 188.525C869.215 188.22 869.629 188.049 870.06 188.049H886.902C887.333 188.049 887.746 188.22 888.051 188.525C888.356 188.83 888.528 189.243 888.528 189.674C888.528 190.106 888.356 190.519 888.051 190.824C887.746 191.129 887.333 191.3 886.902 191.3Z" fill="#010101"/>
<path d="M886.902 208.531H870.06C869.629 208.531 869.215 208.36 868.91 208.055C868.606 207.75 868.434 207.336 868.434 206.905C868.434 206.474 868.606 206.061 868.91 205.756C869.215 205.451 869.629 205.28 870.06 205.28H886.902C887.333 205.28 887.746 205.451 888.051 205.756C888.356 206.061 888.528 206.474 888.528 206.905C888.528 207.336 888.356 207.75 888.051 208.055C887.746 208.36 887.333 208.531 886.902 208.531Z" fill="#010101"/>
<path d="M896.764 225.761H870.06C869.629 225.761 869.215 225.59 868.91 225.285C868.606 224.98 868.434 224.566 868.434 224.135C868.434 223.704 868.606 223.291 868.91 222.986C869.215 222.681 869.629 222.51 870.06 222.51H896.764C897.195 222.51 897.609 222.681 897.914 222.986C898.219 223.291 898.39 223.704 898.39 224.135C898.39 224.566 898.219 224.98 897.914 225.285C897.609 225.59 897.195 225.761 896.764 225.761Z" fill="#010101"/>
<path d="M886.902 242.993H870.06C869.629 242.993 869.215 242.822 868.91 242.517C868.606 242.212 868.434 241.798 868.434 241.367C868.434 240.936 868.606 240.523 868.91 240.218C869.215 239.913 869.629 239.742 870.06 239.742H886.902C887.333 239.742 887.746 239.913 888.051 240.218C888.356 240.523 888.528 240.936 888.528 241.367C888.528 241.798 888.356 242.212 888.051 242.517C887.746 242.822 887.333 242.993 886.902 242.993Z" fill="#010101"/>
<path d="M886.902 260.332H870.06C869.629 260.332 869.215 260.16 868.91 259.856C868.606 259.551 868.434 259.137 868.434 258.706C868.434 258.275 868.606 257.862 868.91 257.557C869.215 257.252 869.629 257.081 870.06 257.081H886.902C887.333 257.081 887.746 257.252 888.051 257.557C888.356 257.862 888.528 258.275 888.528 258.706C888.528 259.137 888.356 259.551 888.051 259.856C887.746 260.16 887.333 260.332 886.902 260.332Z" fill="#010101"/>
<path d="M886.902 277.454H870.06C869.629 277.454 869.215 277.283 868.91 276.978C868.606 276.673 868.434 276.26 868.434 275.829C868.434 275.398 868.606 274.984 868.91 274.679C869.215 274.374 869.629 274.203 870.06 274.203H886.902C887.333 274.203 887.746 274.374 888.051 274.679C888.356 274.984 888.528 275.398 888.528 275.829C888.528 276.26 888.356 276.673 888.051 276.978C887.746 277.283 887.333 277.454 886.902 277.454Z" fill="#010101"/>
<path d="M858.785 188.829L858.807 188.916L902.223 351.623L888.849 355.178L875.129 358.841L861.776 362.417L818.36 199.731L818.317 199.623L831.691 196.047L845.39 192.384L858.785 188.829Z" fill="#F8D637"/>
<path d="M861.757 364.042C861.4 364.039 861.053 363.919 860.771 363.7C860.489 363.48 860.287 363.174 860.196 362.828L816.845 200.142C816.709 199.705 816.751 199.232 816.962 198.826C817.174 198.42 817.537 198.114 817.972 197.975L858.419 187.138C858.627 187.082 858.844 187.069 859.057 187.098C859.27 187.127 859.475 187.198 859.66 187.307C859.846 187.416 860.008 187.56 860.137 187.732C860.266 187.904 860.36 188.1 860.413 188.308L903.764 350.994C903.82 351.2 903.834 351.416 903.807 351.628C903.779 351.84 903.71 352.044 903.603 352.229C903.497 352.415 903.354 352.577 903.185 352.707C903.015 352.837 902.822 352.933 902.615 352.988L862.147 363.825L861.757 364.042ZM820.313 200.771L862.906 360.422L900.231 350.452L857.617 190.801L820.313 200.771Z" fill="#010101"/>
<path d="M875.153 358.853L888.87 355.193L845.429 192.394L831.711 196.054L875.153 358.853Z" fill="#FF577F"/>
<path d="M875.089 360.466C874.732 360.463 874.385 360.343 874.103 360.123C873.821 359.904 873.619 359.598 873.529 359.252L830.178 196.458C830.122 196.251 830.108 196.036 830.135 195.824C830.163 195.612 830.232 195.408 830.339 195.223C830.445 195.037 830.588 194.875 830.757 194.745C830.927 194.615 831.12 194.519 831.327 194.464L845.047 190.801C845.254 190.745 845.469 190.731 845.681 190.758C845.893 190.786 846.097 190.855 846.283 190.962C846.468 191.068 846.63 191.211 846.76 191.38C846.891 191.55 846.986 191.743 847.041 191.95L890.392 354.744C890.448 354.95 890.463 355.166 890.435 355.378C890.407 355.59 890.338 355.794 890.232 355.979C890.125 356.164 889.983 356.327 889.813 356.457C889.644 356.587 889.45 356.683 889.244 356.738L875.523 360.401L875.089 360.466ZM833.646 197.195L876.238 356.846L886.816 354.029L844.224 194.377L833.646 197.195Z" fill="#010101"/>
<path d="M827.076 149.794L840.688 166.548C835.739 170.433 829.478 172.251 823.218 171.62L827.076 149.794Z" fill="#010101"/>
<path d="M1003.79 310.551H838.714V536.373H1003.79V310.551Z" fill="#FAF7F2"/>
<path d="M1003.82 537.999H838.716C838.284 537.999 837.871 537.827 837.566 537.522C837.261 537.218 837.09 536.804 837.09 536.373V310.55C837.09 310.119 837.261 309.706 837.566 309.401C837.871 309.096 838.284 308.925 838.716 308.925H1003.8C1004.23 308.925 1004.64 309.096 1004.95 309.401C1005.25 309.706 1005.42 310.119 1005.42 310.55V536.373C1005.42 536.8 1005.25 537.211 1004.95 537.515C1004.65 537.819 1004.25 537.993 1003.82 537.999ZM840.406 534.747H1002.24V312.176H840.406V534.747Z" fill="#010101"/>
<path d="M1014.4 294.252H828.14V326.828H1014.4V294.252Z" fill="#FAF7F2"/>
<path d="M1014.4 328.475H828.139C827.708 328.475 827.294 328.304 826.99 327.999C826.685 327.694 826.513 327.281 826.513 326.85V294.338C826.513 293.907 826.685 293.494 826.99 293.189C827.294 292.884 827.708 292.713 828.139 292.713H1014.4C1014.83 292.713 1015.24 292.884 1015.55 293.189C1015.85 293.494 1016.02 293.907 1016.02 294.338V326.85C1016.02 327.281 1015.85 327.694 1015.55 327.999C1015.24 328.304 1014.83 328.475 1014.4 328.475ZM829.765 325.224H1012.77V295.877H829.765V325.224Z" fill="#010101"/>
<path d="M1067.27 266.184V536.374H1319.44L1067.27 266.184ZM1123.82 404.465L1193.31 478.959H1123.82V404.465Z" fill="#FAF7F2"/>
<path d="M1319.44 537.999H1067.27C1066.84 537.999 1066.42 537.827 1066.12 537.522C1065.81 537.218 1065.64 536.804 1065.64 536.373V266.183C1065.64 265.857 1065.74 265.537 1065.92 265.267C1066.11 264.997 1066.37 264.789 1066.67 264.67C1066.98 264.551 1067.31 264.526 1067.63 264.598C1067.95 264.671 1068.24 264.838 1068.46 265.078L1320.57 535.268C1320.78 535.5 1320.92 535.789 1320.98 536.101C1321.03 536.413 1320.99 536.733 1320.86 537.023C1320.74 537.313 1320.53 537.56 1320.26 537.733C1320 537.906 1319.69 537.999 1319.37 537.999H1319.44ZM1068.96 534.747H1315.62L1068.89 270.323L1068.96 534.747ZM1193.37 480.562H1123.82C1123.39 480.562 1122.97 480.391 1122.67 480.086C1122.36 479.781 1122.19 479.368 1122.19 478.937V404.464C1122.19 404.138 1122.29 403.818 1122.47 403.548C1122.66 403.278 1122.92 403.07 1123.22 402.951C1123.53 402.831 1123.86 402.807 1124.18 402.879C1124.5 402.952 1124.79 403.119 1125.01 403.359L1194.5 477.853C1194.72 478.085 1194.86 478.374 1194.91 478.686C1194.97 478.998 1194.93 479.319 1194.8 479.609C1194.67 479.898 1194.46 480.145 1194.2 480.318C1193.94 480.492 1193.63 480.584 1193.31 480.584L1193.37 480.562ZM1125.51 477.311H1189.65L1125.44 408.582L1125.51 477.311Z" fill="#010101"/>
<path d="M1093.12 411.552H977.31V536.374H1093.12V411.552Z" fill="#FAF7F2"/>
<path d="M1093.12 537.999H977.311C976.88 537.999 976.467 537.828 976.162 537.523C975.857 537.218 975.686 536.805 975.686 536.374V411.552C975.686 411.121 975.857 410.708 976.162 410.403C976.467 410.098 976.88 409.927 977.311 409.927H1093.12C1093.55 409.927 1093.97 410.098 1094.27 410.403C1094.58 410.708 1094.75 411.121 1094.75 411.552V536.374C1094.75 536.805 1094.58 537.218 1094.27 537.523C1093.97 537.828 1093.55 537.999 1093.12 537.999ZM978.937 534.748H1091.5V413.178H978.937V534.748Z" fill="#010101"/>
<path d="M1093.12 421.328L1078.19 466.236C1077.53 468.196 1077.35 470.284 1077.66 472.328C1077.97 474.372 1078.76 476.312 1079.97 477.988C1081.18 479.664 1082.77 481.027 1084.61 481.965C1086.46 482.903 1088.5 483.388 1090.56 483.381H1095.7C1097.77 483.388 1099.81 482.903 1101.65 481.965C1103.49 481.027 1105.08 479.664 1106.29 477.988C1107.5 476.312 1108.3 474.372 1108.61 472.328C1108.92 470.284 1108.73 468.196 1108.08 466.236L1093.12 421.328Z" fill="#0D9CE8"/>
<path d="M1095.7 485.049H1090.56C1088.24 485.05 1085.95 484.5 1083.89 483.444C1081.82 482.388 1080.03 480.857 1078.67 478.975C1077.32 477.093 1076.42 474.916 1076.07 472.622C1075.72 470.328 1075.92 467.983 1076.65 465.78L1091.58 420.72C1091.69 420.399 1091.9 420.12 1092.17 419.922C1092.45 419.724 1092.78 419.618 1093.12 419.618C1093.46 419.618 1093.79 419.724 1094.07 419.922C1094.34 420.12 1094.55 420.399 1094.66 420.72L1109.59 465.672C1110.33 467.875 1110.52 470.22 1110.17 472.514C1109.82 474.808 1108.93 476.985 1107.57 478.867C1106.21 480.748 1104.42 482.28 1102.35 483.336C1100.29 484.392 1098 484.942 1095.68 484.94L1095.7 485.049ZM1093.14 426.529L1079.75 466.842C1079.18 468.558 1079.02 470.384 1079.3 472.17C1079.57 473.957 1080.27 475.652 1081.32 477.117C1082.38 478.582 1083.77 479.775 1085.38 480.596C1086.99 481.417 1088.78 481.844 1090.58 481.841H1095.72C1097.53 481.844 1099.31 481.417 1100.92 480.596C1102.53 479.775 1103.92 478.582 1104.98 477.117C1106.04 475.652 1106.74 473.957 1107.01 472.17C1107.28 470.384 1107.13 468.558 1106.56 466.842L1093.14 426.529Z" fill="#010101"/>
<path d="M493.69 336.483L561.196 400.272L794.766 153.122L727.26 89.3334L493.69 336.483Z" fill="#FAF7F2"/>
<path d="M561.229 401.886C560.808 401.885 560.404 401.722 560.102 401.43L492.582 337.622C492.278 337.317 492.107 336.904 492.107 336.473C492.107 336.042 492.278 335.629 492.582 335.324L726.158 88.2393C726.453 87.9317 726.858 87.7526 727.285 87.7408C727.499 87.7286 727.714 87.7609 727.915 87.8354C728.117 87.91 728.3 88.0254 728.455 88.1743L795.909 151.961C796.214 152.266 796.385 152.679 796.385 153.11C796.385 153.541 796.214 153.954 795.909 154.259L562.334 401.344C562.038 401.651 561.634 401.83 561.207 401.842L561.229 401.886ZM496.007 336.408L561.164 397.962L792.506 153.197L727.35 91.6421L496.007 336.408Z" fill="#010101"/>
<path d="M685.854 147.906L738.63 197.776L771.412 163.088L718.636 113.218L685.854 147.906Z" fill="#FF3972"/>
<path d="M738.664 199.405C738.244 199.405 737.84 199.242 737.537 198.95L684.757 149.1C684.453 148.795 684.282 148.382 684.282 147.951C684.282 147.52 684.453 147.107 684.757 146.802L717.552 112.124C717.848 111.816 718.253 111.637 718.68 111.625C718.894 111.61 719.11 111.641 719.311 111.716C719.513 111.791 719.697 111.908 719.85 112.059L772.63 161.909C772.934 162.214 773.105 162.627 773.105 163.058C773.105 163.489 772.934 163.902 772.63 164.207L739.835 198.885C739.539 199.193 739.134 199.372 738.708 199.384L738.664 199.405ZM688.182 147.843L738.599 195.526L769.162 163.188L718.745 115.505L688.182 147.843Z" fill="#010101"/>
<path d="M653.057 182.598L705.833 232.468L738.615 197.779L685.839 147.91L653.057 182.598Z" fill="#FF577F"/>
<path d="M705.867 234.085C705.447 234.084 705.043 233.921 704.74 233.63L651.96 183.779C651.656 183.474 651.485 183.061 651.485 182.63C651.485 182.2 651.656 181.786 651.96 181.482L684.755 146.803C685.06 146.499 685.473 146.328 685.904 146.328C686.335 146.328 686.748 146.499 687.053 146.803L739.833 196.653C740.137 196.958 740.308 197.371 740.308 197.802C740.308 198.233 740.137 198.646 739.833 198.951L707.038 233.63C706.883 233.779 706.699 233.897 706.498 233.975C706.297 234.053 706.083 234.09 705.867 234.085ZM655.385 182.522L705.802 230.205L736.365 197.846L685.947 150.163L655.385 182.522Z" fill="#010101"/>
<path d="M620.27 217.288L673.046 267.158L705.828 232.469L653.052 182.6L620.27 217.288Z" fill="#FF6E98"/>
<path d="M673.068 268.785C672.648 268.784 672.244 268.621 671.941 268.33L619.161 218.479C618.857 218.174 618.686 217.761 618.686 217.33C618.686 216.9 618.857 216.486 619.161 216.182L651.956 181.503C652.252 181.195 652.657 181.016 653.083 181.004C653.298 180.994 653.512 181.026 653.713 181.101C653.914 181.175 654.098 181.29 654.254 181.438L707.034 231.288C707.338 231.593 707.509 232.006 707.509 232.437C707.509 232.868 707.338 233.281 707.034 233.586L674.239 268.265C673.943 268.572 673.538 268.751 673.112 268.763L673.068 268.785ZM622.586 217.222L673.003 264.905L703.566 232.567L653.148 184.884L622.586 217.222Z" fill="#010101"/>
<path d="M587.504 251.978L640.28 301.848L673.062 267.16L620.286 217.29L587.504 251.978Z" fill="#FF94B8"/>
<path d="M640.298 303.486C639.878 303.485 639.474 303.322 639.171 303.03L586.391 253.18C586.087 252.875 585.916 252.462 585.916 252.031C585.916 251.601 586.087 251.187 586.391 250.883L619.186 216.204C619.491 215.9 619.904 215.729 620.335 215.729C620.766 215.729 621.179 215.9 621.484 216.204L674.264 266.054C674.568 266.359 674.739 266.772 674.739 267.203C674.739 267.634 674.568 268.047 674.264 268.352L641.469 303.03C641.314 303.18 641.13 303.297 640.929 303.376C640.728 303.454 640.514 303.491 640.298 303.486ZM589.816 251.923L640.233 299.606L670.796 267.268L620.379 219.585L589.816 251.923Z" fill="#010101"/>
<path d="M499.55 336.294L580.332 382.126L748.151 86.3704L667.368 40.5385L499.55 336.294Z" fill="#FAF7F2"/>
<path d="M580.302 383.875C580.02 383.873 579.744 383.799 579.5 383.658L498.715 337.817C498.354 337.604 498.089 337.26 497.976 336.856C497.863 336.452 497.91 336.02 498.108 335.65L665.92 39.8849C666.133 39.5236 666.478 39.2588 666.882 39.1457C667.286 39.0326 667.718 39.08 668.087 39.278L748.872 85.1188C749.233 85.332 749.498 85.6765 749.611 86.0805C749.724 86.4844 749.677 86.9164 749.479 87.2862L581.711 382.943C581.584 383.212 581.385 383.442 581.137 383.606C580.888 383.771 580.599 383.864 580.302 383.875ZM501.728 335.802L579.76 380.039L745.902 86.9394L667.871 42.7025L501.728 335.802Z" fill="#010101"/>
<path d="M641.123 107.311L704.279 143.142L727.833 101.632L664.677 65.8007L641.123 107.311Z" fill="#F9A428"/>
<path d="M704.243 144.787C703.961 144.786 703.685 144.711 703.441 144.57L640.279 108.743C639.917 108.53 639.653 108.185 639.539 107.781C639.426 107.377 639.474 106.945 639.672 106.576L663.233 65.048C663.446 64.6867 663.791 64.4218 664.195 64.3087C664.599 64.1956 665.031 64.2431 665.401 64.4411L728.563 100.268C728.924 100.482 729.189 100.826 729.302 101.23C729.415 101.634 729.368 102.066 729.17 102.436L705.609 143.963C705.396 144.335 705.046 144.607 704.633 144.722L704.243 144.787ZM643.292 106.727L703.615 140.951L725.528 102.241L665.206 68.0173L643.292 106.727Z" fill="#010101"/>
<path d="M617.561 148.817L680.717 184.648L704.271 143.138L641.115 107.307L617.561 148.817Z" fill="#F7BC39"/>
<path d="M680.703 186.293C680.421 186.292 680.145 186.217 679.901 186.077L616.738 150.249C616.377 150.036 616.112 149.692 615.999 149.288C615.886 148.884 615.933 148.452 616.131 148.082L639.671 106.446C639.884 106.085 640.229 105.82 640.633 105.707C641.037 105.594 641.469 105.641 641.838 105.839L705.001 141.666C705.362 141.88 705.627 142.224 705.74 142.628C705.853 143.032 705.806 143.464 705.608 143.834L682.177 185.47C681.964 185.841 681.613 186.114 681.201 186.228L680.703 186.293ZM619.751 148.234L680.009 182.457L701.966 143.769L641.643 109.545L619.751 148.234Z" fill="#010101"/>
<path d="M594.011 190.34L657.167 226.171L680.72 184.661L617.565 148.83L594.011 190.34Z" fill="#F8D637"/>
<path d="M657.141 227.821C656.859 227.819 656.583 227.744 656.339 227.604L593.176 191.777C592.815 191.563 592.55 191.219 592.437 190.815C592.324 190.411 592.371 189.979 592.569 189.609L616.131 148.082C616.344 147.72 616.688 147.456 617.092 147.342C617.496 147.229 617.928 147.277 618.298 147.475L681.461 183.302C681.822 183.515 682.087 183.86 682.2 184.264C682.313 184.668 682.265 185.1 682.067 185.469L658.55 226.997C658.337 227.368 657.986 227.641 657.574 227.756L657.141 227.821ZM596.189 189.761L656.512 223.984L678.469 185.296L618.146 151.073L596.189 189.761Z" fill="#010101"/>
<path d="M570.471 231.846L633.626 267.677L657.18 226.167L594.024 190.336L570.471 231.846Z" fill="#FFE266"/>
<path d="M633.582 269.326C633.301 269.325 633.024 269.25 632.78 269.11L569.618 233.282C569.257 233.069 568.992 232.725 568.879 232.321C568.766 231.917 568.813 231.485 569.011 231.115L592.572 189.609C592.786 189.248 593.13 188.983 593.534 188.87C593.938 188.757 594.37 188.804 594.74 189.002L657.902 224.829C658.264 225.043 658.528 225.387 658.642 225.791C658.755 226.195 658.707 226.627 658.509 226.997L634.948 268.503C634.735 268.874 634.385 269.147 633.973 269.261L633.582 269.326ZM572.631 231.267L632.954 265.49L654.911 226.802L594.588 192.578L572.631 231.267Z" fill="#010101"/>
<path d="M546.901 273.382L610.056 309.213L633.61 267.703L570.454 231.871L546.901 273.382Z" fill="#FFEA94"/>
<path d="M610.016 310.854C609.735 310.853 609.458 310.778 609.214 310.638L546.052 274.81C545.691 274.597 545.426 274.253 545.313 273.849C545.2 273.445 545.247 273.013 545.445 272.643L569.006 231.115C569.219 230.754 569.564 230.489 569.968 230.376C570.372 230.263 570.804 230.31 571.174 230.508L634.488 266.292C634.849 266.506 635.114 266.85 635.227 267.254C635.34 267.658 635.293 268.09 635.095 268.46L611.534 309.988C611.321 310.359 610.97 310.631 610.558 310.746L610.016 310.854ZM549.086 272.773L609.409 306.996L631.367 268.308L571.044 234.085L549.086 272.773Z" fill="#010101"/>
<path d="M511.293 336.095L602.646 352.861L664.035 18.402L572.681 1.63655L511.293 336.095Z" fill="#FAF7F2"/>
<path d="M602.648 354.463H602.344L510.939 337.665C510.517 337.586 510.144 337.344 509.9 336.99C509.656 336.637 509.562 336.202 509.638 335.78L571.088 1.32616C571.167 0.904407 571.41 0.531015 571.763 0.287402C572.116 0.0437889 572.552 -0.0502949 572.974 0.0257023L664.336 16.8015C664.758 16.8805 665.132 17.1231 665.375 17.4764C665.619 17.8296 665.713 18.2648 665.637 18.6871L604.143 353.14C604.077 353.496 603.893 353.819 603.622 354.058C603.352 354.298 603.009 354.44 602.648 354.463ZM513.106 334.761L601.261 350.951L662.147 19.7492L573.971 3.55859L513.106 334.761Z" fill="#010101"/>
<path d="M569.836 73.3132L641.256 86.4204L649.872 39.4781L578.452 26.3709L569.836 73.3132Z" fill="#1790C6"/>
<path d="M641.251 88.0442H640.991L569.461 75.0398C569.04 74.9607 568.666 74.7182 568.423 74.3649C568.179 74.0117 568.085 73.5764 568.161 73.1541L576.831 26.208C576.91 25.7862 577.153 25.4128 577.506 25.1692C577.859 24.9256 578.294 24.8315 578.717 24.9075L650.246 37.912C650.668 37.9911 651.041 38.2336 651.285 38.5869C651.528 38.9401 651.622 39.3753 651.546 39.7977L642.876 86.7438C642.805 87.1168 642.606 87.4532 642.313 87.6947C642.02 87.9362 641.652 88.0675 641.272 88.0659L641.251 88.0442ZM571.629 71.9837L639.863 84.5114L647.905 40.7513L579.671 28.2237L571.629 71.9837Z" fill="#010101"/>
<path d="M561.194 120.264L632.615 133.372L641.231 86.4292L569.811 73.322L561.194 120.264Z" fill="#0D9CE8"/>
<path d="M632.645 134.991H632.32L560.791 121.987C560.369 121.908 559.995 121.665 559.752 121.312C559.508 120.958 559.414 120.523 559.49 120.101L568.16 73.1548C568.239 72.733 568.482 72.3596 568.835 72.116C569.188 71.8724 569.624 71.7783 570.046 71.8543L641.575 84.8588C641.997 84.9378 642.37 85.1804 642.614 85.5337C642.858 85.8869 642.952 86.3221 642.876 86.7445L634.206 133.691C634.132 134.052 633.937 134.378 633.653 134.615C633.37 134.851 633.014 134.984 632.645 134.991ZM563.11 118.952L631.344 131.48L639.386 87.7198L571.151 75.1921L563.11 118.952Z" fill="#010101"/>
<path d="M553.3 168.467L624.461 181.537L633.052 134.765L561.892 121.695L553.3 168.467Z" fill="#25B3F2"/>
<path d="M624.019 181.936H623.651L552.122 168.931C551.7 168.852 551.326 168.61 551.083 168.257C550.839 167.903 550.745 167.468 550.821 167.046L559.491 120.1C559.57 119.678 559.813 119.304 560.166 119.061C560.519 118.817 560.955 118.723 561.377 118.799L632.906 131.804C633.328 131.883 633.701 132.125 633.945 132.478C634.189 132.832 634.283 133.267 634.207 133.689L625.537 180.635C625.466 181.008 625.266 181.345 624.974 181.586C624.681 181.828 624.312 181.959 623.933 181.958L624.019 181.936ZM554.484 165.897L622.719 178.425L630.739 134.621L562.504 122.094L554.484 165.897Z" fill="#010101"/>
<path d="M543.966 214.176L615.386 227.283L624.002 180.34L552.582 167.233L543.966 214.176Z" fill="#49CEFC"/>
<path d="M615.393 228.883H615.089L543.56 215.879C543.138 215.8 542.765 215.557 542.521 215.204C542.278 214.851 542.184 214.415 542.26 213.993L550.93 167.047C551.009 166.625 551.252 166.252 551.605 166.008C551.958 165.764 552.393 165.67 552.816 165.746L624.345 178.751C624.767 178.83 625.14 179.072 625.384 179.426C625.627 179.779 625.721 180.214 625.645 180.637L616.975 227.583C616.904 227.956 616.705 228.292 616.412 228.534C616.119 228.775 615.751 228.906 615.371 228.905L615.393 228.883ZM545.858 212.844L614.092 225.372L622.134 181.612L553.899 169.084L545.858 212.844Z" fill="#010101"/>
<path d="M535.346 261.128L606.766 274.235L615.382 227.293L543.962 214.186L535.346 261.128Z" fill="#6CE0FF"/>
<path d="M606.787 275.829H606.483L534.954 262.825C534.532 262.746 534.159 262.503 533.915 262.15C533.671 261.797 533.577 261.362 533.653 260.939L542.324 213.993C542.403 213.571 542.645 213.198 542.999 212.954C543.352 212.711 543.787 212.617 544.209 212.693L615.739 225.697C616.16 225.776 616.534 226.019 616.777 226.372C617.021 226.725 617.115 227.161 617.039 227.583L608.369 274.529C608.298 274.902 608.099 275.238 607.806 275.48C607.513 275.721 607.145 275.853 606.765 275.851L606.787 275.829ZM537.252 259.791L605.486 272.318L613.528 228.558L545.293 216.031L537.252 259.791Z" fill="#010101"/>
<path d="M427.01 536.373H47.5588L1.62842 349.347H381.08L427.01 536.373Z" fill="#010101"/>
<path d="M427.012 537.999H47.5602C47.1962 538 46.8425 537.878 46.5556 537.654C46.2687 537.43 46.0653 537.117 45.9779 536.763L0.0475199 349.737C-0.0117708 349.498 -0.0156341 349.247 0.0362416 349.006C0.0881172 348.764 0.194356 348.538 0.346891 348.344C0.499426 348.149 0.694244 347.992 0.916544 347.884C1.13884 347.777 1.38278 347.721 1.62982 347.722H381.081C381.445 347.721 381.799 347.842 382.086 348.066C382.373 348.29 382.576 348.604 382.663 348.957L428.572 535.983C428.631 536.223 428.635 536.473 428.583 536.715C428.532 536.956 428.425 537.183 428.273 537.377C428.12 537.571 427.925 537.728 427.703 537.836C427.481 537.944 427.237 537.999 426.99 537.999H427.012ZM48.8391 534.748H424.931L379.802 350.973H3.73235L48.8391 534.748Z" fill="#010101"/>
<path d="M201.847 323.729H52.7842V429.953H201.847V323.729Z" fill="#FAF7F2"/>
<path d="M201.844 431.557H52.7817C52.3505 431.557 51.937 431.386 51.6322 431.081C51.3273 430.776 51.156 430.363 51.156 429.932V323.729C51.156 323.297 51.3273 322.884 51.6322 322.579C51.937 322.274 52.3505 322.103 52.7817 322.103H201.844C202.275 322.103 202.689 322.274 202.994 322.579C203.298 322.884 203.47 323.297 203.47 323.729V429.932C203.47 430.363 203.298 430.776 202.994 431.081C202.689 431.386 202.275 431.557 201.844 431.557ZM54.4507 428.306H200.262V325.354H54.4073L54.4507 428.306Z" fill="#010101"/>
<path d="M246.431 291.89H70.7078V405.44H246.431V291.89Z" fill="#FAF7F2"/>
<path d="M246.495 407.087H70.707C70.2758 407.087 69.8623 406.916 69.5574 406.611C69.2526 406.306 69.0813 405.893 69.0813 405.462V291.889C69.0813 291.458 69.2526 291.045 69.5574 290.74C69.8623 290.435 70.2758 290.264 70.707 290.264H246.495C246.926 290.264 247.34 290.435 247.645 290.74C247.95 291.045 248.121 291.458 248.121 291.889V405.548C248.099 405.964 247.918 406.356 247.615 406.642C247.313 406.929 246.912 407.088 246.495 407.087ZM72.3976 403.836H244.87V293.515H72.3326L72.3976 403.836Z" fill="#010101"/>
<path d="M126.654 355.394L121.668 366.686H112.716L134.609 317.009H143.561L165.453 366.686H156.501L151.515 355.394H126.654ZM148.112 347.657L139.095 327.196L130.078 347.657H148.112Z" fill="#010101"/>
<path d="M165.477 367.77H156.525C156.314 367.771 156.107 367.709 155.929 367.594C155.752 367.478 155.613 367.313 155.528 367.12L150.846 356.456H127.285L122.603 367.12C122.518 367.313 122.379 367.478 122.202 367.594C122.025 367.709 121.817 367.771 121.606 367.77H112.654C112.474 367.77 112.296 367.726 112.137 367.641C111.978 367.555 111.843 367.432 111.744 367.281C111.645 367.131 111.586 366.958 111.57 366.778C111.555 366.598 111.585 366.418 111.657 366.253L133.549 316.576C133.634 316.382 133.773 316.217 133.95 316.101C134.128 315.986 134.335 315.925 134.546 315.925H143.498C143.71 315.925 143.917 315.986 144.094 316.101C144.271 316.217 144.411 316.382 144.495 316.576L166.388 366.253C166.46 366.418 166.489 366.598 166.474 366.778C166.459 366.958 166.399 367.131 166.3 367.281C166.201 367.432 166.066 367.555 165.907 367.641C165.748 367.726 165.571 367.77 165.39 367.77H165.477ZM157.219 365.602H163.721L142.783 318.093H135.24L114.301 365.602H120.804L125.486 354.939C125.57 354.745 125.71 354.58 125.887 354.464C126.064 354.349 126.271 354.288 126.483 354.289H151.366C151.578 354.288 151.785 354.349 151.962 354.464C152.139 354.58 152.279 354.745 152.363 354.939L157.219 365.602ZM148.115 348.718H130.059C129.879 348.719 129.702 348.675 129.543 348.589C129.384 348.504 129.249 348.38 129.15 348.23C129.051 348.079 128.991 347.906 128.976 347.726C128.96 347.547 128.99 347.366 129.062 347.201L138.079 326.741C138.175 326.559 138.318 326.407 138.494 326.301C138.67 326.195 138.871 326.139 139.076 326.139C139.282 326.139 139.483 326.195 139.659 326.301C139.834 326.407 139.978 326.559 140.073 326.741L149.09 347.201C149.163 347.366 149.192 347.547 149.177 347.726C149.162 347.906 149.102 348.079 149.003 348.23C148.904 348.38 148.769 348.504 148.61 348.589C148.451 348.675 148.274 348.719 148.093 348.718H148.115ZM131.728 346.551H146.446L139.076 329.862L131.728 346.551Z" fill="#010101"/>
<path d="M201.847 366.687H194.607V361.637C193.084 363.475 191.157 364.938 188.977 365.912C186.797 366.885 184.422 367.343 182.036 367.251C178.477 367.382 174.995 366.193 172.26 363.913C170.982 362.813 169.969 361.439 169.297 359.892C168.625 358.346 168.312 356.668 168.38 354.983C168.282 353.354 168.61 351.728 169.332 350.264C170.054 348.801 171.146 347.551 172.498 346.638C175.862 344.627 179.747 343.661 183.661 343.864H193.957V342.434C193.957 337.405 191.161 334.891 185.569 334.891C181.655 335.061 177.881 336.397 174.731 338.727L171.176 333.742C175.594 330.163 181.119 328.232 186.804 328.281C190.698 328.128 194.526 329.322 197.642 331.662C199.142 332.972 200.315 334.615 201.067 336.459C201.82 338.302 202.131 340.296 201.977 342.282L201.847 366.687ZM193.892 352.621V349.413H184.94C179.16 349.413 176.27 351.212 176.27 354.81C176.215 355.659 176.387 356.508 176.768 357.27C177.149 358.031 177.725 358.678 178.438 359.144C180.227 360.212 182.296 360.718 184.377 360.597C186.773 360.63 189.114 359.868 191.031 358.429C191.951 357.773 192.695 356.899 193.194 355.886C193.693 354.872 193.933 353.75 193.892 352.621Z" fill="#010101"/>
<path d="M182.036 368.334C178.216 368.466 174.481 367.185 171.545 364.736C170.137 363.544 169.017 362.05 168.266 360.366C167.515 358.681 167.154 356.848 167.21 355.005C167.108 353.196 167.478 351.392 168.283 349.769C169.089 348.147 170.303 346.762 171.805 345.75C175.357 343.573 179.479 342.509 183.64 342.694H192.852V342.347C192.852 338.012 190.533 335.845 185.548 335.845C181.812 336.005 178.211 337.281 175.208 339.508C174.975 339.669 174.687 339.732 174.407 339.683C174.128 339.634 173.878 339.478 173.713 339.247L170.158 334.262C169.999 334.036 169.933 333.756 169.973 333.482C170.013 333.208 170.157 332.96 170.375 332.789C174.986 329.061 180.746 327.047 186.675 327.088C190.842 326.921 194.939 328.2 198.271 330.708C199.88 332.129 201.136 333.904 201.941 335.894C202.746 337.884 203.078 340.034 202.91 342.174V366.557C202.91 366.844 202.795 367.12 202.592 367.323C202.389 367.526 202.113 367.641 201.826 367.641H194.586C194.299 367.641 194.023 367.526 193.82 367.323C193.617 367.12 193.502 366.844 193.502 366.557V364.368C190.303 367.063 186.217 368.476 182.036 368.334ZM183.64 344.861C179.944 344.661 176.271 345.559 173.084 347.44C171.876 348.254 170.904 349.372 170.265 350.681C169.626 351.989 169.342 353.443 169.443 354.896C169.37 356.424 169.646 357.948 170.251 359.352C170.855 360.757 171.773 362.005 172.932 363.002C175.473 365.105 178.697 366.2 181.993 366.08C184.222 366.18 186.444 365.759 188.483 364.853C190.521 363.946 192.322 362.578 193.741 360.857C193.884 360.689 194.075 360.569 194.289 360.513C194.502 360.457 194.728 360.467 194.935 360.542C195.142 360.618 195.322 360.755 195.449 360.935C195.577 361.115 195.646 361.33 195.648 361.55V365.517H200.72V342.304C200.72 337.774 199.463 334.588 196.905 332.529C193.958 330.336 190.345 329.226 186.675 329.386C181.58 329.347 176.612 330.967 172.521 334.002L174.97 337.275C178.128 335.143 181.825 333.948 185.634 333.829C193.459 333.829 195.106 338.511 195.106 342.499V343.929C195.106 344.217 194.992 344.492 194.789 344.695C194.586 344.899 194.31 345.013 194.023 345.013L183.64 344.861ZM184.377 361.485C182.094 361.595 179.83 361.022 177.874 359.838C177.038 359.28 176.359 358.517 175.904 357.621C175.448 356.725 175.231 355.727 175.273 354.723C175.273 351.775 176.942 348.221 184.962 348.221H193.914C194.202 348.221 194.477 348.335 194.681 348.538C194.884 348.741 194.998 349.017 194.998 349.304V352.49C195.036 353.779 194.757 355.058 194.187 356.214C193.616 357.37 192.771 358.369 191.725 359.123C189.627 360.74 187.048 361.61 184.399 361.594L184.377 361.485ZM184.919 350.388C177.397 350.388 177.397 353.639 177.397 354.723C177.36 355.376 177.494 356.029 177.787 356.614C178.08 357.2 178.521 357.698 179.067 358.061C180.678 359.006 182.534 359.451 184.399 359.339C186.557 359.393 188.671 358.722 190.403 357.432C191.179 356.879 191.805 356.142 192.225 355.287C192.645 354.432 192.845 353.486 192.809 352.534V350.366L184.919 350.388Z" fill="#010101"/>
<path d="M361.727 400.629L302.532 536.374H47.6494L116.794 377.806H191.488L181.539 400.629H361.727Z" fill="#F8D637"/>
<path d="M302.527 537.999H47.6449C47.388 537.994 47.1361 537.927 46.9099 537.805C46.6837 537.683 46.4897 537.509 46.3438 537.297C46.1978 537.086 46.1041 536.843 46.0703 536.588C46.0365 536.333 46.0635 536.074 46.1493 535.832L115.294 377.242C115.421 376.952 115.63 376.704 115.896 376.531C116.162 376.358 116.472 376.266 116.79 376.267H191.484C191.74 376.273 191.992 376.34 192.218 376.462C192.445 376.584 192.639 376.758 192.785 376.969C192.931 377.181 193.024 377.424 193.058 377.678C193.092 377.933 193.065 378.192 192.979 378.435L184.027 399.047H361.766C362.023 399.052 362.275 399.119 362.501 399.241C362.727 399.363 362.921 399.537 363.067 399.749C363.213 399.96 363.307 400.203 363.341 400.458C363.375 400.713 363.348 400.972 363.262 401.214L304.066 536.981C303.943 537.287 303.73 537.548 303.455 537.73C303.18 537.912 302.857 538.006 302.527 537.999ZM50.1376 534.748H301.465L359.209 402.254H181.469C181.213 402.249 180.961 402.182 180.734 402.06C180.508 401.938 180.314 401.764 180.168 401.552C180.022 401.341 179.929 401.098 179.895 400.843C179.861 400.588 179.888 400.329 179.974 400.087L188.926 379.54H117.874L50.1376 534.748Z" fill="#010101"/>
<path d="M696.721 509.086H261.846L196.082 241.216C195.338 238.18 195.295 235.014 195.957 231.959C196.619 228.905 197.969 226.041 199.904 223.586C201.839 221.131 204.308 219.149 207.124 217.791C209.94 216.433 213.028 215.735 216.154 215.749H614.007C617.064 215.748 620.032 216.773 622.437 218.659C624.842 220.545 626.545 223.184 627.273 226.152L696.721 509.086Z" fill="#FAF7F2"/>
<path d="M696.721 510.711H261.845C261.481 510.712 261.127 510.591 260.841 510.367C260.554 510.143 260.35 509.829 260.263 509.476L194.478 241.605C193.674 238.328 193.627 234.91 194.343 231.612C195.058 228.314 196.516 225.223 198.606 222.573C200.696 219.923 203.363 217.785 206.403 216.32C209.444 214.856 212.778 214.104 216.153 214.122H614.007C617.433 214.102 620.764 215.241 623.46 217.354C626.156 219.467 628.057 222.43 628.855 225.761L698.325 508.695C698.384 508.935 698.388 509.185 698.336 509.427C698.284 509.668 698.178 509.895 698.026 510.089C697.873 510.284 697.678 510.441 697.456 510.548C697.234 510.656 696.99 510.712 696.743 510.711H696.721ZM263.211 507.46H694.662L625.69 226.542C625.053 223.925 623.555 221.598 621.436 219.935C619.317 218.272 616.701 217.37 614.007 217.374H216.153C213.274 217.36 210.43 218.003 207.837 219.253C205.244 220.503 202.969 222.328 201.187 224.589C199.405 226.849 198.161 229.487 197.55 232.3C196.94 235.113 196.979 238.029 197.664 240.825L263.211 507.46Z" fill="#010101"/>
<path d="M664.426 490.381H284.975L222.137 234.453H601.567L664.426 490.381Z" fill="#FAF7F2"/>
<path d="M664.42 492.007H284.969C284.605 492.008 284.251 491.886 283.964 491.662C283.677 491.438 283.474 491.125 283.386 490.771L220.484 234.843C220.425 234.604 220.421 234.353 220.473 234.112C220.525 233.87 220.631 233.644 220.783 233.45C220.936 233.255 221.131 233.098 221.353 232.99C221.575 232.883 221.819 232.827 222.066 232.828H601.561C601.925 232.827 602.279 232.948 602.566 233.172C602.853 233.396 603.056 233.71 603.143 234.063L666.002 489.991C666.062 490.231 666.065 490.481 666.014 490.723C665.962 490.964 665.856 491.191 665.703 491.385C665.55 491.579 665.356 491.736 665.133 491.844C664.911 491.952 664.667 492.007 664.42 492.007ZM286.269 488.756H662.339L600.304 236.079H224.212L286.269 488.756Z" fill="#010101"/>
<path d="M926.872 522.741C926.866 526.355 925.428 529.819 922.872 532.374C920.317 534.93 916.852 536.368 913.238 536.374H279.251C276.194 536.378 273.224 535.355 270.818 533.468C268.412 531.581 266.71 528.941 265.986 525.97L261.846 509.064H913.238C915.031 509.067 916.806 509.423 918.462 510.112C920.118 510.801 921.622 511.809 922.888 513.079C924.154 514.349 925.157 515.856 925.841 517.514C926.524 519.171 926.875 520.948 926.872 522.741Z" fill="#FAF7F2"/>
<path d="M913.239 538H279.253C275.827 538.021 272.496 536.882 269.8 534.769C267.104 532.655 265.203 529.692 264.405 526.361L260.265 509.455C260.206 509.215 260.202 508.965 260.254 508.724C260.306 508.482 260.412 508.256 260.564 508.061C260.717 507.867 260.912 507.71 261.134 507.602C261.356 507.494 261.6 507.439 261.847 507.439H913.239C917.292 507.439 921.179 509.049 924.045 511.915C926.911 514.781 928.521 518.667 928.521 522.72C928.521 526.772 926.911 530.659 924.045 533.524C921.179 536.39 917.292 538 913.239 538ZM263.841 510.712L267.483 525.602C268.116 528.221 269.614 530.55 271.733 532.214C273.853 533.877 276.472 534.778 279.166 534.77H913.239C916.43 534.77 919.49 533.503 921.746 531.247C924.002 528.991 925.27 525.932 925.27 522.741C925.27 519.551 924.002 516.491 921.746 514.236C919.49 511.98 916.43 510.712 913.239 510.712H263.841Z" fill="#010101"/>
<path d="M540.961 522.741C540.956 526.359 539.514 529.826 536.954 532.382C534.394 534.938 530.924 536.374 527.306 536.374H279.251C276.194 536.378 273.224 535.355 270.818 533.468C268.412 531.581 266.71 528.941 265.986 525.97L261.846 509.064H527.306C529.101 509.064 530.878 509.418 532.537 510.106C534.195 510.793 535.701 511.801 536.969 513.071C538.238 514.342 539.243 515.85 539.928 517.509C540.613 519.168 540.964 520.946 540.961 522.741Z" fill="#010101"/>
<path d="M527.307 538H279.253C275.827 538.021 272.496 536.882 269.8 534.769C267.104 532.655 265.203 529.692 264.405 526.361L260.265 509.455C260.206 509.215 260.202 508.965 260.254 508.724C260.306 508.482 260.412 508.256 260.564 508.061C260.717 507.867 260.912 507.71 261.134 507.602C261.356 507.494 261.6 507.439 261.847 507.439H527.307C531.36 507.439 535.247 509.049 538.113 511.915C540.978 514.781 542.588 518.667 542.588 522.72C542.588 526.772 540.978 530.659 538.113 533.524C535.247 536.39 531.36 538 527.307 538ZM263.841 510.712L267.483 525.602C268.116 528.221 269.614 530.55 271.733 532.214C273.853 533.877 276.472 534.778 279.166 534.77H527.307C530.498 534.77 533.558 533.503 535.814 531.247C538.07 528.991 539.337 525.932 539.337 522.741C539.337 519.551 538.07 516.491 535.814 514.236C533.558 511.98 530.498 510.712 527.307 510.712H263.841Z" fill="#010101"/>
<path d="M435.421 392.696C439.756 410.165 457.248 424.318 474.718 424.318C492.189 424.318 502.896 410.165 498.561 392.696C494.226 375.226 476.734 361.073 459.264 361.073C441.793 361.073 431.194 375.205 435.421 392.696Z" fill="#F8D637"/>
<path d="M474.717 425.943C456.574 425.943 438.237 411.205 433.858 393.086C432.682 389.012 432.461 384.722 433.213 380.55C433.965 376.377 435.669 372.434 438.193 369.027C440.742 365.914 443.975 363.432 447.641 361.774C451.307 360.116 455.306 359.327 459.327 359.469C477.469 359.469 495.807 374.207 500.185 392.327C501.361 396.4 501.582 400.69 500.83 404.863C500.078 409.035 498.374 412.978 495.85 416.385C493.302 419.498 490.069 421.981 486.403 423.639C482.737 425.297 478.737 426.086 474.717 425.943ZM459.37 362.72C455.839 362.58 452.322 363.259 449.096 364.703C445.87 366.147 443.022 368.316 440.773 371.043C438.548 374.061 437.048 377.551 436.391 381.242C435.733 384.933 435.934 388.726 436.98 392.327C441.033 409.081 457.961 422.671 474.695 422.671C478.227 422.81 481.743 422.132 484.969 420.688C488.195 419.244 491.044 417.074 493.292 414.348C495.517 411.33 497.017 407.84 497.675 404.149C498.332 400.458 498.131 396.664 497.086 393.064C493.011 376.331 476.104 362.698 459.37 362.698V362.72Z" fill="#010101"/>
<path d="M402.496 319.285L376.659 396.445H465.767L402.496 319.285Z" fill="#FF577F"/>
<path d="M465.769 398.071H376.661C376.4 398.072 376.143 398.01 375.911 397.891C375.68 397.772 375.48 397.599 375.329 397.386C375.178 397.174 375.08 396.928 375.044 396.67C375.008 396.412 375.035 396.149 375.122 395.903L400.959 318.852C401.051 318.577 401.215 318.331 401.434 318.14C401.653 317.95 401.918 317.821 402.204 317.768C402.489 317.715 402.783 317.739 403.056 317.838C403.329 317.938 403.57 318.108 403.755 318.332L467.026 395.492C467.224 395.73 467.35 396.019 467.389 396.326C467.429 396.633 467.379 396.945 467.247 397.225C467.115 397.505 466.906 397.742 466.644 397.907C466.382 398.072 466.078 398.159 465.769 398.158V398.071ZM378.937 394.711H462.344L403.127 322.493L378.937 394.711Z" fill="#010101"/>
<path d="M484.539 352.512H458.875L452.633 326.85H478.318L484.539 352.512Z" fill="#0D9CE8"/>
<path d="M484.538 354.138H458.917C458.553 354.139 458.2 354.017 457.913 353.793C457.626 353.569 457.422 353.255 457.335 352.902L451.114 327.218C451.055 326.979 451.051 326.728 451.103 326.487C451.155 326.245 451.261 326.019 451.414 325.825C451.566 325.63 451.761 325.473 451.983 325.365C452.206 325.258 452.449 325.202 452.696 325.203H478.425C478.789 325.202 479.143 325.323 479.43 325.547C479.717 325.771 479.92 326.085 480.008 326.438L486.228 352.122C486.288 352.362 486.292 352.612 486.24 352.853C486.188 353.095 486.082 353.321 485.929 353.516C485.777 353.71 485.582 353.867 485.359 353.975C485.137 354.083 484.893 354.138 484.646 354.138H484.538ZM460.131 350.886H482.457L477.016 328.454H454.691L460.131 350.886Z" fill="#010101"/>
<path d="M811.105 372.755L767.754 471.633C766.936 473.497 766.575 475.529 766.699 477.56C766.823 479.592 767.43 481.565 768.469 483.315C769.675 485.256 770.187 487.548 769.921 489.817L768.816 497.533C768.72 497.88 768.752 498.249 768.906 498.574C769.06 498.898 769.326 499.157 769.655 499.301C769.984 499.446 770.354 499.467 770.697 499.362C771.041 499.256 771.335 499.03 771.525 498.725L775.34 493.545C776.861 491.395 779.15 489.913 781.734 489.406C783.827 489.046 785.798 488.172 787.47 486.863C789.142 485.555 790.463 483.851 791.315 481.906L834.666 383.029L811.105 372.755Z" fill="#FAF7F2"/>
<path d="M770.371 501.089C769.93 501.084 769.495 500.988 769.093 500.807C768.415 500.519 767.863 499.998 767.537 499.338C767.211 498.677 767.132 497.922 767.315 497.209L768.377 489.645C768.608 487.722 768.172 485.779 767.142 484.14C765.978 482.166 765.299 479.945 765.159 477.658C765.02 475.371 765.425 473.084 766.34 470.983L809.691 372.106C809.776 371.906 809.899 371.726 810.055 371.575C810.21 371.424 810.395 371.306 810.597 371.227C810.799 371.148 811.014 371.11 811.231 371.116C811.448 371.122 811.661 371.171 811.858 371.261L835.42 381.578C835.619 381.662 835.8 381.786 835.951 381.942C836.102 382.097 836.22 382.281 836.299 382.483C836.378 382.685 836.415 382.901 836.409 383.118C836.404 383.334 836.354 383.548 836.265 383.745L792.914 482.622C791.951 484.82 790.456 486.743 788.564 488.219C786.672 489.695 784.442 490.676 782.076 491.075C779.909 491.52 777.994 492.776 776.722 494.586L772.907 499.767C772.627 500.18 772.249 500.517 771.806 500.748C771.364 500.978 770.871 501.096 770.371 501.089ZM811.945 374.924L769.309 472.284C768.6 473.914 768.287 475.689 768.396 477.464C768.506 479.238 769.034 480.961 769.938 482.492C771.341 484.765 771.922 487.45 771.585 490.1L770.545 497.447L774.1 492.636C775.861 490.148 778.518 488.439 781.513 487.868C783.339 487.561 785.062 486.807 786.526 485.672C787.989 484.538 789.149 483.058 789.901 481.365L832.515 383.875L811.945 374.924Z" fill="#010101"/>
<path d="M836.29 342.366L839.864 343.931C843.197 345.391 845.814 348.115 847.139 351.504C848.463 354.893 848.388 358.669 846.928 362.002L837.172 384.278L808.462 371.706L818.217 349.43C818.94 347.779 819.981 346.287 821.28 345.039C822.58 343.791 824.112 342.811 825.791 342.155C827.469 341.499 829.26 341.18 831.061 341.216C832.863 341.253 834.639 341.643 836.29 342.366Z" fill="#FF577F"/>
<path d="M837.244 385.825C837.021 385.828 836.799 385.783 836.594 385.695L807.895 373.038C807.696 372.953 807.515 372.829 807.364 372.674C807.213 372.518 807.095 372.334 807.016 372.132C806.937 371.93 806.9 371.714 806.906 371.498C806.911 371.281 806.961 371.068 807.05 370.87L816.804 348.611C818.435 344.884 821.479 341.957 825.267 340.474C829.055 338.99 833.277 339.072 837.006 340.7L840.582 342.26C842.43 343.068 844.101 344.231 845.499 345.685C846.897 347.139 847.995 348.853 848.73 350.732C849.464 352.61 849.822 354.614 849.781 356.63C849.741 358.647 849.303 360.635 848.494 362.482L838.74 384.742C838.63 385.053 838.428 385.323 838.161 385.516C837.894 385.71 837.574 385.818 837.244 385.825ZM810.67 370.87L836.399 382.141L845.502 361.377C846.79 358.439 846.858 355.111 845.691 352.124C844.524 349.136 842.219 346.734 839.282 345.446L835.705 343.886C832.767 342.599 829.439 342.531 826.451 343.697C823.464 344.864 821.062 347.169 819.774 350.106L810.67 370.87Z" fill="#010101"/>
<path d="M844.213 387.346L801.425 368.609C798.947 367.524 796.058 368.653 794.973 371.131L794.416 372.402C793.331 374.88 794.46 377.769 796.938 378.854L839.726 397.591C842.204 398.676 845.093 397.547 846.178 395.069L846.735 393.798C847.82 391.32 846.691 388.431 844.213 387.346Z" fill="#FF577F"/>
<path d="M841.748 399.567C840.846 399.57 839.952 399.386 839.125 399.025L796.338 380.299C795.542 379.958 794.821 379.461 794.22 378.838C793.618 378.215 793.147 377.478 792.834 376.671C792.521 375.863 792.372 375.001 792.397 374.135C792.422 373.27 792.619 372.417 792.978 371.629L793.542 370.35C793.883 369.554 794.379 368.834 795.002 368.232C795.625 367.631 796.362 367.159 797.17 366.847C797.978 366.534 798.84 366.385 799.705 366.41C800.571 366.435 801.423 366.632 802.212 366.991L844.999 385.717C845.796 386.058 846.516 386.555 847.117 387.178C847.719 387.801 848.19 388.538 848.503 389.345C848.816 390.153 848.965 391.015 848.94 391.881C848.915 392.746 848.718 393.598 848.359 394.387L847.795 395.666C847.288 396.829 846.451 397.818 845.388 398.511C844.325 399.204 843.082 399.571 841.813 399.567H841.748ZM799.524 369.765C798.89 369.766 798.27 369.95 797.739 370.297C797.208 370.643 796.789 371.136 796.533 371.716L795.969 372.995C795.793 373.39 795.698 373.816 795.687 374.249C795.677 374.681 795.753 375.112 795.91 375.515C796.067 375.918 796.303 376.286 796.603 376.597C796.904 376.909 797.263 377.158 797.66 377.329L840.404 396.034C840.799 396.21 841.226 396.306 841.658 396.316C842.091 396.326 842.521 396.25 842.924 396.093C843.328 395.936 843.696 395.7 844.007 395.4C844.319 395.1 844.567 394.741 844.739 394.343L845.303 393.065C845.479 392.669 845.575 392.243 845.585 391.811C845.595 391.378 845.519 390.948 845.362 390.545C845.205 390.141 844.969 389.774 844.669 389.462C844.368 389.151 844.009 388.902 843.612 388.73L800.825 370.003C800.419 369.839 799.984 369.758 799.546 369.765H799.524Z" fill="#010101"/>
<path d="M944.624 491.204C937.103 491.204 931.792 489.037 929.235 484.941C921.583 472.543 941.742 446.881 976.141 425.228C976.381 425.076 976.649 424.973 976.93 424.924C977.21 424.875 977.498 424.882 977.775 424.945C978.053 425.007 978.316 425.124 978.549 425.288C978.781 425.452 978.98 425.66 979.132 425.9C979.284 426.141 979.388 426.409 979.436 426.689C979.485 426.97 979.478 427.257 979.415 427.535C979.353 427.813 979.236 428.075 979.073 428.308C978.909 428.541 978.7 428.739 978.46 428.891C944.559 450.24 927.544 473.93 932.941 482.665C935.737 487.216 944.603 488.127 957.24 485.222C970.808 482.08 987.065 474.949 1003.02 465.109C1015.42 457.637 1026.83 448.637 1036.98 438.319C1037.18 438.113 1037.42 437.947 1037.68 437.832C1037.94 437.717 1038.22 437.653 1038.5 437.646C1038.79 437.639 1039.07 437.688 1039.34 437.791C1039.6 437.893 1039.84 438.047 1040.05 438.244C1040.26 438.44 1040.42 438.675 1040.54 438.936C1040.65 439.196 1040.72 439.477 1040.72 439.761C1040.73 440.046 1040.68 440.33 1040.58 440.595C1040.48 440.861 1040.32 441.104 1040.13 441.311C1029.71 451.902 1018.01 461.143 1005.29 468.815C988.951 478.893 972.239 486.154 958.215 489.47C953.764 490.554 949.205 491.136 944.624 491.204Z" fill="#010101"/>
<path d="M1039.37 452.364C1045.46 452.364 1050.4 447.425 1050.4 441.332C1050.4 435.239 1045.46 430.3 1039.37 430.3C1033.27 430.3 1028.33 435.239 1028.33 441.332C1028.33 447.425 1033.27 452.364 1039.37 452.364Z" fill="#010101"/>
<path d="M1039.37 453.99C1036.86 453.99 1034.41 453.247 1032.33 451.856C1030.25 450.466 1028.63 448.489 1027.67 446.176C1026.71 443.863 1026.46 441.318 1026.95 438.863C1027.44 436.407 1028.64 434.152 1030.41 432.382C1032.19 430.611 1034.44 429.406 1036.9 428.918C1039.35 428.429 1041.9 428.68 1044.21 429.638C1046.52 430.596 1048.5 432.218 1049.89 434.3C1051.28 436.381 1052.02 438.829 1052.02 441.332C1052.02 444.687 1050.68 447.903 1048.31 450.276C1045.94 452.649 1042.72 453.984 1039.37 453.99ZM1039.37 431.925C1037.5 431.925 1035.69 432.477 1034.14 433.511C1032.59 434.544 1031.39 436.013 1030.67 437.732C1029.96 439.451 1029.78 441.342 1030.14 443.167C1030.5 444.992 1031.4 446.668 1032.71 447.983C1034.03 449.299 1035.71 450.195 1037.53 450.558C1039.36 450.921 1041.25 450.734 1042.97 450.023C1044.68 449.311 1046.15 448.105 1047.19 446.558C1048.22 445.011 1048.77 443.192 1048.77 441.332C1048.77 438.837 1047.78 436.445 1046.02 434.681C1044.25 432.916 1041.86 431.925 1039.37 431.925Z" fill="#010101"/>
<path d="M499.233 144.354C503.183 144.354 506.385 141.152 506.385 137.202C506.385 133.252 503.183 130.049 499.233 130.049C495.282 130.049 492.08 133.252 492.08 137.202C492.08 141.152 495.282 144.354 499.233 144.354Z" fill="#FF577F"/>
<path d="M204.685 198.278C211.676 198.278 217.344 192.611 217.344 185.621C217.344 178.63 211.676 172.963 204.685 172.963C197.694 172.963 192.027 178.63 192.027 185.621C192.027 192.611 197.694 198.278 204.685 198.278Z" fill="#FF577F"/>
<path d="M733.244 457.176C741.144 457.176 747.549 450.772 747.549 442.871C747.549 434.971 741.144 428.566 733.244 428.566C725.343 428.566 718.938 434.971 718.938 442.871C718.938 450.772 725.343 457.176 733.244 457.176Z" fill="#FF577F"/>
<path d="M771.675 77.1208C776.116 77.1208 779.716 73.5206 779.716 69.0797C779.716 64.6387 776.116 61.0386 771.675 61.0386C767.233 61.0386 763.633 64.6387 763.633 69.0797C763.633 73.5206 767.233 77.1208 771.675 77.1208Z" fill="#0D9CE8"/>
<path d="M1083.17 191.668C1082.95 191.477 1082.69 191.332 1082.41 191.244C1082.13 191.155 1081.84 191.124 1081.55 191.152C1081.25 191.181 1080.97 191.268 1080.71 191.409C1080.46 191.55 1080.23 191.741 1080.05 191.972L1060.41 215.813L1057.16 190.845V190.736C1057.06 190.057 1056.76 189.421 1056.3 188.912C1055.84 188.402 1055.24 188.04 1054.57 187.873C1053.91 187.706 1053.2 187.741 1052.56 187.973C1051.91 188.204 1051.35 188.623 1050.94 189.176L1020.07 231.766C1019.8 232.191 1019.69 232.704 1019.78 233.204C1019.86 233.703 1020.13 234.152 1020.54 234.461C1020.94 234.77 1021.44 234.916 1021.95 234.871C1022.45 234.825 1022.92 234.591 1023.26 234.215L1051.29 199.818L1054.56 224.786V224.916C1054.65 225.603 1054.94 226.246 1055.4 226.763C1055.86 227.28 1056.47 227.646 1057.14 227.815C1057.81 227.983 1058.52 227.946 1059.17 227.707C1059.82 227.468 1060.38 227.04 1060.78 226.477L1083.58 194.703C1083.93 194.246 1084.08 193.669 1084 193.1C1083.93 192.532 1083.63 192.016 1083.17 191.668Z" fill="#F8D637"/>
<path d="M993.964 74.7238L983.941 64.7007L973.917 74.7238L983.941 84.747L993.964 74.7238Z" fill="#FF577F"/>
<path d="M442.27 151.799L425.15 168.918L442.27 186.038L459.39 168.918L442.27 151.799Z" fill="#F8D637"/>
<path d="M146.613 239.912L134.642 251.881L146.613 263.851L158.583 251.881L146.613 239.912Z" fill="#0D9CE8"/>
<path d="M796.871 315.697L784.38 303.206L771.888 315.697L784.38 328.187L796.871 315.697Z" fill="#F8D637"/>
</svg>
