<?xml version="1.0" encoding="utf-8"?>
<!-- Generator: Adobe Illustrator 24.0.2, SVG Export Plug-In . SVG Version: 6.00 Build 0)  -->
<svg version="1.1" id="Layer_1" xmlns="http://www.w3.org/2000/svg" xmlns:xlink="http://www.w3.org/1999/xlink" x="0px" y="0px"
	 viewBox="0 0 1284 539" style="enable-background:new 0 0 1284 539;" xml:space="preserve">
<style type="text/css">
	.st0{fill:#FAF7F2;stroke:#000000;stroke-width:3;stroke-linecap:round;}
	.st1{fill:none;stroke:#000000;stroke-width:3;stroke-linecap:round;}
	.st2{fill:#FF577F;stroke:#000000;stroke-width:3;stroke-linecap:round;}
	.st3{fill:#FAF7F2;stroke:#000000;stroke-width:3;}
	.st4{fill:#FC5981;stroke:#000000;stroke-width:3;}
	.st5{fill:#F8D637;stroke:#000000;stroke-width:3;}
	.st6{fill:#0D9CE8;stroke:#000000;stroke-width:3;}
	.st7{fill:#FAF7F2;}
	.st8{fill:#010101;}
	.st9{fill:#F8D637;}
	.st10{fill:#0D9CE8;}
	.st11{fill:#FF577F;}
	.st12{fill:#FF3972;}
	.st13{fill:#FF6E98;}
	.st14{fill:#FF94B8;}
	.st15{fill:#F9A428;}
	.st16{fill:#F7BC39;}
	.st17{fill:#FFE266;}
	.st18{fill:#FFEA94;}
	.st19{fill:#1790C6;}
	.st20{fill:#25B3F2;}
	.st21{fill:#49CEFC;}
	.st22{fill:#6CE0FF;}
	.st23{fill:#2A2A2F;fill-opacity:0.33;}
	.st24{fill:#FFFFFF;stroke:#000000;stroke-width:3;stroke-linecap:round;}
	.st25{fill:#FF577F;stroke:#000000;stroke-width:3;}
	.st26{fill:#0D9CE8;stroke:#000000;stroke-width:3;stroke-linecap:round;}
	.st27{fill:#F7D549;stroke:#000000;stroke-width:3;}
	.st28{fill:#0D9CE8;stroke:#000000;stroke-width:4;}
</style>
<path class="st0" d="M82.7,318c-10.5-0.5-14,12-23.5,12c-7,0-7.5,6-4.5,6s12,0,16,2c3.2,1.6,9.2,4.2,12,4c-1.3,2.8-6.1,12.2-14.5,33
	c-8.4,20.8,3.5,38.3,10.5,44.5l8.5-21l-4.5-17c0-4.7,2-17.7,10-32.5C102.7,330.5,93.2,318.5,82.7,318z"/>
<path class="st1" d="M77.2,329c0.5,1.2,1,3.5,5,3.5s5-3.5,5-3.5"/>
<path class="st2" d="M179.7,384.1c-24-13.7-74.2-5.7-96.3,0v13.5l-6.7,18.4c3.5,5.1,19.1,13.7,54,7.3
	C165.5,416.9,177.9,394.5,179.7,384.1z"/>
<path class="st2" d="M127.5,363.7c-27.4-1.9-41.3,11.3-44.7,18.2c0,30.3,35.5,25.4,56.4,22.4c16.7-2.4,27.4-20.8,30.6-29.7
	C167.1,371.8,154.9,365.6,127.5,363.7z"/>
<rect x="2" y="481" class="st3" width="262" height="56"/>
<circle class="st4" cx="30" cy="509" r="7.5"/>
<circle class="st5" cx="55" cy="509" r="7.5"/>
<path class="st1" d="M77.5,509H191"/>
<rect x="2" y="425" class="st3" width="262" height="56"/>
<circle class="st4" cx="30" cy="453" r="7.5"/>
<circle class="st6" cx="55" cy="453" r="7.5"/>
<path class="st1" d="M77.5,453H191"/>
<path class="st7" d="M790.1,149.8l13.6,16.8l18.1,22.2l-13.4,3.6l-13.7,3.7l-13.4,3.6l4.9-27.9L790.1,149.8z"/>
<path class="st8" d="M781.3,201.2c-0.2,0-0.5-0.1-0.7-0.2c-0.2-0.1-0.4-0.2-0.6-0.4c-0.2-0.2-0.3-0.4-0.3-0.6
	c-0.1-0.2-0.1-0.5,0-0.7l8.7-49.9c0.1-0.3,0.2-0.6,0.4-0.8c0.2-0.2,0.5-0.4,0.8-0.5c0.3-0.1,0.6-0.1,0.9,0c0.3,0.1,0.6,0.3,0.8,0.5
	l31.7,39c0.2,0.2,0.3,0.5,0.3,0.7c0.1,0.3,0,0.5-0.1,0.8c-0.1,0.3-0.2,0.5-0.4,0.7c-0.2,0.2-0.4,0.3-0.7,0.4l-40.4,10.8L781.3,201.2
	z M791.1,153.5l-7.7,43.9l35.6-9.5L791.1,153.5z"/>
<path class="st9" d="M913,92.7l28.2,51.8c0,0-12.5,20-15.7,53.8h-29.9l-6.6-51.6L913,92.7z"/>
<path class="st8" d="M925.5,199.9h-29.8c-0.4,0-0.8-0.1-1.1-0.4c-0.3-0.3-0.5-0.6-0.5-1l-6.6-51.6c0-0.3,0-0.6,0.1-0.9l24-53.9
	c0.1-0.3,0.3-0.5,0.6-0.7c0.3-0.2,0.5-0.3,0.8-0.3c0.3,0,0.6,0.1,0.9,0.2c0.3,0.1,0.5,0.4,0.6,0.6l28.2,51.8
	c0.1,0.2,0.2,0.5,0.2,0.8c0,0.3-0.1,0.6-0.2,0.8c-0.1,0.2-12.3,20.1-15.4,53c0,0.4-0.2,0.8-0.6,1.1
	C926.3,199.8,925.9,199.9,925.5,199.9z M897.1,196.7H924c3.1-29.5,13-48.1,15.3-52.1l-26.1-48.1L890.7,147L897.1,196.7z"/>
<path class="st10" d="M930.7,194.7h-41.2v112.7h41.2V194.7z"/>
<path class="st8" d="M930.7,309.1h-41.2c-0.4,0-0.8-0.2-1.2-0.5c-0.3-0.3-0.5-0.7-0.5-1.1V194.8c0-0.4,0.2-0.8,0.5-1.2
	c0.3-0.3,0.7-0.5,1.2-0.5h41.2c0.4,0,0.8,0.2,1.2,0.5c0.3,0.3,0.5,0.7,0.5,1.2v112.7c0,0.4-0.2,0.8-0.5,1.1
	C931.6,308.9,931.1,309.1,930.7,309.1z M891.1,305.8h38V196.4h-38V305.8z"/>
<path class="st10" d="M939.8,176h-56.9v22.2h56.9V176z"/>
<path class="st8" d="M939.8,199.9h-56.9c-0.4,0-0.8-0.2-1.1-0.5c-0.3-0.3-0.5-0.7-0.5-1.1V176c0-0.4,0.2-0.8,0.5-1.2
	c0.3-0.3,0.7-0.5,1.1-0.5h56.9c0.4,0,0.8,0.2,1.1,0.5c0.3,0.3,0.5,0.7,0.5,1.2v22.2c0,0.2,0,0.4-0.1,0.6c-0.1,0.2-0.2,0.4-0.4,0.5
	c-0.2,0.2-0.3,0.3-0.5,0.4C940.2,199.9,940,199.9,939.8,199.9z M884.6,196.7h53.6v-19h-53.6V196.7z"/>
<path class="st7" d="M898.8,9.6h-65.8v331.1h65.8V9.6z"/>
<path class="st8" d="M898.8,342.2h-65.7c-0.4,0-0.8-0.2-1.2-0.5c-0.3-0.3-0.5-0.7-0.5-1.1V9.6c0-0.4,0.2-0.8,0.5-1.1
	c0.3-0.3,0.7-0.5,1.2-0.5h65.7c0.4,0,0.8,0.2,1.1,0.5c0.3,0.3,0.5,0.7,0.5,1.1v330.9c0,0.2,0,0.4-0.1,0.6c-0.1,0.2-0.2,0.4-0.3,0.6
	c-0.2,0.2-0.3,0.3-0.5,0.4S899,342.2,898.8,342.2z M834.6,339h62.5V11.2h-62.5L834.6,339z"/>
<path class="st8" d="M913,141.1c-0.4,0-0.8-0.2-1.2-0.5c-0.3-0.3-0.5-0.7-0.5-1.1V92.8c0-0.4,0.2-0.8,0.5-1.1
	c0.3-0.3,0.7-0.5,1.2-0.5c0.4,0,0.8,0.2,1.1,0.5c0.3,0.3,0.5,0.7,0.5,1.1v46.7c0,0.2,0,0.4-0.1,0.6c-0.1,0.2-0.2,0.4-0.3,0.5
	c-0.2,0.2-0.3,0.3-0.5,0.4C913.5,141.1,913.3,141.1,913,141.1z"/>
<path class="st7" d="M913,158c6.2,0,11.1-5,11.1-11.1c0-6.2-5-11.1-11.1-11.1c-6.2,0-11.1,5-11.1,11.1C901.9,153,906.9,158,913,158z
	"/>
<path class="st8" d="M913,159.7c-2.5,0-5-0.7-7.1-2.2c-2.1-1.4-3.7-3.4-4.7-5.7c-1-2.3-1.2-4.9-0.7-7.4c0.5-2.5,1.7-4.8,3.5-6.5
	c1.8-1.8,4.1-3,6.5-3.5c2.5-0.5,5-0.2,7.4,0.7c2.3,1,4.3,2.6,5.7,4.7c1.4,2.1,2.2,4.6,2.2,7.1c0,3.4-1.4,6.6-3.7,9
	C919.7,158.3,916.4,159.7,913,159.7z M913,137.4c-1.9,0-3.7,0.6-5.3,1.6c-1.6,1-2.8,2.5-3.5,4.3c-0.7,1.7-0.9,3.7-0.5,5.5
	c0.4,1.8,1.3,3.5,2.6,4.9c1.3,1.3,3,2.2,4.9,2.6s3.8,0.2,5.5-0.5c1.7-0.7,3.2-1.9,4.3-3.5c1-1.6,1.6-3.4,1.6-5.3
	c0-2.5-1-4.9-2.8-6.7C918,138.4,915.6,137.4,913,137.4z"/>
<path class="st8" d="M849.9,36.2h-16.8c-0.4,0-0.8-0.2-1.2-0.5c-0.3-0.3-0.5-0.7-0.5-1.1c0-0.4,0.2-0.8,0.5-1.1
	c0.3-0.3,0.7-0.5,1.2-0.5h16.8c0.4,0,0.8,0.2,1.1,0.5c0.3,0.3,0.5,0.7,0.5,1.1c0,0.4-0.2,0.8-0.5,1.1
	C850.7,36.1,850.3,36.2,849.9,36.2z"/>
<path class="st8" d="M849.9,53.5h-16.8c-0.4,0-0.8-0.2-1.2-0.5c-0.3-0.3-0.5-0.7-0.5-1.1c0-0.4,0.2-0.8,0.5-1.1
	c0.3-0.3,0.7-0.5,1.2-0.5h16.8c0.4,0,0.8,0.2,1.1,0.5c0.3,0.3,0.5,0.7,0.5,1.1c0,0.4-0.2,0.8-0.5,1.1
	C850.7,53.3,850.3,53.5,849.9,53.5z"/>
<path class="st8" d="M849.9,70.7h-16.8c-0.4,0-0.8-0.2-1.2-0.5c-0.3-0.3-0.5-0.7-0.5-1.1c0-0.4,0.2-0.8,0.5-1.1
	c0.3-0.3,0.7-0.5,1.2-0.5h16.8c0.4,0,0.8,0.2,1.1,0.5c0.3,0.3,0.5,0.7,0.5,1.1c0,0.4-0.2,0.8-0.5,1.1
	C850.7,70.5,850.3,70.7,849.9,70.7z"/>
<path class="st8" d="M859.8,87.9h-26.7c-0.4,0-0.8-0.2-1.2-0.5c-0.3-0.3-0.5-0.7-0.5-1.1c0-0.4,0.2-0.8,0.5-1.1
	c0.3-0.3,0.7-0.5,1.2-0.5h26.7c0.4,0,0.8,0.2,1.2,0.5c0.3,0.3,0.5,0.7,0.5,1.1c0,0.4-0.2,0.8-0.5,1.1
	C860.6,87.8,860.2,87.9,859.8,87.9z"/>
<path class="st8" d="M849.9,105.2h-16.8c-0.4,0-0.8-0.2-1.2-0.5c-0.3-0.3-0.5-0.7-0.5-1.1c0-0.4,0.2-0.8,0.5-1.2
	c0.3-0.3,0.7-0.5,1.2-0.5h16.8c0.4,0,0.8,0.2,1.1,0.5c0.3,0.3,0.5,0.7,0.5,1.2c0,0.4-0.2,0.8-0.5,1.1
	C850.7,105,850.3,105.2,849.9,105.2z"/>
<path class="st8" d="M849.9,122.4h-16.8c-0.4,0-0.8-0.2-1.2-0.5c-0.3-0.3-0.5-0.7-0.5-1.1c0-0.4,0.2-0.8,0.5-1.2
	c0.3-0.3,0.7-0.5,1.2-0.5h16.8c0.4,0,0.8,0.2,1.1,0.5c0.3,0.3,0.5,0.7,0.5,1.2c0,0.4-0.2,0.8-0.5,1.1
	C850.7,122.2,850.3,122.4,849.9,122.4z"/>
<path class="st8" d="M849.9,139.6h-16.8c-0.4,0-0.8-0.2-1.2-0.5c-0.3-0.3-0.5-0.7-0.5-1.1s0.2-0.8,0.5-1.1c0.3-0.3,0.7-0.5,1.2-0.5
	h16.8c0.4,0,0.8,0.2,1.1,0.5c0.3,0.3,0.5,0.7,0.5,1.1s-0.2,0.8-0.5,1.1C850.7,139.5,850.3,139.6,849.9,139.6z"/>
<path class="st8" d="M859.8,156.9h-26.7c-0.4,0-0.8-0.2-1.2-0.5c-0.3-0.3-0.5-0.7-0.5-1.2c0-0.4,0.2-0.8,0.5-1.1
	c0.3-0.3,0.7-0.5,1.2-0.5h26.7c0.4,0,0.8,0.2,1.2,0.5c0.3,0.3,0.5,0.7,0.5,1.1c0,0.4-0.2,0.8-0.5,1.2
	C860.6,156.7,860.2,156.9,859.8,156.9z"/>
<path class="st8" d="M849.9,174.1h-16.8c-0.4,0-0.8-0.2-1.2-0.5c-0.3-0.3-0.5-0.7-0.5-1.1c0-0.4,0.2-0.8,0.5-1.1
	c0.3-0.3,0.7-0.5,1.2-0.5h16.8c0.4,0,0.8,0.2,1.1,0.5c0.3,0.3,0.5,0.7,0.5,1.1c0,0.4-0.2,0.8-0.5,1.1
	C850.7,173.9,850.3,174.1,849.9,174.1z"/>
<path class="st8" d="M849.9,191.3h-16.8c-0.4,0-0.8-0.2-1.2-0.5c-0.3-0.3-0.5-0.7-0.5-1.2c0-0.4,0.2-0.8,0.5-1.1
	c0.3-0.3,0.7-0.5,1.2-0.5h16.8c0.4,0,0.8,0.2,1.1,0.5c0.3,0.3,0.5,0.7,0.5,1.1c0,0.4-0.2,0.8-0.5,1.2
	C850.7,191.1,850.3,191.3,849.9,191.3z"/>
<path class="st8" d="M849.9,208.5h-16.8c-0.4,0-0.8-0.2-1.2-0.5c-0.3-0.3-0.5-0.7-0.5-1.1s0.2-0.8,0.5-1.1c0.3-0.3,0.7-0.5,1.2-0.5
	h16.8c0.4,0,0.8,0.2,1.1,0.5c0.3,0.3,0.5,0.7,0.5,1.1s-0.2,0.8-0.5,1.1C850.7,208.4,850.3,208.5,849.9,208.5z"/>
<path class="st8" d="M859.8,225.8h-26.7c-0.4,0-0.8-0.2-1.2-0.5c-0.3-0.3-0.5-0.7-0.5-1.2s0.2-0.8,0.5-1.1c0.3-0.3,0.7-0.5,1.2-0.5
	h26.7c0.4,0,0.8,0.2,1.2,0.5c0.3,0.3,0.5,0.7,0.5,1.1s-0.2,0.8-0.5,1.2C860.6,225.6,860.2,225.8,859.8,225.8z"/>
<path class="st8" d="M849.9,243h-16.8c-0.4,0-0.8-0.2-1.2-0.5c-0.3-0.3-0.5-0.7-0.5-1.1s0.2-0.8,0.5-1.1c0.3-0.3,0.7-0.5,1.2-0.5
	h16.8c0.4,0,0.8,0.2,1.1,0.5c0.3,0.3,0.5,0.7,0.5,1.1s-0.2,0.8-0.5,1.1C850.7,242.8,850.3,243,849.9,243z"/>
<path class="st8" d="M849.9,260.3h-16.8c-0.4,0-0.8-0.2-1.2-0.5c-0.3-0.3-0.5-0.7-0.5-1.1s0.2-0.8,0.5-1.1c0.3-0.3,0.7-0.5,1.2-0.5
	h16.8c0.4,0,0.8,0.2,1.1,0.5c0.3,0.3,0.5,0.7,0.5,1.1s-0.2,0.8-0.5,1.1C850.7,260.2,850.3,260.3,849.9,260.3z"/>
<path class="st8" d="M849.9,277.5h-16.8c-0.4,0-0.8-0.2-1.2-0.5c-0.3-0.3-0.5-0.7-0.5-1.1s0.2-0.8,0.5-1.2c0.3-0.3,0.7-0.5,1.2-0.5
	h16.8c0.4,0,0.8,0.2,1.1,0.5c0.3,0.3,0.5,0.7,0.5,1.2s-0.2,0.8-0.5,1.1C850.7,277.3,850.3,277.5,849.9,277.5z"/>
<path class="st9" d="M821.8,188.8L821.8,188.8l43.4,162.8l-13.4,3.6l-13.7,3.7l-13.4,3.6l-43.4-162.7l0-0.1l13.4-3.6l13.7-3.7
	L821.8,188.8z"/>
<path class="st8" d="M824.8,364c-0.4,0-0.7-0.1-1-0.3c-0.3-0.2-0.5-0.5-0.6-0.9l-43.4-162.7c-0.1-0.4-0.1-0.9,0.1-1.3
	c0.2-0.4,0.6-0.7,1-0.9l40.4-10.8c0.2-0.1,0.4-0.1,0.6,0c0.2,0,0.4,0.1,0.6,0.2c0.2,0.1,0.3,0.3,0.5,0.4c0.1,0.2,0.2,0.4,0.3,0.6
	L866.8,351c0.1,0.2,0.1,0.4,0,0.6c0,0.2-0.1,0.4-0.2,0.6c-0.1,0.2-0.2,0.3-0.4,0.5c-0.2,0.1-0.4,0.2-0.6,0.3l-40.5,10.8L824.8,364z
	 M783.3,200.8l42.6,159.7l37.3-10l-42.6-159.7L783.3,200.8z"/>
<path class="st11" d="M838.2,358.9l13.7-3.7l-43.4-162.8l-13.7,3.7L838.2,358.9z"/>
<path class="st8" d="M838.1,360.5c-0.4,0-0.7-0.1-1-0.3c-0.3-0.2-0.5-0.5-0.6-0.9l-43.4-162.8c-0.1-0.2-0.1-0.4,0-0.6
	c0-0.2,0.1-0.4,0.2-0.6c0.1-0.2,0.2-0.3,0.4-0.5c0.2-0.1,0.4-0.2,0.6-0.3l13.7-3.7c0.2-0.1,0.4-0.1,0.6,0c0.2,0,0.4,0.1,0.6,0.2
	c0.2,0.1,0.3,0.2,0.5,0.4c0.1,0.2,0.2,0.4,0.3,0.6l43.4,162.8c0.1,0.2,0.1,0.4,0,0.6s-0.1,0.4-0.2,0.6c-0.1,0.2-0.2,0.3-0.4,0.5
	c-0.2,0.1-0.4,0.2-0.6,0.3l-13.7,3.7L838.1,360.5z M796.6,197.2l42.6,159.7l10.6-2.8l-42.6-159.7L796.6,197.2z"/>
<path class="st8" d="M790.1,149.8l13.6,16.8c-4.9,3.9-11.2,5.7-17.5,5.1L790.1,149.8z"/>
<path class="st7" d="M966.8,310.6H801.7v225.8h165.1V310.6z"/>
<path class="st8" d="M966.8,538H801.7c-0.4,0-0.8-0.2-1.2-0.5c-0.3-0.3-0.5-0.7-0.5-1.1V310.5c0-0.4,0.2-0.8,0.5-1.1
	s0.7-0.5,1.2-0.5h165.1c0.4,0,0.8,0.2,1.1,0.5s0.5,0.7,0.5,1.1v225.8c0,0.4-0.2,0.8-0.5,1.1C967.7,537.8,967.2,538,966.8,538z
	 M803.4,534.7h161.8V312.2H803.4V534.7z"/>
<path class="st7" d="M977.4,294.3H791.1v32.6h186.3V294.3z"/>
<path class="st8" d="M977.4,328.5H791.1c-0.4,0-0.8-0.2-1.1-0.5c-0.3-0.3-0.5-0.7-0.5-1.1v-32.5c0-0.4,0.2-0.8,0.5-1.1
	c0.3-0.3,0.7-0.5,1.1-0.5h186.3c0.4,0,0.8,0.2,1.1,0.5s0.5,0.7,0.5,1.1v32.5c0,0.4-0.2,0.8-0.5,1.1S977.8,328.5,977.4,328.5z
	 M792.8,325.2h183v-29.3h-183V325.2z"/>
<path class="st7" d="M1030.3,266.2v270.2h252.2L1030.3,266.2z M1086.8,404.5l69.5,74.5h-69.5V404.5z"/>
<path class="st8" d="M1282.4,538h-252.2c-0.4,0-0.8-0.2-1.2-0.5c-0.3-0.3-0.5-0.7-0.5-1.1V266.2c0-0.3,0.1-0.6,0.3-0.9
	c0.2-0.3,0.4-0.5,0.8-0.6c0.3-0.1,0.6-0.1,1-0.1c0.3,0.1,0.6,0.2,0.8,0.5l252.1,270.2c0.2,0.2,0.4,0.5,0.4,0.8
	c0.1,0.3,0,0.6-0.1,0.9c-0.1,0.3-0.3,0.5-0.6,0.7C1283,537.9,1282.7,538,1282.4,538L1282.4,538z M1032,534.7h246.7l-246.7-264.4
	L1032,534.7z M1156.4,480.6h-69.6c-0.4,0-0.8-0.2-1.1-0.5c-0.3-0.3-0.5-0.7-0.5-1.1v-74.5c0-0.3,0.1-0.6,0.3-0.9
	c0.2-0.3,0.5-0.5,0.8-0.6c0.3-0.1,0.6-0.1,1-0.1c0.3,0.1,0.6,0.2,0.8,0.5l69.5,74.5c0.2,0.2,0.4,0.5,0.4,0.8c0.1,0.3,0,0.6-0.1,0.9
	c-0.1,0.3-0.3,0.5-0.6,0.7C1156.9,480.5,1156.6,480.6,1156.4,480.6L1156.4,480.6z M1088.5,477.3h64.1l-64.2-68.7L1088.5,477.3z"/>
<path class="st7" d="M1056.1,411.6H940.3v124.8h115.8V411.6z"/>
<path class="st8" d="M1056.1,538H940.3c-0.4,0-0.8-0.2-1.1-0.5s-0.5-0.7-0.5-1.1V411.6c0-0.4,0.2-0.8,0.5-1.1
	c0.3-0.3,0.7-0.5,1.1-0.5h115.8c0.4,0,0.8,0.2,1.2,0.5c0.3,0.3,0.5,0.7,0.5,1.1v124.8c0,0.4-0.2,0.8-0.5,1.1
	C1057,537.8,1056.6,538,1056.1,538z M941.9,534.7h112.6V413.2H941.9V534.7z"/>
<path class="st10" d="M1056.1,421.3l-14.9,44.9c-0.7,2-0.8,4-0.5,6.1c0.3,2,1.1,4,2.3,5.7c1.2,1.7,2.8,3,4.6,4
	c1.8,0.9,3.9,1.4,6,1.4h5.1c2.1,0,4.1-0.5,6-1.4c1.8-0.9,3.4-2.3,4.6-4c1.2-1.7,2-3.6,2.3-5.7c0.3-2,0.1-4.1-0.5-6.1L1056.1,421.3z"
	/>
<path class="st8" d="M1058.7,485h-5.1c-2.3,0-4.6-0.5-6.7-1.6c-2.1-1.1-3.9-2.6-5.2-4.5c-1.4-1.9-2.2-4.1-2.6-6.4
	c-0.3-2.3-0.1-4.6,0.6-6.8l14.9-45.1c0.1-0.3,0.3-0.6,0.6-0.8c0.3-0.2,0.6-0.3,0.9-0.3s0.7,0.1,0.9,0.3c0.3,0.2,0.5,0.5,0.6,0.8
	l14.9,45c0.7,2.2,0.9,4.5,0.6,6.8c-0.4,2.3-1.2,4.5-2.6,6.4c-1.4,1.9-3.1,3.4-5.2,4.5c-2.1,1.1-4.3,1.6-6.7,1.6L1058.7,485z
	 M1056.1,426.5l-13.4,40.3c-0.6,1.7-0.7,3.5-0.4,5.3c0.3,1.8,1,3.5,2,4.9c1.1,1.5,2.5,2.7,4.1,3.5c1.6,0.8,3.4,1.2,5.2,1.2h5.1
	c1.8,0,3.6-0.4,5.2-1.2c1.6-0.8,3-2,4.1-3.5c1.1-1.5,1.8-3.2,2-4.9c0.3-1.8,0.1-3.6-0.4-5.3L1056.1,426.5z"/>
<path class="st7" d="M456.7,336.5l67.5,63.8l233.6-247.2l-67.5-63.8L456.7,336.5z"/>
<path class="st8" d="M524.2,401.9c-0.4,0-0.8-0.2-1.1-0.5l-67.5-63.8c-0.3-0.3-0.5-0.7-0.5-1.1s0.2-0.8,0.5-1.1L689.2,88.2
	c0.3-0.3,0.7-0.5,1.1-0.5c0.2,0,0.4,0,0.6,0.1c0.2,0.1,0.4,0.2,0.5,0.3l67.5,63.8c0.3,0.3,0.5,0.7,0.5,1.1s-0.2,0.8-0.5,1.1
	L525.3,401.3C525,401.7,524.6,401.8,524.2,401.9L524.2,401.9z M459,336.4l65.2,61.6l231.3-244.8l-65.2-61.6L459,336.4z"/>
<path class="st12" d="M648.9,147.9l52.8,49.9l32.8-34.7l-52.8-49.9L648.9,147.9z"/>
<path class="st8" d="M701.7,199.4c-0.4,0-0.8-0.2-1.1-0.5l-52.8-49.8c-0.3-0.3-0.5-0.7-0.5-1.1s0.2-0.8,0.5-1.1l32.8-34.7
	c0.3-0.3,0.7-0.5,1.1-0.5c0.2,0,0.4,0,0.6,0.1c0.2,0.1,0.4,0.2,0.5,0.3l52.8,49.8c0.3,0.3,0.5,0.7,0.5,1.1s-0.2,0.8-0.5,1.1
	l-32.8,34.7C702.5,199.2,702.1,199.4,701.7,199.4L701.7,199.4z M651.2,147.8l50.4,47.7l30.6-32.3l-50.4-47.7L651.2,147.8z"/>
<path class="st11" d="M616.1,182.6l52.8,49.9l32.8-34.7l-52.8-49.9L616.1,182.6z"/>
<path class="st8" d="M668.9,234.1c-0.4,0-0.8-0.2-1.1-0.5L615,183.8c-0.3-0.3-0.5-0.7-0.5-1.1c0-0.4,0.2-0.8,0.5-1.1l32.8-34.7
	c0.3-0.3,0.7-0.5,1.1-0.5c0.4,0,0.8,0.2,1.1,0.5l52.8,49.9c0.3,0.3,0.5,0.7,0.5,1.1s-0.2,0.8-0.5,1.1L670,233.6
	c-0.2,0.1-0.3,0.3-0.5,0.3C669.3,234.1,669.1,234.1,668.9,234.1z M618.4,182.5l50.4,47.7l30.6-32.4l-50.4-47.7L618.4,182.5z"/>
<path class="st13" d="M583.3,217.3l52.8,49.9l32.8-34.7l-52.8-49.9L583.3,217.3z"/>
<path class="st8" d="M636.1,268.8c-0.4,0-0.8-0.2-1.1-0.5l-52.8-49.9c-0.3-0.3-0.5-0.7-0.5-1.1c0-0.4,0.2-0.8,0.5-1.1l32.8-34.7
	c0.3-0.3,0.7-0.5,1.1-0.5c0.2,0,0.4,0,0.6,0.1c0.2,0.1,0.4,0.2,0.5,0.3l52.8,49.8c0.3,0.3,0.5,0.7,0.5,1.1s-0.2,0.8-0.5,1.1
	l-32.8,34.7C636.9,268.6,636.5,268.8,636.1,268.8L636.1,268.8z M585.6,217.2l50.4,47.7l30.6-32.3l-50.4-47.7L585.6,217.2z"/>
<path class="st14" d="M550.5,252l52.8,49.9l32.8-34.7l-52.8-49.9L550.5,252z"/>
<path class="st8" d="M603.3,303.5c-0.4,0-0.8-0.2-1.1-0.5l-52.8-49.9c-0.3-0.3-0.5-0.7-0.5-1.1c0-0.4,0.2-0.8,0.5-1.1l32.8-34.7
	c0.3-0.3,0.7-0.5,1.1-0.5c0.4,0,0.8,0.2,1.1,0.5l52.8,49.8c0.3,0.3,0.5,0.7,0.5,1.1s-0.2,0.8-0.5,1.1L604.5,303
	c-0.2,0.1-0.3,0.3-0.5,0.3C603.7,303.5,603.5,303.5,603.3,303.5z M552.8,251.9l50.4,47.7l30.6-32.3l-50.4-47.7L552.8,251.9z"/>
<path class="st7" d="M462.5,336.3l80.8,45.8L711.2,86.4l-80.8-45.8L462.5,336.3z"/>
<path class="st8" d="M543.3,383.9c-0.3,0-0.6-0.1-0.8-0.2l-80.8-45.8c-0.4-0.2-0.6-0.6-0.7-1c-0.1-0.4-0.1-0.8,0.1-1.2L628.9,39.9
	c0.2-0.4,0.6-0.6,1-0.7c0.4-0.1,0.8-0.1,1.2,0.1l80.8,45.8c0.4,0.2,0.6,0.6,0.7,1c0.1,0.4,0.1,0.8-0.1,1.2L544.7,382.9
	c-0.1,0.3-0.3,0.5-0.6,0.7C543.9,383.8,543.6,383.9,543.3,383.9z M464.7,335.8l78,44.2L708.9,86.9l-78-44.2L464.7,335.8z"/>
<path class="st15" d="M604.1,107.3l63.2,35.8l23.6-41.5l-63.2-35.8L604.1,107.3z"/>
<path class="st8" d="M667.2,144.8c-0.3,0-0.6-0.1-0.8-0.2l-63.2-35.8c-0.4-0.2-0.6-0.6-0.7-1c-0.1-0.4-0.1-0.8,0.1-1.2L626.2,65
	c0.2-0.4,0.6-0.6,1-0.7s0.8-0.1,1.2,0.1l63.2,35.8c0.4,0.2,0.6,0.6,0.7,1c0.1,0.4,0.1,0.8-0.1,1.2L668.6,144c-0.2,0.4-0.6,0.6-1,0.8
	L667.2,144.8z M606.3,106.7l60.3,34.2l21.9-38.7L628.2,68L606.3,106.7z"/>
<path class="st16" d="M580.6,148.8l63.2,35.8l23.6-41.5l-63.2-35.8L580.6,148.8z"/>
<path class="st8" d="M643.7,186.3c-0.3,0-0.6-0.1-0.8-0.2l-63.2-35.8c-0.4-0.2-0.6-0.6-0.7-1c-0.1-0.4-0.1-0.8,0.1-1.2l23.5-41.6
	c0.2-0.4,0.6-0.6,1-0.7s0.8-0.1,1.2,0.1l63.2,35.8c0.4,0.2,0.6,0.6,0.7,1c0.1,0.4,0.1,0.8-0.1,1.2l-23.4,41.6
	c-0.2,0.4-0.6,0.6-1,0.8L643.7,186.3z M582.8,148.2l60.3,34.2l22-38.7l-60.3-34.2L582.8,148.2z"/>
<path class="st9" d="M557,190.3l63.2,35.8l23.6-41.5l-63.2-35.8L557,190.3z"/>
<path class="st8" d="M620.1,227.8c-0.3,0-0.6-0.1-0.8-0.2l-63.2-35.8c-0.4-0.2-0.6-0.6-0.7-1c-0.1-0.4-0.1-0.8,0.1-1.2l23.6-41.5
	c0.2-0.4,0.6-0.6,1-0.7c0.4-0.1,0.8-0.1,1.2,0.1l63.2,35.8c0.4,0.2,0.6,0.6,0.7,1c0.1,0.4,0.1,0.8-0.1,1.2L621.5,227
	c-0.2,0.4-0.6,0.6-1,0.8L620.1,227.8z M559.2,189.8l60.3,34.2l22-38.7l-60.3-34.2L559.2,189.8z"/>
<path class="st17" d="M533.5,231.8l63.2,35.8l23.6-41.5L557,190.3L533.5,231.8z"/>
<path class="st8" d="M596.6,269.3c-0.3,0-0.6-0.1-0.8-0.2l-63.2-35.8c-0.4-0.2-0.6-0.6-0.7-1c-0.1-0.4-0.1-0.8,0.1-1.2l23.6-41.5
	c0.2-0.4,0.6-0.6,1-0.7c0.4-0.1,0.8-0.1,1.2,0.1l63.2,35.8c0.4,0.2,0.6,0.6,0.7,1c0.1,0.4,0.1,0.8-0.1,1.2l-23.6,41.5
	c-0.2,0.4-0.6,0.6-1,0.8L596.6,269.3z M535.6,231.3l60.3,34.2l22-38.7l-60.3-34.2L535.6,231.3z"/>
<path class="st18" d="M509.9,273.4l63.2,35.8l23.6-41.5l-63.2-35.8L509.9,273.4z"/>
<path class="st8" d="M573,310.9c-0.3,0-0.6-0.1-0.8-0.2l-63.2-35.8c-0.4-0.2-0.6-0.6-0.7-1c-0.1-0.4-0.1-0.8,0.1-1.2l23.6-41.5
	c0.2-0.4,0.6-0.6,1-0.7c0.4-0.1,0.8-0.1,1.2,0.1l63.3,35.8c0.4,0.2,0.6,0.6,0.7,1c0.1,0.4,0.1,0.8-0.1,1.2L574.5,310
	c-0.2,0.4-0.6,0.6-1,0.8L573,310.9z M512.1,272.8l60.3,34.2l22-38.7L534,234.1L512.1,272.8z"/>
<path class="st7" d="M474.3,336.1l91.4,16.8L627,18.4L535.7,1.6L474.3,336.1z"/>
<path class="st8" d="M565.6,354.5h-0.3l-91.4-16.8c-0.4-0.1-0.8-0.3-1-0.7c-0.2-0.4-0.3-0.8-0.3-1.2L534.1,1.3
	c0.1-0.4,0.3-0.8,0.7-1c0.4-0.2,0.8-0.3,1.2-0.3l91.4,16.8c0.4,0.1,0.8,0.3,1,0.7c0.2,0.4,0.3,0.8,0.3,1.2l-61.5,334.5
	c-0.1,0.4-0.2,0.7-0.5,0.9C566.4,354.3,566,354.4,565.6,354.5z M476.1,334.8l88.2,16.2l60.9-331.2L537,3.6L476.1,334.8z"/>
<path class="st19" d="M532.8,73.3l71.4,13.1l8.6-46.9l-71.4-13.1L532.8,73.3z"/>
<path class="st8" d="M604.3,88H604l-71.5-13c-0.4-0.1-0.8-0.3-1-0.7c-0.2-0.4-0.3-0.8-0.3-1.2l8.7-46.9c0.1-0.4,0.3-0.8,0.7-1
	c0.4-0.2,0.8-0.3,1.2-0.3l71.5,13c0.4,0.1,0.8,0.3,1,0.7c0.2,0.4,0.3,0.8,0.3,1.2l-8.7,46.9c-0.1,0.4-0.3,0.7-0.6,1
	C605,87.9,604.7,88.1,604.3,88L604.3,88z M534.6,72l68.2,12.5l8-43.8l-68.2-12.5L534.6,72z"/>
<path class="st10" d="M524.2,120.3l71.4,13.1l8.6-46.9l-71.4-13.1L524.2,120.3z"/>
<path class="st8" d="M595.6,135h-0.3l-71.5-13c-0.4-0.1-0.8-0.3-1-0.7c-0.2-0.4-0.3-0.8-0.3-1.2l8.7-46.9c0.1-0.4,0.3-0.8,0.7-1
	c0.4-0.2,0.8-0.3,1.2-0.3l71.5,13c0.4,0.1,0.8,0.3,1,0.7c0.2,0.4,0.3,0.8,0.3,1.2l-8.7,46.9c-0.1,0.4-0.3,0.7-0.6,0.9
	C596.4,134.9,596,135,595.6,135z M526.1,119l68.2,12.5l8-43.8l-68.2-12.5L526.1,119z"/>
<path class="st20" d="M516.3,168.5l71.2,13.1l8.6-46.8l-71.2-13.1L516.3,168.5z"/>
<path class="st8" d="M587,181.9h-0.4l-71.5-13c-0.4-0.1-0.8-0.3-1-0.7c-0.2-0.4-0.3-0.8-0.3-1.2l8.7-46.9c0.1-0.4,0.3-0.8,0.7-1
	c0.4-0.2,0.8-0.3,1.2-0.3l71.5,13c0.4,0.1,0.8,0.3,1,0.7c0.2,0.4,0.3,0.8,0.3,1.2l-8.7,46.9c-0.1,0.4-0.3,0.7-0.6,1
	C587.7,181.8,587.3,182,587,181.9L587,181.9z M517.5,165.9l68.2,12.5l8-43.8l-68.2-12.5L517.5,165.9z"/>
<path class="st21" d="M507,214.2l71.4,13.1l8.6-46.9l-71.4-13.1L507,214.2z"/>
<path class="st8" d="M578.4,228.9h-0.3l-71.5-13c-0.4-0.1-0.8-0.3-1-0.7c-0.2-0.4-0.3-0.8-0.3-1.2l8.7-46.9c0.1-0.4,0.3-0.8,0.7-1
	c0.4-0.2,0.8-0.3,1.2-0.3l71.5,13c0.4,0.1,0.8,0.3,1,0.7c0.2,0.4,0.3,0.8,0.3,1.2l-8.7,46.9c-0.1,0.4-0.3,0.7-0.6,1
	C579.1,228.8,578.8,228.9,578.4,228.9L578.4,228.9z M508.9,212.8l68.2,12.5l8-43.8l-68.2-12.5L508.9,212.8z"/>
<path class="st22" d="M498.3,261.1l71.4,13.1l8.6-46.9L507,214.2L498.3,261.1z"/>
<path class="st8" d="M569.8,275.8h-0.3l-71.5-13c-0.4-0.1-0.8-0.3-1-0.7c-0.2-0.4-0.3-0.8-0.3-1.2l8.7-46.9c0.1-0.4,0.3-0.8,0.7-1
	c0.4-0.2,0.8-0.3,1.2-0.3l71.5,13c0.4,0.1,0.8,0.3,1,0.7c0.2,0.4,0.3,0.8,0.3,1.2l-8.7,46.9c-0.1,0.4-0.3,0.7-0.6,1
	C570.5,275.7,570.1,275.9,569.8,275.8L569.8,275.8z M500.3,259.8l68.2,12.5l8-43.8L508.3,216L500.3,259.8z"/>
<path class="st7" d="M659.7,509.1H224.8l-65.8-267.9c-0.7-3-0.8-6.2-0.1-9.3c0.7-3.1,2-5.9,3.9-8.4c1.9-2.5,4.4-4.4,7.2-5.8
	c2.8-1.4,5.9-2.1,9-2H577c3.1,0,6,1,8.4,2.9c2.4,1.9,4.1,4.5,4.8,7.5L659.7,509.1z"/>
<path class="st8" d="M659.7,510.7H224.8c-0.4,0-0.7-0.1-1-0.3c-0.3-0.2-0.5-0.5-0.6-0.9l-65.8-267.9c-0.8-3.3-0.9-6.7-0.1-10
	c0.7-3.3,2.2-6.4,4.3-9c2.1-2.6,4.8-4.8,7.8-6.3c3-1.5,6.4-2.2,9.8-2.2H577c3.4,0,6.8,1.1,9.5,3.2c2.7,2.1,4.6,5.1,5.4,8.4
	l69.5,282.9c0.1,0.2,0.1,0.5,0,0.7c-0.1,0.2-0.2,0.5-0.3,0.7c-0.2,0.2-0.3,0.4-0.6,0.5C660.2,510.7,660,510.7,659.7,510.7
	L659.7,510.7z M226.2,507.5h431.5l-69-280.9c-0.6-2.6-2.1-4.9-4.3-6.6c-2.1-1.7-4.7-2.6-7.4-2.6H179.2c-2.9,0-5.7,0.6-8.3,1.9
	c-2.6,1.2-4.9,3.1-6.7,5.3c-1.8,2.3-3,4.9-3.6,7.7c-0.6,2.8-0.6,5.7,0.1,8.5L226.2,507.5z"/>
<path class="st23" d="M627.4,490.4H248l-62.8-255.9h379.4L627.4,490.4z"/>
<path class="st8" d="M627.4,492H248c-0.4,0-0.7-0.1-1-0.3s-0.5-0.5-0.6-0.9l-62.9-255.9c-0.1-0.2-0.1-0.5,0-0.7
	c0.1-0.2,0.2-0.5,0.3-0.7c0.2-0.2,0.3-0.4,0.6-0.5c0.2-0.1,0.5-0.2,0.7-0.2h379.5c0.4,0,0.7,0.1,1,0.3c0.3,0.2,0.5,0.5,0.6,0.9
	L629,490c0.1,0.2,0.1,0.5,0,0.7c-0.1,0.2-0.2,0.5-0.3,0.7s-0.3,0.4-0.6,0.5C627.9,492,627.7,492,627.4,492z M249.3,488.8h376.1
	l-62-252.7H187.2L249.3,488.8z"/>
<path class="st7" d="M889.9,522.7c0,3.6-1.4,7.1-4,9.6c-2.6,2.6-6,4-9.6,4h-634c-3.1,0-6-1-8.4-2.9c-2.4-1.9-4.1-4.5-4.8-7.5
	l-4.1-16.9h651.4c1.8,0,3.6,0.4,5.2,1c1.7,0.7,3.2,1.7,4.4,3c1.3,1.3,2.3,2.8,3,4.4C889.5,519.2,889.9,520.9,889.9,522.7z"/>
<path class="st8" d="M876.2,538h-634c-3.4,0-6.8-1.1-9.5-3.2c-2.7-2.1-4.6-5.1-5.4-8.4l-4.1-16.9c-0.1-0.2-0.1-0.5,0-0.7
	c0.1-0.2,0.2-0.5,0.3-0.7c0.2-0.2,0.3-0.4,0.6-0.5s0.5-0.2,0.7-0.2h651.4c4.1,0,7.9,1.6,10.8,4.5c2.9,2.9,4.5,6.8,4.5,10.8
	c0,4.1-1.6,7.9-4.5,10.8C884.2,536.4,880.3,538,876.2,538z M226.8,510.7l3.6,14.9c0.6,2.6,2.1,4.9,4.2,6.6c2.1,1.7,4.7,2.6,7.4,2.6
	h634.1c3.2,0,6.3-1.3,8.5-3.5c2.3-2.3,3.5-5.3,3.5-8.5c0-3.2-1.3-6.2-3.5-8.5c-2.3-2.3-5.3-3.5-8.5-3.5H226.8z"/>
<path class="st23" d="M504,522.7c0,3.6-1.4,7.1-4,9.6c-2.6,2.6-6,4-9.6,4H242.3c-3.1,0-6-1-8.4-2.9c-2.4-1.9-4.1-4.5-4.8-7.5
	l-4.1-16.9h265.5c1.8,0,3.6,0.4,5.2,1c1.7,0.7,3.2,1.7,4.4,3c1.3,1.3,2.3,2.8,3,4.4C503.6,519.2,504,520.9,504,522.7z"/>
<path class="st8" d="M490.3,538H242.3c-3.4,0-6.8-1.1-9.5-3.2c-2.7-2.1-4.6-5.1-5.4-8.4l-4.1-16.9c-0.1-0.2-0.1-0.5,0-0.7
	c0.1-0.2,0.2-0.5,0.3-0.7c0.2-0.2,0.3-0.4,0.6-0.5s0.5-0.2,0.7-0.2h265.5c4.1,0,7.9,1.6,10.8,4.5c2.9,2.9,4.5,6.8,4.5,10.8
	c0,4.1-1.6,7.9-4.5,10.8C498.2,536.4,494.4,538,490.3,538z M226.8,510.7l3.6,14.9c0.6,2.6,2.1,4.9,4.2,6.6c2.1,1.7,4.7,2.6,7.4,2.6
	h248.1c3.2,0,6.3-1.3,8.5-3.5c2.3-2.3,3.5-5.3,3.5-8.5c0-3.2-1.3-6.2-3.5-8.5c-2.3-2.3-5.3-3.5-8.5-3.5H226.8z"/>
<path class="st7" d="M835.3,384.3l-62.5,88c-1.2,1.7-1.9,3.6-2.2,5.6c-0.3,2-0.1,4.1,0.6,6c0.8,2.1,0.8,4.5,0.1,6.7l-2.7,7.3
	c-0.2,0.3-0.2,0.7-0.1,1s0.3,0.7,0.6,0.9c0.3,0.2,0.7,0.3,1,0.3c0.4,0,0.7-0.2,0.9-0.5l4.8-4.3c1.9-1.8,4.5-2.8,7.1-2.8
	c2.1,0.1,4.2-0.4,6.1-1.3c1.9-0.9,3.5-2.3,4.8-4.1l62.5-88L835.3,384.3z"/>
<path class="st8" d="M769.4,501.7c-0.4-0.1-0.8-0.3-1.2-0.5c-0.6-0.4-1-1-1.2-1.8c-0.2-0.7-0.1-1.5,0.2-2.1l2.6-7.2
	c0.6-1.8,0.6-3.8-0.1-5.6c-0.7-2.2-1-4.5-0.6-6.7c0.3-2.3,1.2-4.4,2.5-6.3l62.5-88c0.1-0.2,0.3-0.3,0.5-0.4c0.2-0.1,0.4-0.2,0.6-0.2
	c0.2,0,0.4,0,0.6,0c0.2,0.1,0.4,0.1,0.6,0.3l21,14.9c0.2,0.1,0.3,0.3,0.4,0.5c0.1,0.2,0.2,0.4,0.2,0.6c0,0.2,0,0.4,0,0.6
	c0,0.2-0.1,0.4-0.3,0.6l-62.5,88c-1.4,2-3.2,3.5-5.4,4.6c-2.2,1.1-4.5,1.6-6.9,1.5c-2.2,0-4.3,0.8-6,2.4l-4.8,4.3
	c-0.4,0.3-0.8,0.6-1.3,0.7C770.4,501.8,769.8,501.8,769.4,501.7z M835.7,386.6l-61.5,86.7c-1,1.5-1.7,3.1-1.9,4.9
	c-0.3,1.8-0.1,3.6,0.5,5.2c0.9,2.5,0.9,5.3,0.1,7.8l-2.5,7l4.5-4c2.2-2.1,5.2-3.2,8.2-3.2c1.9,0.1,3.7-0.3,5.4-1.1
	c1.7-0.8,3.1-2,4.2-3.5l61.5-86.8L835.7,386.6z"/>
<path class="st11" d="M866.1,359.7l3.2,2.3c3,2.1,5,5.3,5.6,8.9c0.6,3.6-0.2,7.3-2.3,10.2l-14.1,19.8l-25.6-18.1l14.1-19.8
	c1-1.5,2.4-2.7,3.9-3.7c1.5-1,3.2-1.6,5-1.9c1.8-0.3,3.6-0.2,5.4,0.2C863,357.9,864.7,358.6,866.1,359.7z"/>
<path class="st8" d="M858.3,402.4c-0.2,0-0.4-0.1-0.6-0.3L832.1,384c-0.2-0.1-0.3-0.3-0.4-0.5c-0.1-0.2-0.2-0.4-0.2-0.6s0-0.4,0-0.6
	c0.1-0.2,0.1-0.4,0.3-0.6l14.1-19.8c2.4-3.3,5.9-5.6,9.9-6.2c4-0.7,8.1,0.3,11.4,2.6l3.2,2.3c1.6,1.2,3,2.6,4.1,4.4
	c1.1,1.7,1.8,3.6,2.1,5.6c0.3,2,0.3,4-0.2,6c-0.4,2-1.3,3.8-2.4,5.5l-14.1,19.8c-0.2,0.3-0.4,0.5-0.7,0.6
	C858.9,402.5,858.6,402.5,858.3,402.4z M835.3,382.4l22.9,16.3l13.1-18.5c1.9-2.6,2.6-5.9,2.1-9c-0.5-3.2-2.3-6-4.9-7.8l-3.2-2.3
	c-2.6-1.9-5.9-2.6-9-2.1c-3.2,0.5-6,2.3-7.8,4.9L835.3,382.4z"/>
<path class="st11" d="M864.8,405.3l-38.1-27c-2.2-1.6-5.3-1-6.8,1.2l-0.8,1.1c-1.6,2.2-1,5.3,1.2,6.8l38.1,27c2.2,1.6,5.3,1,6.8-1.2
	l0.8-1.1C867.5,410,867,406.9,864.8,405.3z"/>
<path class="st8" d="M859.9,416.8c-0.9-0.2-1.7-0.5-2.5-1.1l-38.1-27c-0.7-0.5-1.3-1.1-1.8-1.9c-0.5-0.7-0.8-1.6-0.9-2.4
	c-0.1-0.9-0.1-1.7,0.1-2.6c0.2-0.8,0.6-1.6,1.1-2.3l0.8-1.1c0.5-0.7,1.1-1.3,1.9-1.8c0.7-0.5,1.5-0.8,2.4-0.9
	c0.9-0.1,1.7-0.1,2.6,0.1c0.8,0.2,1.6,0.6,2.3,1.1l38.1,27c0.7,0.5,1.3,1.1,1.8,1.9c0.5,0.7,0.8,1.6,0.9,2.4
	c0.1,0.9,0.1,1.7-0.1,2.6c-0.2,0.8-0.6,1.6-1.1,2.3l-0.8,1.1c-0.7,1-1.8,1.8-2.9,2.3C862.5,417,861.2,417.1,859.9,416.8L859.9,416.8
	z M824.6,379c-0.6-0.1-1.3-0.1-1.9,0.2c-0.6,0.2-1.1,0.6-1.5,1.1l-0.8,1.1c-0.3,0.4-0.4,0.7-0.5,1.2c-0.1,0.4-0.1,0.9,0,1.3
	c0.1,0.4,0.2,0.8,0.5,1.2c0.2,0.4,0.5,0.7,0.9,0.9l38.1,27c0.4,0.3,0.7,0.4,1.2,0.5c0.4,0.1,0.9,0.1,1.3,0c0.4-0.1,0.8-0.2,1.2-0.5
	c0.4-0.2,0.7-0.5,0.9-0.9l0.8-1.1c0.3-0.4,0.4-0.7,0.5-1.2c0.1-0.4,0.1-0.9,0-1.3c-0.1-0.4-0.2-0.8-0.5-1.2
	c-0.2-0.4-0.5-0.7-0.9-0.9l-38.1-27C825.4,379.3,825,379.1,824.6,379L824.6,379z"/>
<path class="st8" d="M907.6,491.2c-7.5,0-12.8-2.2-15.4-6.3c-7.7-12.4,12.5-38.1,46.9-59.7c0.2-0.2,0.5-0.3,0.8-0.3
	c0.3,0,0.6,0,0.8,0c0.3,0.1,0.5,0.2,0.8,0.3c0.2,0.2,0.4,0.4,0.6,0.6c0.2,0.2,0.3,0.5,0.3,0.8c0,0.3,0,0.6,0,0.8
	c-0.1,0.3-0.2,0.5-0.3,0.8c-0.2,0.2-0.4,0.4-0.6,0.6c-33.9,21.3-50.9,45-45.5,53.8c2.8,4.6,11.7,5.5,24.3,2.6
	c13.6-3.1,29.8-10.3,45.8-20.1c12.4-7.5,23.8-16.5,34-26.8c0.2-0.2,0.4-0.4,0.7-0.5s0.5-0.2,0.8-0.2c0.3,0,0.6,0,0.8,0.1
	c0.3,0.1,0.5,0.3,0.7,0.5c0.2,0.2,0.4,0.4,0.5,0.7c0.1,0.3,0.2,0.5,0.2,0.8c0,0.3,0,0.6-0.1,0.8c-0.1,0.3-0.3,0.5-0.5,0.7
	c-10.4,10.6-22.1,19.8-34.8,27.5c-16.3,10.1-33.1,17.3-47.1,20.7C916.8,490.6,912.2,491.1,907.6,491.2z"/>
<path class="st8" d="M1002.4,452.4c6.1,0,11-4.9,11-11s-4.9-11-11-11c-6.1,0-11,4.9-11,11S996.3,452.4,1002.4,452.4z"/>
<path class="st8" d="M1002.4,454c-2.5,0-5-0.7-7-2.1c-2.1-1.4-3.7-3.4-4.7-5.7c-1-2.3-1.2-4.9-0.7-7.3c0.5-2.5,1.7-4.7,3.5-6.5
	c1.8-1.8,4-3,6.5-3.5c2.5-0.5,5-0.2,7.3,0.7s4.3,2.6,5.7,4.7c1.4,2.1,2.1,4.5,2.1,7c0,3.4-1.3,6.6-3.7,8.9S1005.7,454,1002.4,454z
	 M1002.4,431.9c-1.9,0-3.7,0.6-5.2,1.6c-1.5,1-2.8,2.5-3.5,4.2c-0.7,1.7-0.9,3.6-0.5,5.4c0.4,1.8,1.3,3.5,2.6,4.8
	c1.3,1.3,3,2.2,4.8,2.6c1.8,0.4,3.7,0.2,5.4-0.5c1.7-0.7,3.2-1.9,4.2-3.5c1-1.5,1.6-3.4,1.6-5.2c0-2.5-1-4.9-2.8-6.7
	C1007.2,432.9,1004.9,431.9,1002.4,431.9z"/>
<path class="st11" d="M462.2,144.4c4,0,7.2-3.2,7.2-7.2s-3.2-7.2-7.2-7.2c-4,0-7.2,3.2-7.2,7.2S458.3,144.4,462.2,144.4z"/>
<path class="st9" d="M167.7,198.3c7,0,12.7-5.7,12.7-12.7c0-7-5.7-12.7-12.7-12.7s-12.7,5.7-12.7,12.7
	C155,192.6,160.7,198.3,167.7,198.3z"/>
<path class="st11" d="M721.3,443.6c7.9,0,14.3-6.4,14.3-14.3s-6.4-14.3-14.3-14.3c-7.9,0-14.3,6.4-14.3,14.3
	S713.4,443.6,721.3,443.6z"/>
<path class="st10" d="M734.7,77.1c4.4,0,8-3.6,8-8c0-4.4-3.6-8-8-8c-4.4,0-8,3.6-8,8C726.6,73.5,730.2,77.1,734.7,77.1z"/>
<path class="st11" d="M957,74.7l-10-10l-10,10l10,10L957,74.7z"/>
<path class="st9" d="M405.3,151.8l-17.1,17.1l17.1,17.1l17.1-17.1L405.3,151.8z"/>
<path class="st10" d="M109.6,239.9l-12,12l12,12l12-12L109.6,239.9z"/>
<path class="st9" d="M755,243.5L742.5,231L730,243.5l12.5,12.5L755,243.5z"/>
<path class="st24" d="M356.5,433.5l-36-145.5h130l35,145.5H356.5z"/>
<path class="st5" d="M423.9,370.5c-9.8,0-19.7-8-22.1-17.8c-1.2-4.9-0.3-9.1,2-12.2c2.3-3,6-5,10.8-5c9.8,0,19.7,8,22.1,17.8
	c1.2,4.9,0.3,9.1-2,12.2C432.5,368.6,428.7,370.5,423.9,370.5z"/>
<path class="st25" d="M415.3,353.8h-48.2l14-41.8L415.3,353.8z"/>
<path class="st6" d="M424.8,315l3,12.4h-12.3l-3-12.4H424.8z"/>
<path class="st26" d="M369.5,420l-7-29.5H460l7,29.5H369.5z"/>
<path class="st4" d="M338.1,134L338.1,134c-4.2-4.3-10.6-5-15.7-2.3l-6.6-5.5c2.9-5.7,3.1-12.4,0.4-18.2l6.5-5
	c6,4.2,14.4,3.8,19.9-1.5c6.2-6,6.4-15.9,0.3-22.1c-6.1-6.2-16-6.3-22.2-0.3l0,0c-4.6,4.5-5.9,11-3.7,16.6l-6.4,5
	c-7-5.9-17-6.5-24.7-1.9l-6.2-6.4c4.2-7,3.4-16.1-2.5-22.3c-7.1-7.3-18.8-7.4-26.1-0.4c-7.3,7-7.5,18.7-0.4,25.9v0
	c6,6.1,15.2,7.2,22.3,3.2l6.2,6.4c-4.7,7.1-4.6,16.5,0.4,23.5l-7.6,8.5c-4.4-1.7-9.7-0.8-13.3,2.7l0,0c-5,4.8-5.1,12.8-0.3,17.8l0,0
	c4.9,5,12.9,5.1,17.9,0.3l0,0c4-3.9,4.9-9.8,2.6-14.5l7.6-8.5c7.3,4.1,16.4,3.5,23.2-1.6l6.6,5.5c-1.5,4.5-0.6,9.6,3,13.2l0,0
	c5,5.1,13.3,5.2,18.4,0.3l0,0C343,147.3,343.1,139.1,338.1,134z"/>
<path class="st27" d="M1072.3,106.8l-63.4,41.9l0,0c-3.8,2.6-3.2,8.7,1.3,10.3l22.7,7.9l-14,38.4c-1,2.7,0.2,5.2,2.1,6.5
	c1.9,1.3,4.6,1.6,7,0l63-42c2.1-1.3,3.1-3.5,2.9-5.5c-0.2-2.1-1.6-3.9-3.8-4.7l-22.7-7.9l14.1-38.4c1-2.7-0.2-5.2-2.1-6.5
	C1077.3,105.4,1074.6,105.1,1072.3,106.8z"/>
<path class="st6" d="M702.8,359.1"/>
<path class="st28" d="M720.6,299.2c-17.2,0-31.1,14-31.1,31.2c0,3.3,0.5,6.5,1.5,9.6l-22.4,22.4c-0.6,0.6-0.9,1.4-0.9,2.2v15.6
	c0,1.7,1.4,3.1,3.1,3.1h15.6c1.7,0,3.1-1.4,3.1-3.1v-6.2h6.2c1.7,0,3.1-1.4,3.1-3.1v-6.2h6.2c0.8,0,1.6-0.3,2.2-0.9l3.7-3.7
	c16.3,5.3,33.9-3.6,39.2-20c5.3-16.3-3.6-33.9-20-39.2C727.1,299.7,723.9,299.2,720.6,299.2z M728.4,328.8c-3.4,0-6.2-2.8-6.2-6.2
	c0-3.4,2.8-6.2,6.2-6.2s6.2,2.8,6.2,6.2C734.6,326,731.9,328.8,728.4,328.8z"/>
</svg>
