<svg width="600" height="800" viewBox="0 0 600 800" fill="none" xmlns="http://www.w3.org/2000/svg">
<rect width="600" height="800" fill="#303030"/>
<path d="M151.968 515.445C153.877 513.398 153.765 510.192 151.718 508.283C149.671 506.374 146.464 506.486 144.555 508.533C142.646 510.58 142.758 513.787 144.805 515.696C146.852 517.604 150.059 517.492 151.968 515.445Z" fill="#FF577F"/>
<path d="M134.291 344.818C138.253 344.818 141.464 341.607 141.464 337.645C141.464 333.683 138.253 330.471 134.291 330.471C130.329 330.471 127.117 333.683 127.117 337.645C127.117 341.607 130.329 344.818 134.291 344.818Z" fill="#FF577F"/>
<path d="M429.869 141.373C435.219 141.373 439.556 137.036 439.556 131.687C439.556 126.337 435.219 122 429.869 122C424.519 122 420.183 126.337 420.183 131.687C420.183 137.036 424.519 141.373 429.869 141.373Z" fill="#F8D637"/>
<path d="M458.47 208.663L466.608 217.485L475.431 209.347L467.293 200.525L458.47 208.663Z" fill="#FF577F"/>
<path d="M121.978 394.533L113.547 401.276L120.289 409.707L128.72 402.964L121.978 394.533Z" fill="#F8D637"/>
<path d="M421.746 323.282L429.907 316.215L422.841 308.054L414.68 315.121L421.746 323.282Z" fill="#F8D637"/>
<path d="M78.7978 587.939L89.4873 573.846L75.3942 563.156L64.7047 577.249L78.7978 587.939Z" fill="#F8D637"/>
<path d="M471.152 468.352C476.75 467.96 480.97 463.105 480.578 457.507C480.187 451.909 475.331 447.689 469.733 448.081C464.135 448.472 459.915 453.328 460.307 458.926C460.699 464.524 465.554 468.744 471.152 468.352Z" fill="#FF577F"/>
<path d="M484.464 153.516L478.61 141.303L470.959 152.463L484.464 153.516Z" fill="#0D9CE8"/>
<path d="M445.171 519.766L429.532 515.315L433.505 531.095L445.171 519.766Z" fill="#0D9CE8"/>
<path d="M91.7969 489.428L90.4773 473.228L77.0986 482.479L91.7969 489.428Z" fill="#0D9CE8"/>
<path d="M406.637 148.322V582.896C406.637 588.332 404.477 593.545 400.633 597.389C396.79 601.232 391.576 603.392 386.141 603.392H187.258C184.566 603.394 181.9 602.865 179.412 601.835C176.925 600.806 174.665 599.296 172.761 597.393C170.857 595.489 169.348 593.229 168.318 590.741C167.289 588.254 166.76 585.588 166.762 582.896V148.322C166.762 142.89 168.92 137.68 172.761 133.839C176.602 129.998 181.812 127.84 187.244 127.84H386.141C388.831 127.838 391.496 128.366 393.983 129.395C396.47 130.423 398.729 131.932 400.633 133.834C402.536 135.736 404.046 137.995 405.076 140.481C406.106 142.966 406.637 145.631 406.637 148.322Z" fill="#FAF7F2"/>
<path d="M386.14 604.445H187.257C181.546 604.437 176.07 602.164 172.033 598.124C167.995 594.084 165.726 588.607 165.722 582.896V148.322C165.733 142.615 168.006 137.146 172.043 133.112C176.079 129.078 181.55 126.809 187.257 126.801H386.14C391.851 126.805 397.328 129.075 401.368 133.112C405.408 137.149 407.681 142.625 407.689 148.336V582.896C407.681 588.609 405.408 594.086 401.369 598.125C397.329 602.165 391.852 604.437 386.14 604.445ZM187.257 128.907C182.105 128.911 177.166 130.959 173.523 134.602C169.88 138.245 167.832 143.184 167.828 148.336V582.896C167.832 588.049 169.879 592.99 173.522 596.635C177.164 600.28 182.104 602.332 187.257 602.339H386.14C391.294 602.332 396.235 600.281 399.88 596.636C403.525 592.991 405.575 588.05 405.583 582.896V148.322C405.572 143.172 403.519 138.235 399.874 134.596C396.229 130.957 391.29 128.911 386.14 128.907H187.257Z" fill="#010101"/>
<path d="M354.483 247.84H219.784V355.754H354.483V247.84Z" fill="#FAF7F2"/>
<path d="M354.483 356.793H219.715C219.435 356.793 219.167 356.682 218.97 356.484C218.773 356.287 218.662 356.019 218.662 355.74V247.84C218.662 247.561 218.773 247.293 218.97 247.096C219.167 246.899 219.435 246.788 219.715 246.788H354.483C354.763 246.788 355.031 246.899 355.228 247.096C355.425 247.293 355.536 247.561 355.536 247.84V355.754C355.533 356.031 355.42 356.295 355.223 356.489C355.026 356.684 354.76 356.793 354.483 356.793ZM220.838 354.687H353.473V248.893H220.838V354.687Z" fill="#010101"/>
<path d="M368.577 182.702H204.819V210.976H368.577V182.702Z" fill="#FAF7F2"/>
<path d="M368.577 212.029H204.819C204.54 212.029 204.272 211.918 204.074 211.72C203.877 211.523 203.766 211.255 203.766 210.976V182.702C203.766 182.423 203.877 182.155 204.074 181.958C204.272 181.76 204.54 181.649 204.819 181.649H368.577C368.856 181.649 369.124 181.76 369.322 181.958C369.519 182.155 369.63 182.423 369.63 182.702V210.976C369.63 211.114 369.603 211.251 369.55 211.379C369.497 211.506 369.419 211.622 369.322 211.72C369.224 211.818 369.108 211.896 368.98 211.948C368.852 212.001 368.715 212.029 368.577 212.029ZM205.872 209.923H367.51V183.755H205.872V209.923Z" fill="#010101"/>
<path d="M406.637 572.452V582.897C406.637 588.333 404.477 593.546 400.633 597.39C396.79 601.233 391.576 603.393 386.141 603.393H187.258C184.566 603.395 181.9 602.866 179.412 601.836C176.925 600.807 174.665 599.297 172.761 597.394C170.857 595.49 169.348 593.23 168.318 590.742C167.289 588.255 166.76 585.589 166.762 582.897V572.452H406.637Z" fill="#010101"/>
<path d="M386.14 604.446H187.257C181.546 604.438 176.07 602.165 172.033 598.125C167.995 594.085 165.726 588.608 165.722 582.897V572.452C165.722 572.173 165.833 571.905 166.031 571.708C166.228 571.51 166.496 571.399 166.775 571.399H406.636C406.915 571.399 407.183 571.51 407.38 571.708C407.578 571.905 407.689 572.173 407.689 572.452V582.897C407.681 588.61 405.408 594.087 401.369 598.126C397.329 602.166 391.852 604.438 386.14 604.446ZM167.828 573.561V582.953C167.832 588.106 169.879 593.047 173.522 596.692C177.164 600.338 182.104 602.389 187.257 602.396H386.14C391.294 602.389 396.235 600.338 399.88 596.693C403.525 593.049 405.575 588.107 405.583 582.953V573.505L167.828 573.561Z" fill="#010101"/>
<path d="M236.238 312.937L222.354 350.841C216.738 350.307 209.017 351.978 202.279 355.179C200.536 355.998 198.853 356.936 197.239 357.986L184.408 344.748C185.708 343.419 186.927 342.013 188.058 340.537C192.218 335.133 194.877 328.726 195.765 321.964L236.238 312.937Z" fill="#F8D637"/>
<path d="M197.238 359.138C197.096 359.138 196.956 359.109 196.826 359.053C196.695 358.998 196.578 358.917 196.479 358.815L183.606 345.562C183.434 345.369 183.338 345.119 183.338 344.861C183.338 344.602 183.434 344.352 183.606 344.159C184.884 342.829 186.08 341.423 187.186 339.947C191.241 334.699 193.832 328.469 194.697 321.894C194.723 321.678 194.816 321.476 194.961 321.315C195.107 321.155 195.299 321.043 195.511 320.995L235.984 311.926C236.17 311.883 236.365 311.891 236.547 311.95C236.729 312.009 236.891 312.116 237.017 312.261C237.142 312.405 237.226 312.581 237.259 312.769C237.293 312.958 237.274 313.152 237.205 313.33L223.321 351.234C223.243 351.456 223.092 351.644 222.894 351.769C222.695 351.894 222.459 351.948 222.226 351.922C216.793 351.402 209.311 353.031 202.699 356.133C200.999 356.956 199.357 357.894 197.785 358.941C197.625 359.057 197.435 359.125 197.238 359.138ZM185.866 344.832L197.392 356.723C198.819 355.831 200.295 355.02 201.814 354.294C207.978 351.263 214.768 349.724 221.636 349.802L234.594 314.397L196.69 322.82C195.682 329.5 192.991 335.815 188.871 341.168C187.93 342.474 186.919 343.695 185.866 344.818V344.832Z" fill="#010101"/>
<path d="M184.547 336.945L177.323 343.954L197.185 364.429L204.41 357.42L184.547 336.945Z" fill="#0D9CE8"/>
<path d="M197.198 365.511C197.056 365.511 196.916 365.483 196.786 365.427C196.656 365.372 196.538 365.291 196.44 365.189L176.589 344.721C176.392 344.523 176.281 344.255 176.281 343.976C176.281 343.697 176.392 343.43 176.589 343.232L183.819 336.213C184.017 336.016 184.284 335.905 184.563 335.905C184.842 335.905 185.11 336.016 185.307 336.213L205.172 356.681C205.369 356.879 205.48 357.146 205.48 357.425C205.48 357.704 205.369 357.972 205.172 358.169L197.942 365.189C197.845 365.289 197.73 365.369 197.602 365.424C197.474 365.48 197.337 365.509 197.198 365.511ZM178.822 344.005L197.212 362.97L202.926 357.425L184.535 338.459L178.822 344.005Z" fill="#010101"/>
<path d="M148.778 402.442L192.68 359.854L181.83 348.669L137.928 391.258L148.778 402.442Z" fill="#0D9CE8"/>
<path d="M148.779 403.457C148.637 403.457 148.497 403.428 148.367 403.373C148.237 403.317 148.119 403.236 148.021 403.134L137.169 391.903C136.972 391.706 136.861 391.438 136.861 391.159C136.861 390.88 136.972 390.613 137.169 390.415L181.109 347.907C181.307 347.71 181.574 347.599 181.853 347.599C182.132 347.599 182.4 347.71 182.597 347.907L193.449 359.138C193.646 359.335 193.757 359.603 193.757 359.882C193.757 360.161 193.646 360.428 193.449 360.626L149.537 403.218C149.325 403.394 149.053 403.48 148.779 403.457ZM139.415 391.244L148.807 400.916L191.203 359.798L181.811 350.125L139.415 391.244Z" fill="#010101"/>
<path d="M209.2 338.698C208.989 338.698 208.782 338.634 208.607 338.515C208.432 338.396 208.297 338.226 208.22 338.029C208.143 337.832 208.127 337.617 208.174 337.41C208.221 337.204 208.329 337.017 208.484 336.873L235.55 312.179C235.761 312.021 236.022 311.948 236.284 311.973C236.546 311.999 236.789 312.121 236.965 312.316C237.141 312.512 237.237 312.766 237.235 313.029C237.233 313.292 237.133 313.545 236.954 313.737L209.874 338.431C209.688 338.597 209.449 338.691 209.2 338.698Z" fill="#010101"/>
<path d="M212.88 341.423C214.984 339.382 215.035 336.023 212.994 333.919C210.954 331.816 207.594 331.765 205.49 333.805C203.387 335.846 203.336 339.205 205.377 341.309C207.417 343.412 210.777 343.463 212.88 341.423Z" fill="#FAF7F2"/>
<path d="M209.199 344.004C207.727 344.001 206.301 343.487 205.167 342.549C204.033 341.61 203.26 340.307 202.981 338.861C202.702 337.416 202.934 335.918 203.638 334.625C204.342 333.332 205.473 332.324 206.838 331.774C208.204 331.223 209.718 331.165 211.122 331.608C212.526 332.051 213.732 332.969 214.533 334.204C215.335 335.438 215.682 336.913 215.516 338.376C215.349 339.839 214.68 341.198 213.621 342.221C212.436 343.369 210.849 344.009 209.199 344.004ZM209.199 333.405C208.073 333.405 206.993 333.853 206.196 334.649C205.4 335.445 204.952 336.526 204.952 337.652C204.952 338.778 205.4 339.858 206.196 340.655C206.993 341.451 208.073 341.898 209.199 341.898C210.32 341.9 211.4 341.474 212.217 340.705C212.84 340.128 213.273 339.376 213.461 338.548C213.649 337.72 213.582 336.855 213.269 336.065C212.957 335.276 212.413 334.6 211.709 334.125C211.005 333.65 210.174 333.399 209.325 333.405H209.199Z" fill="#010101"/>
<path d="M429.87 494.159H422.851C422.571 494.159 422.304 494.049 422.106 493.851C421.909 493.654 421.798 493.386 421.798 493.107C421.798 492.827 421.909 492.56 422.106 492.362C422.304 492.165 422.571 492.054 422.851 492.054H428.817V486.888C428.817 486.608 428.928 486.341 429.125 486.143C429.323 485.946 429.591 485.835 429.87 485.835C430.149 485.835 430.417 485.946 430.614 486.143C430.812 486.341 430.923 486.608 430.923 486.888V493.121C430.919 493.397 430.806 493.662 430.609 493.856C430.412 494.05 430.147 494.159 429.87 494.159ZM415.831 494.159H408.812C408.533 494.159 408.265 494.049 408.068 493.851C407.87 493.654 407.759 493.386 407.759 493.107C407.759 492.827 407.87 492.56 408.068 492.362C408.265 492.165 408.533 492.054 408.812 492.054H415.831C416.111 492.054 416.378 492.165 416.576 492.362C416.773 492.56 416.884 492.827 416.884 493.107C416.884 493.386 416.773 493.654 416.576 493.851C416.378 494.049 416.111 494.159 415.831 494.159ZM401.793 494.159H394.774C394.494 494.159 394.227 494.049 394.029 493.851C393.832 493.654 393.721 493.386 393.721 493.107C393.721 492.827 393.832 492.56 394.029 492.362C394.227 492.165 394.494 492.054 394.774 492.054H401.793C402.072 492.054 402.34 492.165 402.537 492.362C402.735 492.56 402.846 492.827 402.846 493.107C402.846 493.386 402.735 493.654 402.537 493.851C402.34 494.049 402.072 494.159 401.793 494.159ZM387.755 494.159H380.735C380.456 494.159 380.188 494.049 379.991 493.851C379.793 493.654 379.682 493.386 379.682 493.107C379.682 492.827 379.793 492.56 379.991 492.362C380.188 492.165 380.456 492.054 380.735 492.054H387.755C388.034 492.054 388.302 492.165 388.499 492.362C388.696 492.56 388.807 492.827 388.807 493.107C388.807 493.386 388.696 493.654 388.499 493.851C388.302 494.049 388.034 494.159 387.755 494.159ZM373.716 494.159H366.697C366.418 494.159 366.15 494.049 365.952 493.851C365.755 493.654 365.644 493.386 365.644 493.107C365.644 492.827 365.755 492.56 365.952 492.362C366.15 492.165 366.418 492.054 366.697 492.054H373.716C373.995 492.054 374.263 492.165 374.461 492.362C374.658 492.56 374.769 492.827 374.769 493.107C374.769 493.386 374.658 493.654 374.461 493.851C374.263 494.049 373.995 494.159 373.716 494.159ZM359.678 494.159H352.658C352.379 494.159 352.111 494.049 351.914 493.851C351.716 493.654 351.606 493.386 351.606 493.107C351.606 492.827 351.716 492.56 351.914 492.362C352.111 492.165 352.379 492.054 352.658 492.054H359.678C359.957 492.054 360.225 492.165 360.422 492.362C360.62 492.56 360.731 492.827 360.731 493.107C360.731 493.386 360.62 493.654 360.422 493.851C360.225 494.049 359.957 494.159 359.678 494.159ZM345.639 494.159H338.62C338.341 494.159 338.073 494.049 337.876 493.851C337.678 493.654 337.567 493.386 337.567 493.107C337.567 492.827 337.678 492.56 337.876 492.362C338.073 492.165 338.341 492.054 338.62 492.054H345.639C345.918 492.054 346.186 492.165 346.384 492.362C346.581 492.56 346.692 492.827 346.692 493.107C346.692 493.386 346.581 493.654 346.384 493.851C346.186 494.049 345.918 494.159 345.639 494.159ZM331.601 494.159H324.582C324.302 494.159 324.035 494.049 323.837 493.851C323.64 493.654 323.529 493.386 323.529 493.107C323.529 492.827 323.64 492.56 323.837 492.362C324.035 492.165 324.302 492.054 324.582 492.054H331.601C331.88 492.054 332.148 492.165 332.345 492.362C332.543 492.56 332.654 492.827 332.654 493.107C332.654 493.386 332.543 493.654 332.345 493.851C332.148 494.049 331.88 494.159 331.601 494.159ZM317.562 494.159H310.543C310.264 494.159 309.996 494.049 309.799 493.851C309.601 493.654 309.49 493.386 309.49 493.107C309.49 492.827 309.601 492.56 309.799 492.362C309.996 492.165 310.264 492.054 310.543 492.054H317.562C317.842 492.054 318.109 492.165 318.307 492.362C318.504 492.56 318.615 492.827 318.615 493.107C318.615 493.386 318.504 493.654 318.307 493.851C318.109 494.049 317.842 494.159 317.562 494.159ZM303.524 494.159H300.127C299.847 494.159 299.58 494.049 299.382 493.851C299.185 493.654 299.074 493.386 299.074 493.107V489.443C299.074 489.163 299.185 488.896 299.382 488.698C299.58 488.501 299.847 488.39 300.127 488.39C300.406 488.39 300.674 488.501 300.871 488.698C301.069 488.896 301.179 489.163 301.179 489.443V492.054H303.482C303.761 492.054 304.029 492.165 304.226 492.362C304.424 492.56 304.535 492.827 304.535 493.107C304.535 493.386 304.424 493.654 304.226 493.851C304.029 494.049 303.761 494.159 303.482 494.159H303.524ZM300.127 483.49C299.847 483.49 299.58 483.379 299.382 483.182C299.185 482.984 299.074 482.717 299.074 482.437V475.418C299.074 475.139 299.185 474.871 299.382 474.674C299.58 474.476 299.847 474.365 300.127 474.365C300.406 474.365 300.674 474.476 300.871 474.674C301.069 474.871 301.179 475.139 301.179 475.418V482.437C301.179 482.717 301.069 482.984 300.871 483.182C300.674 483.379 300.406 483.49 300.127 483.49ZM429.828 480.907C429.548 480.907 429.281 480.796 429.083 480.599C428.886 480.401 428.775 480.134 428.775 479.854V472.835C428.775 472.556 428.886 472.288 429.083 472.091C429.281 471.893 429.548 471.782 429.828 471.782C430.107 471.782 430.375 471.893 430.572 472.091C430.77 472.288 430.881 472.556 430.881 472.835V479.854C430.881 480.126 430.776 480.388 430.587 480.584C430.399 480.781 430.142 480.896 429.87 480.907H429.828ZM300.127 469.452C299.847 469.452 299.58 469.341 299.382 469.143C299.185 468.946 299.074 468.678 299.074 468.399V461.38C299.074 461.1 299.185 460.833 299.382 460.635C299.58 460.438 299.847 460.327 300.127 460.327C300.406 460.327 300.674 460.438 300.871 460.635C301.069 460.833 301.179 461.1 301.179 461.38V468.399C301.179 468.678 301.069 468.946 300.871 469.143C300.674 469.341 300.406 469.452 300.127 469.452ZM429.828 466.869C429.548 466.869 429.281 466.758 429.083 466.56C428.886 466.363 428.775 466.095 428.775 465.816V458.797C428.775 458.517 428.886 458.25 429.083 458.052C429.281 457.855 429.548 457.744 429.828 457.744C430.107 457.744 430.375 457.855 430.572 458.052C430.77 458.25 430.881 458.517 430.881 458.797V465.816C430.881 466.088 430.776 466.35 430.587 466.546C430.399 466.742 430.142 466.858 429.87 466.869H429.828ZM300.127 455.413C299.847 455.413 299.58 455.302 299.382 455.105C299.185 454.908 299.074 454.64 299.074 454.361V447.341C299.074 447.062 299.185 446.794 299.382 446.597C299.58 446.399 299.847 446.288 300.127 446.288C300.406 446.288 300.674 446.399 300.871 446.597C301.069 446.794 301.179 447.062 301.179 447.341V454.361C301.179 454.64 301.069 454.908 300.871 455.105C300.674 455.302 300.406 455.413 300.127 455.413ZM429.828 452.83C429.548 452.83 429.281 452.719 429.083 452.522C428.886 452.324 428.775 452.057 428.775 451.777V444.758C428.775 444.479 428.886 444.211 429.083 444.014C429.281 443.816 429.548 443.705 429.828 443.705C430.107 443.705 430.375 443.816 430.572 444.014C430.77 444.211 430.881 444.479 430.881 444.758V451.777C430.881 452.05 430.776 452.311 430.587 452.507C430.399 452.704 430.142 452.819 429.87 452.83H429.828ZM423.342 445.278H416.323C416.043 445.278 415.776 445.167 415.578 444.969C415.381 444.772 415.27 444.504 415.27 444.225C415.27 443.946 415.381 443.678 415.578 443.48C415.776 443.283 416.043 443.172 416.323 443.172H423.342C423.621 443.172 423.889 443.283 424.086 443.48C424.284 443.678 424.395 443.946 424.395 444.225C424.395 444.504 424.284 444.772 424.086 444.969C423.889 445.167 423.621 445.278 423.342 445.278ZM409.303 445.278H402.284C402.005 445.278 401.737 445.167 401.54 444.969C401.342 444.772 401.231 444.504 401.231 444.225C401.231 443.946 401.342 443.678 401.54 443.48C401.737 443.283 402.005 443.172 402.284 443.172H409.303C409.583 443.172 409.851 443.283 410.048 443.48C410.245 443.678 410.356 443.946 410.356 444.225C410.356 444.504 410.245 444.772 410.048 444.969C409.851 445.167 409.583 445.278 409.303 445.278ZM395.265 445.278H388.246C387.967 445.278 387.699 445.167 387.501 444.969C387.304 444.772 387.193 444.504 387.193 444.225C387.193 443.946 387.304 443.678 387.501 443.48C387.699 443.283 387.967 443.172 388.246 443.172H395.265C395.544 443.172 395.812 443.283 396.01 443.48C396.207 443.678 396.318 443.946 396.318 444.225C396.318 444.504 396.207 444.772 396.01 444.969C395.812 445.167 395.544 445.278 395.265 445.278ZM381.227 445.278H374.207C373.928 445.278 373.66 445.167 373.463 444.969C373.265 444.772 373.155 444.504 373.155 444.225C373.155 443.946 373.265 443.678 373.463 443.48C373.66 443.283 373.928 443.172 374.207 443.172H381.227C381.506 443.172 381.774 443.283 381.971 443.48C382.169 443.678 382.28 443.946 382.28 444.225C382.28 444.504 382.169 444.772 381.971 444.969C381.774 445.167 381.506 445.278 381.227 445.278ZM367.188 445.278H360.169C359.89 445.278 359.622 445.167 359.425 444.969C359.227 444.772 359.116 444.504 359.116 444.225C359.116 443.946 359.227 443.678 359.425 443.48C359.622 443.283 359.89 443.172 360.169 443.172H367.188C367.467 443.172 367.735 443.283 367.933 443.48C368.13 443.678 368.241 443.946 368.241 444.225C368.241 444.504 368.13 444.772 367.933 444.969C367.735 445.167 367.467 445.278 367.188 445.278ZM353.15 445.278H346.131C345.851 445.278 345.584 445.167 345.386 444.969C345.189 444.772 345.078 444.504 345.078 444.225C345.078 443.946 345.189 443.678 345.386 443.48C345.584 443.283 345.851 443.172 346.131 443.172H353.15C353.429 443.172 353.697 443.283 353.894 443.48C354.092 443.678 354.203 443.946 354.203 444.225C354.203 444.504 354.092 444.772 353.894 444.969C353.697 445.167 353.429 445.278 353.15 445.278ZM339.111 445.278H332.092C331.813 445.278 331.545 445.167 331.348 444.969C331.15 444.772 331.039 444.504 331.039 444.225C331.039 443.946 331.15 443.678 331.348 443.48C331.545 443.283 331.813 443.172 332.092 443.172H339.111C339.391 443.172 339.658 443.283 339.856 443.48C340.053 443.678 340.164 443.946 340.164 444.225C340.164 444.504 340.053 444.772 339.856 444.969C339.658 445.167 339.391 445.278 339.111 445.278ZM325.073 445.278H318.054C317.774 445.278 317.507 445.167 317.309 444.969C317.112 444.772 317.001 444.504 317.001 444.225C317.001 443.946 317.112 443.678 317.309 443.48C317.507 443.283 317.774 443.172 318.054 443.172H325.073C325.352 443.172 325.62 443.283 325.817 443.48C326.015 443.678 326.126 443.946 326.126 444.225C326.126 444.504 326.015 444.772 325.817 444.969C325.62 445.167 325.352 445.278 325.073 445.278ZM311.034 445.278H304.015C303.736 445.278 303.468 445.167 303.271 444.969C303.073 444.772 302.962 444.504 302.962 444.225C302.962 443.946 303.073 443.678 303.271 443.48C303.468 443.283 303.736 443.172 304.015 443.172H311.034C311.314 443.172 311.582 443.283 311.779 443.48C311.976 443.678 312.087 443.946 312.087 444.225C312.087 444.504 311.976 444.772 311.779 444.969C311.582 445.167 311.314 445.278 311.034 445.278Z" fill="#010101"/>
<path d="M328.076 458.095C327.936 458.094 327.798 458.065 327.669 458.011L317.702 453.799C317.462 453.68 317.277 453.474 317.184 453.223C317.091 452.972 317.097 452.695 317.2 452.449C317.304 452.202 317.498 452.004 317.742 451.895C317.987 451.786 318.263 451.774 318.516 451.862L328.076 455.877L337.636 451.862C337.765 451.798 337.906 451.761 338.05 451.753C338.193 451.745 338.337 451.767 338.472 451.817C338.607 451.867 338.73 451.945 338.834 452.044C338.938 452.144 339.02 452.264 339.076 452.396C339.132 452.529 339.16 452.672 339.158 452.816C339.157 452.96 339.126 453.102 339.067 453.233C339.009 453.365 338.924 453.483 338.818 453.58C338.712 453.677 338.587 453.752 338.451 453.799L328.483 458.011C328.355 458.065 328.216 458.094 328.076 458.095Z" fill="#010101"/>
<path d="M338.03 485.484C337.89 485.483 337.751 485.455 337.622 485.399L328.062 481.384L318.516 485.484C318.263 485.571 317.987 485.559 317.742 485.45C317.498 485.341 317.304 485.144 317.2 484.897C317.097 484.65 317.091 484.373 317.184 484.122C317.277 483.872 317.462 483.666 317.702 483.546L327.669 479.335C327.798 479.281 327.936 479.253 328.076 479.253C328.216 479.253 328.354 479.281 328.483 479.335L338.451 483.546C338.635 483.661 338.779 483.83 338.863 484.03C338.948 484.23 338.968 484.451 338.922 484.663C338.876 484.875 338.766 485.068 338.606 485.215C338.446 485.362 338.245 485.456 338.03 485.484Z" fill="#010101"/>
<path d="M328.078 481.272C327.799 481.272 327.531 481.161 327.333 480.964C327.136 480.766 327.025 480.498 327.025 480.219V457.042C327.025 456.762 327.136 456.495 327.333 456.297C327.531 456.1 327.799 455.989 328.078 455.989C328.357 455.989 328.625 456.1 328.822 456.297C329.02 456.495 329.131 456.762 329.131 457.042V480.275C329.116 480.545 328.999 480.798 328.803 480.984C328.607 481.169 328.348 481.272 328.078 481.272Z" fill="#010101"/>
<path d="M334.731 474.759H321.423C321.144 474.759 320.876 474.648 320.678 474.45C320.481 474.253 320.37 473.985 320.37 473.706C320.37 473.426 320.481 473.159 320.678 472.961C320.876 472.764 321.144 472.653 321.423 472.653H334.731C335.011 472.653 335.278 472.764 335.476 472.961C335.673 473.159 335.784 473.426 335.784 473.706C335.784 473.985 335.673 474.253 335.476 474.45C335.278 474.648 335.011 474.759 334.731 474.759Z" fill="#010101"/>
<path d="M353.078 484.473C354.055 484.473 354.847 483.681 354.847 482.704C354.847 481.727 354.055 480.936 353.078 480.936C352.101 480.936 351.309 481.727 351.309 482.704C351.309 483.681 352.101 484.473 353.078 484.473Z" fill="#010101"/>
<path d="M360.744 484.473C361.721 484.473 362.513 483.681 362.513 482.704C362.513 481.727 361.721 480.936 360.744 480.936C359.767 480.936 358.975 481.727 358.975 482.704C358.975 483.681 359.767 484.473 360.744 484.473Z" fill="#010101"/>
<path d="M368.394 484.473C369.371 484.473 370.162 483.681 370.162 482.704C370.162 481.727 369.371 480.936 368.394 480.936C367.417 480.936 366.625 481.727 366.625 482.704C366.625 483.681 367.417 484.473 368.394 484.473Z" fill="#010101"/>
<path d="M406.637 148.322V154.92H166.762V148.322C166.762 142.89 168.92 137.68 172.761 133.839C176.602 129.998 181.812 127.84 187.244 127.84H386.141C388.831 127.838 391.496 128.366 393.983 129.395C396.47 130.423 398.729 131.932 400.633 133.834C402.536 135.736 404.046 137.995 405.076 140.481C406.106 142.966 406.637 145.631 406.637 148.322Z" fill="#010101"/>
<path d="M406.637 155.973H166.762C166.483 155.973 166.215 155.862 166.017 155.665C165.82 155.467 165.709 155.199 165.709 154.92V148.322C165.72 142.613 167.995 137.141 172.035 133.107C176.074 129.073 181.549 126.805 187.258 126.801H386.14C391.852 126.805 397.329 129.075 401.369 133.112C405.409 137.149 407.682 142.625 407.689 148.336V154.934C407.686 155.211 407.573 155.475 407.376 155.67C407.179 155.864 406.913 155.973 406.637 155.973ZM167.829 153.867H405.584V148.322C405.573 143.172 403.52 138.235 399.875 134.596C396.23 130.957 391.291 128.911 386.14 128.907H187.258C182.106 128.911 177.166 130.959 173.524 134.602C169.881 138.245 167.833 143.184 167.829 148.336V153.867Z" fill="#010101"/>
<path d="M286.706 594.955C290.59 594.955 293.739 591.806 293.739 587.922C293.739 584.038 290.59 580.889 286.706 580.889C282.821 580.889 279.672 584.038 279.672 587.922C279.672 591.806 282.821 594.955 286.706 594.955Z" fill="#FAF7F2"/>
<path d="M319.976 138.944H253.434C251.953 138.944 250.753 140.145 250.753 141.626V142.131C250.753 143.612 251.953 144.812 253.434 144.812H319.976C321.457 144.812 322.658 143.612 322.658 142.131V141.626C322.658 140.145 321.457 138.944 319.976 138.944Z" fill="#FAF7F2"/>
<path d="M331.866 518.418H241.529C234.117 518.418 228.108 524.427 228.108 531.839V534.38C228.108 541.792 234.117 547.8 241.529 547.8H331.866C339.278 547.8 345.287 541.792 345.287 534.38V531.839C345.287 524.427 339.278 518.418 331.866 518.418Z" fill="#F8D637"/>
<path d="M331.867 548.853H241.53C237.705 548.831 234.044 547.297 231.345 544.585C228.647 541.874 227.13 538.205 227.127 534.38V531.811C227.13 527.973 228.657 524.294 231.37 521.58C234.084 518.867 237.763 517.341 241.6 517.337H331.938C335.763 517.359 339.424 518.893 342.123 521.605C344.821 524.316 346.337 527.985 346.341 531.811V534.351C346.343 536.254 345.97 538.138 345.244 539.897C344.517 541.655 343.452 543.253 342.108 544.6C340.764 545.947 339.168 547.015 337.411 547.745C335.654 548.475 333.77 548.851 331.867 548.853ZM241.53 519.471C238.251 519.474 235.107 520.779 232.789 523.097C230.47 525.416 229.166 528.56 229.162 531.839V534.38C229.166 537.659 230.47 540.802 232.789 543.121C235.107 545.44 238.251 546.744 241.53 546.747H331.867C335.146 546.744 338.29 545.44 340.609 543.121C342.927 540.802 344.232 537.659 344.235 534.38V531.811C344.232 528.532 342.927 525.388 340.609 523.069C338.29 520.751 335.146 519.446 331.867 519.443L241.53 519.471Z" fill="#010101"/>
<path d="M308.45 534.169H264.931C264.652 534.169 264.384 534.058 264.187 533.861C263.989 533.663 263.878 533.396 263.878 533.116C263.878 532.837 263.989 532.569 264.187 532.372C264.384 532.174 264.652 532.063 264.931 532.063H308.45C308.729 532.063 308.997 532.174 309.195 532.372C309.392 532.569 309.503 532.837 309.503 533.116C309.503 533.396 309.392 533.663 309.195 533.861C308.997 534.058 308.729 534.169 308.45 534.169Z" fill="#010101"/>
<path d="M462.409 378.034H392.133V427.744H462.409V378.034Z" fill="#FAF7F2"/>
<path d="M462.395 428.796H392.133C391.853 428.796 391.586 428.685 391.388 428.488C391.191 428.29 391.08 428.023 391.08 427.743V378.033C391.08 377.754 391.191 377.486 391.388 377.289C391.586 377.091 391.853 376.98 392.133 376.98H462.395C462.674 376.98 462.942 377.091 463.14 377.289C463.337 377.486 463.448 377.754 463.448 378.033V427.743C463.448 428.023 463.337 428.29 463.14 428.488C462.942 428.685 462.674 428.796 462.395 428.796ZM393.186 426.691H461.342V379.086H393.186V426.691Z" fill="#010101"/>
<path d="M437.705 397.21C437.705 394.427 436.599 391.758 434.631 389.79C432.664 387.822 429.994 386.716 427.211 386.716C424.428 386.716 421.759 387.822 419.791 389.79C417.823 391.758 416.718 394.427 416.718 397.21C416.718 404.693 421.098 412.821 427.218 419.04C433.339 412.821 437.719 404.693 437.719 397.21H437.705Z" fill="#0D9CE8"/>
<path d="M427.258 420.107C427.117 420.109 426.978 420.082 426.848 420.029C426.717 419.976 426.599 419.898 426.5 419.798C419.747 412.919 415.704 404.482 415.704 397.224C415.704 394.162 416.921 391.225 419.086 389.06C421.252 386.894 424.189 385.678 427.251 385.678C430.313 385.678 433.25 386.894 435.416 389.06C437.581 391.225 438.798 394.162 438.798 397.224C438.798 404.482 434.769 412.919 428.002 419.798C427.805 419.996 427.537 420.107 427.258 420.107ZM427.258 387.819C424.757 387.822 422.36 388.817 420.591 390.586C418.823 392.354 417.828 394.752 417.824 397.252C417.824 403.696 421.334 411.291 427.258 417.566C433.182 411.235 436.706 403.696 436.706 397.252C436.71 396.009 436.468 394.778 435.995 393.628C435.522 392.479 434.826 391.434 433.949 390.554C433.071 389.673 432.028 388.975 430.88 388.498C429.732 388.022 428.501 387.776 427.258 387.776V387.819Z" fill="#010101"/>
<path d="M427.257 402.166C429.987 402.166 432.199 399.953 432.199 397.224C432.199 394.495 429.987 392.283 427.257 392.283C424.528 392.283 422.316 394.495 422.316 397.224C422.316 399.953 424.528 402.166 427.257 402.166Z" fill="#FAF7F2"/>
<path d="M427.257 403.219C426.072 403.219 424.913 402.867 423.927 402.209C422.941 401.55 422.173 400.614 421.719 399.518C421.266 398.423 421.147 397.218 421.378 396.055C421.609 394.892 422.18 393.824 423.019 392.986C423.857 392.147 424.925 391.576 426.088 391.345C427.251 391.114 428.456 391.233 429.551 391.686C430.647 392.14 431.583 392.908 432.242 393.894C432.9 394.88 433.252 396.039 433.252 397.224C433.248 398.813 432.615 400.336 431.492 401.459C430.369 402.582 428.846 403.215 427.257 403.219ZM427.257 393.392C426.488 393.392 425.736 393.62 425.097 394.047C424.457 394.475 423.959 395.082 423.665 395.792C423.37 396.503 423.293 397.285 423.443 398.039C423.593 398.793 423.964 399.486 424.508 400.03C425.052 400.574 425.744 400.944 426.499 401.094C427.253 401.245 428.035 401.168 428.745 400.873C429.456 400.579 430.063 400.08 430.491 399.441C430.918 398.801 431.146 398.05 431.146 397.281C431.155 396.764 431.062 396.251 430.87 395.771C430.679 395.291 430.394 394.854 430.032 394.485C429.67 394.117 429.238 393.824 428.762 393.624C428.285 393.424 427.774 393.322 427.257 393.322V393.392Z" fill="#010101"/>
<path d="M236.264 423.406H134.288V473.705H236.264V423.406Z" fill="#FAF7F2"/>
<path d="M236.279 474.758H134.29C134.011 474.758 133.743 474.648 133.545 474.45C133.348 474.253 133.237 473.985 133.237 473.706V423.406C133.237 423.127 133.348 422.859 133.545 422.661C133.743 422.464 134.011 422.353 134.29 422.353H236.265C236.544 422.353 236.812 422.464 237.01 422.661C237.207 422.859 237.318 423.127 237.318 423.406V473.706C237.318 473.982 237.209 474.248 237.015 474.445C236.82 474.642 236.556 474.755 236.279 474.758ZM135.357 472.653H235.226V424.459H135.343L135.357 472.653Z" fill="#010101"/>
<path d="M184.337 431.239H186.218C188.865 431.239 191.404 432.291 193.276 434.163C195.148 436.035 196.2 438.573 196.2 441.221V455.554H174.37V441.221C174.37 438.573 175.421 436.035 177.293 434.163C179.165 432.291 181.704 431.239 184.351 431.239H184.337Z" fill="#FAF7F2"/>
<path d="M196.242 456.607H174.37C174.091 456.607 173.823 456.496 173.625 456.298C173.428 456.101 173.317 455.833 173.317 455.554V441.221C173.321 438.295 174.484 435.491 176.553 433.423C178.621 431.354 181.426 430.19 184.351 430.187H186.232C189.159 430.187 191.965 431.349 194.035 433.418C196.104 435.488 197.266 438.294 197.266 441.221V455.554C197.267 455.828 197.159 456.092 196.968 456.289C196.777 456.485 196.516 456.6 196.242 456.607ZM175.465 454.501H195.189V441.221C195.189 440.048 194.958 438.887 194.509 437.804C194.06 436.721 193.403 435.736 192.574 434.907C191.745 434.078 190.76 433.421 189.677 432.972C188.594 432.523 187.433 432.292 186.26 432.292H184.379C182.011 432.292 179.74 433.233 178.066 434.907C176.391 436.582 175.451 438.853 175.451 441.221L175.465 454.501Z" fill="#010101"/>
<path d="M171.94 445.235H198.613V460.916C198.613 462.231 198.091 463.491 197.162 464.42C196.232 465.35 194.972 465.872 193.658 465.872H176.896C175.581 465.872 174.321 465.35 173.392 464.42C172.462 463.491 171.94 462.231 171.94 460.916V445.235Z" fill="#FF577F"/>
<path d="M193.672 466.925H176.896C175.303 466.921 173.777 466.287 172.651 465.161C171.525 464.035 170.891 462.509 170.887 460.916V445.235C170.887 444.956 170.998 444.688 171.196 444.491C171.393 444.294 171.661 444.183 171.94 444.183H198.613C198.892 444.183 199.16 444.294 199.358 444.491C199.555 444.688 199.666 444.956 199.666 445.235V460.916C199.662 462.506 199.03 464.03 197.907 465.156C196.784 466.282 195.262 466.917 193.672 466.925ZM172.993 446.288V460.916C172.997 461.95 173.409 462.941 174.14 463.672C174.871 464.403 175.862 464.815 176.896 464.819H193.672C194.189 464.827 194.704 464.731 195.184 464.539C195.665 464.346 196.103 464.06 196.473 463.697C196.842 463.334 197.136 462.901 197.337 462.424C197.538 461.947 197.643 461.434 197.644 460.916V446.288H172.993Z" fill="#010101"/>
<path d="M188.859 453.968C188.861 453.335 188.695 452.713 188.379 452.165C188.063 451.617 187.607 451.163 187.058 450.848C186.509 450.534 185.886 450.371 185.254 450.375C184.621 450.38 184.001 450.552 183.456 450.874C182.912 451.196 182.462 451.656 182.154 452.209C181.845 452.761 181.688 453.385 181.7 454.018C181.711 454.651 181.889 455.269 182.217 455.81C182.545 456.351 183.01 456.796 183.566 457.098V458.586C183.566 459.041 183.747 459.476 184.068 459.797C184.389 460.119 184.825 460.299 185.279 460.299C185.733 460.299 186.169 460.119 186.49 459.797C186.811 459.476 186.991 459.041 186.991 458.586V457.098C187.555 456.793 188.027 456.341 188.355 455.79C188.684 455.239 188.858 454.609 188.859 453.968Z" fill="#010101"/>
<path d="M278.452 403.935H224.994C224.715 403.935 224.447 403.824 224.25 403.626C224.052 403.429 223.941 403.161 223.941 402.882C223.941 402.603 224.052 402.335 224.25 402.137C224.447 401.94 224.715 401.829 224.994 401.829H278.452C278.732 401.829 278.999 401.94 279.197 402.137C279.394 402.335 279.505 402.603 279.505 402.882C279.505 403.161 279.394 403.429 279.197 403.626C278.999 403.824 278.732 403.935 278.452 403.935Z" fill="#010101"/>
<path d="M346.455 385.713H224.994C224.715 385.713 224.447 385.602 224.25 385.404C224.052 385.207 223.941 384.939 223.941 384.66C223.941 384.381 224.052 384.113 224.25 383.915C224.447 383.718 224.715 383.607 224.994 383.607H346.455C346.734 383.607 347.002 383.718 347.199 383.915C347.396 384.113 347.507 384.381 347.507 384.66C347.507 384.939 347.396 385.207 347.199 385.404C347.002 385.602 346.734 385.713 346.455 385.713Z" fill="#010101"/>
<path d="M358.133 244.205H350.412V251.926H358.133V244.205Z" fill="#010101"/>
<path d="M358.133 252.979H350.412C350.133 252.979 349.865 252.868 349.668 252.67C349.47 252.473 349.359 252.205 349.359 251.926V244.205C349.359 243.925 349.47 243.658 349.668 243.46C349.865 243.263 350.133 243.152 350.412 243.152H358.133C358.412 243.152 358.68 243.263 358.878 243.46C359.075 243.658 359.186 243.925 359.186 244.205V251.926C359.186 252.205 359.075 252.473 358.878 252.67C358.68 252.868 358.412 252.979 358.133 252.979ZM351.465 250.873H357.08V245.258H351.465V250.873Z" fill="#010101"/>
<path d="M223.855 244.205H216.134V251.926H223.855V244.205Z" fill="#010101"/>
<path d="M223.855 252.979H216.134C215.854 252.979 215.587 252.868 215.389 252.67C215.192 252.473 215.081 252.205 215.081 251.926V244.205C215.081 243.925 215.192 243.658 215.389 243.46C215.587 243.263 215.854 243.152 216.134 243.152H223.855C224.134 243.152 224.402 243.263 224.599 243.46C224.797 243.658 224.908 243.925 224.908 244.205V251.926C224.908 252.205 224.797 252.473 224.599 252.67C224.402 252.868 224.134 252.979 223.855 252.979ZM217.187 250.873H222.802V245.258H217.187V250.873Z" fill="#010101"/>
<path d="M358.133 351.656H350.412V359.377H358.133V351.656Z" fill="#010101"/>
<path d="M358.133 360.429H350.412C350.133 360.429 349.865 360.318 349.668 360.121C349.47 359.924 349.359 359.656 349.359 359.377V351.655C349.359 351.376 349.47 351.108 349.668 350.911C349.865 350.713 350.133 350.603 350.412 350.603H358.133C358.412 350.603 358.68 350.713 358.878 350.911C359.075 351.108 359.186 351.376 359.186 351.655V359.377C359.186 359.656 359.075 359.924 358.878 360.121C358.68 360.318 358.412 360.429 358.133 360.429ZM351.465 358.324H357.08V352.708H351.465V358.324Z" fill="#010101"/>
<path d="M223.855 351.656H216.134V359.377H223.855V351.656Z" fill="#010101"/>
<path d="M223.855 360.429H216.134C215.854 360.429 215.587 360.318 215.389 360.121C215.192 359.924 215.081 359.656 215.081 359.377V351.655C215.081 351.376 215.192 351.108 215.389 350.911C215.587 350.713 215.854 350.603 216.134 350.603H223.855C224.134 350.603 224.402 350.713 224.599 350.911C224.797 351.108 224.908 351.376 224.908 351.655V359.377C224.908 359.656 224.797 359.924 224.599 360.121C224.402 360.318 224.134 360.429 223.855 360.429ZM217.187 358.324H222.802V352.708H217.187V358.324Z" fill="#010101"/>
<path d="M318.672 260.04H294.722V283.99H318.672V260.04Z" fill="#F8D637"/>
<path d="M318.672 285.043H294.722C294.443 285.043 294.175 284.932 293.978 284.734C293.78 284.537 293.669 284.269 293.669 283.99V260.04C293.669 259.761 293.78 259.493 293.978 259.296C294.175 259.098 294.443 258.987 294.722 258.987H318.672C318.951 258.987 319.219 259.098 319.416 259.296C319.614 259.493 319.725 259.761 319.725 260.04V283.99C319.725 284.269 319.614 284.537 319.416 284.734C319.219 284.932 318.951 285.043 318.672 285.043ZM295.775 282.937H317.619V261.093H295.775V282.937Z" fill="#010101"/>
<path d="M297.557 310.368H244.703L271.137 255.421L297.557 310.368Z" fill="#0D9CE8"/>
<path d="M297.558 311.406H244.704C244.524 311.408 244.347 311.364 244.19 311.277C244.032 311.191 243.899 311.066 243.803 310.914C243.708 310.763 243.653 310.589 243.643 310.409C243.634 310.23 243.67 310.051 243.749 309.89L270.183 254.944C270.28 254.778 270.418 254.64 270.584 254.544C270.75 254.448 270.939 254.397 271.131 254.397C271.323 254.397 271.512 254.448 271.678 254.544C271.844 254.64 271.982 254.778 272.079 254.944L298.513 309.89C298.592 310.051 298.628 310.23 298.619 310.409C298.609 310.589 298.554 310.763 298.458 310.914C298.363 311.066 298.23 311.191 298.072 311.277C297.915 311.364 297.738 311.408 297.558 311.406ZM246.374 309.301H295.916L271.166 257.836L246.374 309.301Z" fill="#010101"/>
<path d="M448.541 165.364L443.248 179.375L445.663 193.399L422.022 176.806L448.541 165.364Z" fill="#FAF7F2"/>
<path d="M445.664 194.453C445.447 194.451 445.236 194.382 445.06 194.256L421.419 177.663C421.267 177.555 421.145 177.409 421.068 177.239C420.99 177.07 420.959 176.882 420.978 176.697C420.996 176.511 421.064 176.334 421.173 176.183C421.283 176.032 421.431 175.913 421.602 175.838L448.12 164.396C448.317 164.302 448.538 164.272 448.752 164.309C448.967 164.345 449.165 164.448 449.319 164.602C449.473 164.756 449.575 164.954 449.612 165.168C449.649 165.383 449.618 165.604 449.524 165.8L444.33 179.445L446.689 193.175C446.715 193.327 446.708 193.482 446.668 193.631C446.628 193.779 446.556 193.917 446.457 194.035C446.358 194.153 446.235 194.248 446.095 194.312C445.956 194.377 445.804 194.411 445.65 194.41L445.664 194.453ZM424.171 177.031L444.19 191.069L442.21 179.558C442.162 179.378 442.162 179.19 442.21 179.01L446.618 167.316L424.171 177.031Z" fill="#010101"/>
<path d="M452.893 179.445C452.613 179.445 452.346 179.334 452.148 179.137C451.951 178.94 451.84 178.672 451.84 178.392C451.84 178.113 451.951 177.845 452.148 177.648C452.346 177.45 452.613 177.34 452.893 177.34C456.669 177.227 460.459 177.213 464.123 177.34C464.403 177.34 464.671 177.45 464.868 177.648C465.065 177.845 465.176 178.113 465.176 178.392C465.176 178.672 465.065 178.94 464.868 179.137C464.671 179.334 464.403 179.445 464.123 179.445C460.445 179.445 456.683 179.445 452.893 179.445Z" fill="#010101"/>
<path d="M412.573 360.429C412.331 360.427 412.097 360.343 411.91 360.189C411.723 360.035 411.594 359.821 411.547 359.584C411.499 359.346 411.534 359.1 411.647 358.885C411.76 358.671 411.943 358.502 412.166 358.407C518.226 313.779 563.599 279.792 568.793 241.242C570.197 230.615 567.221 220.746 559.879 211.916C544.703 193.666 511.811 181.579 471.9 179.628C471.761 179.621 471.626 179.586 471.501 179.526C471.376 179.467 471.264 179.383 471.171 179.28C471.079 179.177 471.007 179.057 470.961 178.926C470.915 178.795 470.895 178.657 470.903 178.519C470.908 178.38 470.941 178.243 471 178.117C471.06 177.991 471.143 177.879 471.247 177.786C471.35 177.693 471.471 177.622 471.603 177.576C471.734 177.531 471.873 177.512 472.012 177.522C512.499 179.529 545.966 191.897 561.507 210.597C569.242 219.904 572.401 230.25 570.885 241.481C565.578 280.929 519.827 315.351 412.98 360.302C412.855 360.372 412.716 360.415 412.573 360.429Z" fill="#010101"/>
<path d="M443.19 180.428L421.964 177.859C421.687 177.826 421.434 177.683 421.262 177.463C421.089 177.244 421.011 176.964 421.045 176.687C421.078 176.41 421.221 176.157 421.44 175.984C421.66 175.812 421.94 175.734 422.217 175.767L443.317 178.336C443.575 178.378 443.808 178.514 443.972 178.717C444.135 178.921 444.217 179.179 444.201 179.44C444.185 179.7 444.073 179.946 443.886 180.129C443.7 180.311 443.451 180.418 443.19 180.428Z" fill="#010101"/>
<path d="M206.321 678.751C202.166 678.751 197.852 678.643 193.378 678.428C152.667 676.449 112.741 664.937 80.8319 646.013C50.0456 627.763 31.2341 604.937 29.2126 583.388C27.2753 562.709 38.6464 543.701 63.0172 526.883C87.3879 510.065 118.694 499.522 140.706 493.626C140.839 493.59 140.979 493.581 141.116 493.599C141.253 493.617 141.386 493.661 141.506 493.731C141.626 493.8 141.731 493.892 141.815 494.001C141.899 494.111 141.961 494.236 141.997 494.37C142.033 494.504 142.043 494.643 142.025 494.78C142.007 494.918 141.962 495.05 141.893 495.17C141.824 495.29 141.732 495.395 141.622 495.479C141.512 495.564 141.387 495.626 141.253 495.662C119.395 501.516 88.2863 511.974 64.2104 528.596C40.5135 544.951 29.4512 563.313 31.3043 583.177C33.2557 604.052 51.7022 626.289 81.8427 644.188C113.457 662.944 153.088 674.343 193.42 676.308C232.096 678.189 258.867 671.886 273.004 657.553C282.606 647.824 286.72 634.291 285.639 616.167C285.629 616.029 285.647 615.89 285.691 615.759C285.736 615.628 285.805 615.506 285.897 615.402C285.988 615.297 286.099 615.212 286.223 615.151C286.348 615.089 286.483 615.053 286.621 615.044C286.897 615.033 287.167 615.129 287.374 615.312C287.581 615.495 287.709 615.752 287.73 616.027C288.896 634.782 284.586 648.849 274.548 659.027C261.647 672.195 238.722 678.751 206.321 678.751Z" fill="#010101"/>
<path d="M148.259 493.837C147.999 493.839 147.748 493.746 147.553 493.576C147.358 493.405 147.233 493.168 147.202 492.911C147.171 492.654 147.235 492.394 147.384 492.181C147.532 491.969 147.754 491.818 148.006 491.759C150.814 491.057 153.72 490.355 156.555 489.765C156.817 489.731 157.082 489.796 157.298 489.947C157.514 490.099 157.665 490.326 157.722 490.584C157.778 490.842 157.736 491.111 157.603 491.339C157.47 491.567 157.257 491.737 157.005 491.815C154.197 492.447 151.389 493.107 148.497 493.808L148.259 493.837Z" fill="#010101"/>
<path d="M294.722 341.786C309.12 341.786 320.792 330.115 320.792 315.717C320.792 301.319 309.12 289.647 294.722 289.647C280.325 289.647 268.653 301.319 268.653 315.717C268.653 330.115 280.325 341.786 294.722 341.786Z" fill="#FF577F"/>
<path d="M294.722 342.839C289.358 342.839 284.114 341.248 279.654 338.268C275.194 335.288 271.717 331.052 269.665 326.096C267.612 321.14 267.075 315.686 268.121 310.425C269.168 305.164 271.751 300.331 275.544 296.538C279.337 292.745 284.17 290.162 289.431 289.115C294.692 288.069 300.146 288.606 305.102 290.659C310.058 292.712 314.293 296.188 317.274 300.648C320.254 305.108 321.845 310.352 321.845 315.717C321.837 322.907 318.977 329.802 313.892 334.887C308.808 339.971 301.913 342.831 294.722 342.839ZM294.722 290.7C289.776 290.708 284.944 292.183 280.835 294.937C276.727 297.69 273.527 301.6 271.64 306.172C269.753 310.744 269.264 315.773 270.234 320.623C271.204 325.473 273.59 329.926 277.09 333.421C280.59 336.915 285.048 339.293 289.899 340.255C294.751 341.217 299.779 340.719 304.348 338.825C308.916 336.93 312.821 333.724 315.568 329.611C318.315 325.498 319.781 320.663 319.781 315.717C319.77 309.079 317.124 302.718 312.426 298.03C307.727 293.342 301.36 290.71 294.722 290.714V290.7Z" fill="#010101"/>
</svg>
