<svg width="600" height="644" viewBox="0 0 600 644" fill="none" xmlns="http://www.w3.org/2000/svg">
<rect width="600" height="644" fill="#303030"/>
<path d="M151.967 437.445C153.876 435.398 153.764 432.191 151.717 430.282C149.67 428.374 146.463 428.486 144.554 430.533C142.645 432.58 142.757 435.786 144.804 437.695C146.851 439.604 150.058 439.492 151.967 437.445Z" fill="#FF577F"/>
<path d="M134.29 266.818C138.252 266.818 141.463 263.607 141.463 259.645C141.463 255.683 138.252 252.471 134.29 252.471C130.328 252.471 127.116 255.683 127.116 259.645C127.116 263.607 130.328 266.818 134.29 266.818Z" fill="#FF577F"/>
<path d="M429.868 63.373C435.218 63.373 439.555 59.0362 439.555 53.6865C439.555 48.3368 435.218 44 429.868 44C424.518 44 420.182 48.3368 420.182 53.6865C420.182 59.0362 424.518 63.373 429.868 63.373Z" fill="#F8D637"/>
<path d="M486.999 142.138L495.137 150.961L503.96 142.822L495.822 134L486.999 142.138Z" fill="#FF577F"/>
<path d="M121.977 316.533L113.546 323.276L120.288 331.707L128.719 324.964L121.977 316.533Z" fill="#F8D637"/>
<path d="M447.066 209.228L455.227 202.161L448.16 194L439.999 201.067L447.066 209.228Z" fill="#F8D637"/>
<path d="M78.7968 509.939L89.4863 495.846L75.3932 485.156L64.7037 499.249L78.7968 509.939Z" fill="#F8D637"/>
<path d="M471.151 390.352C476.749 389.96 480.969 385.105 480.577 379.507C480.186 373.909 475.33 369.689 469.732 370.081C464.134 370.472 459.914 375.328 460.306 380.926C460.698 386.524 465.553 390.744 471.151 390.352Z" fill="#FF577F"/>
<path d="M510.504 79.2134L504.65 67L496.999 78.1605L510.504 79.2134Z" fill="#0D9CE8"/>
<path d="M445.17 441.766L429.531 437.315L433.504 453.095L445.17 441.766Z" fill="#0D9CE8"/>
<path d="M91.7959 411.428L90.4763 395.228L77.0977 404.479L91.7959 411.428Z" fill="#0D9CE8"/>
<path d="M406.636 70.3219V504.896C406.636 510.332 404.476 515.545 400.632 519.389C396.789 523.232 391.575 525.392 386.139 525.392H187.257C184.565 525.394 181.899 524.865 179.411 523.835C176.924 522.806 174.664 521.296 172.76 519.393C170.856 517.489 169.347 515.229 168.317 512.741C167.288 510.254 166.759 507.588 166.761 504.896V70.3219C166.761 64.8897 168.919 59.68 172.76 55.8389C176.601 51.9978 181.811 49.8398 187.243 49.8398H386.139C388.83 49.838 391.495 50.3664 393.982 51.3949C396.469 52.4234 398.728 53.9318 400.632 55.8339C402.535 57.7361 404.045 59.9946 405.075 62.4805C406.105 64.9664 406.636 67.631 406.636 70.3219Z" fill="#FAF7F2"/>
<path d="M386.139 526.445H187.256C181.545 526.437 176.069 524.164 172.032 520.124C167.995 516.084 165.725 510.607 165.721 504.896V70.3222C165.732 64.6155 168.005 59.1459 172.042 55.1119C176.078 51.078 181.549 48.8087 187.256 48.8013H386.139C391.85 48.805 397.327 51.0746 401.367 55.112C405.407 59.1493 407.68 64.6246 407.688 70.3362V504.896C407.68 510.609 405.408 516.086 401.368 520.125C397.328 524.165 391.852 526.437 386.139 526.445ZM187.256 50.907C182.104 50.9108 177.165 52.9589 173.522 56.6018C169.879 60.2447 167.831 65.1844 167.827 70.3362V504.896C167.831 510.049 169.878 514.99 173.521 518.635C177.163 522.28 182.103 524.332 187.256 524.339H386.139C391.293 524.332 396.234 522.281 399.879 518.636C403.524 514.991 405.574 510.05 405.582 504.896V70.3222C405.571 65.1715 403.518 60.2354 399.873 56.596C396.228 52.9565 391.289 50.9107 386.139 50.907H187.256Z" fill="#010101"/>
<path d="M354.482 169.84H219.783V277.754H354.482V169.84Z" fill="#FAF7F2"/>
<path d="M354.482 278.793H219.713C219.434 278.793 219.166 278.682 218.969 278.484C218.772 278.287 218.661 278.019 218.661 277.74V169.84C218.661 169.561 218.772 169.293 218.969 169.096C219.166 168.899 219.434 168.788 219.713 168.788H354.482C354.762 168.788 355.029 168.899 355.227 169.096C355.424 169.293 355.535 169.561 355.535 169.84V277.754C355.532 278.031 355.419 278.295 355.222 278.489C355.025 278.684 354.759 278.793 354.482 278.793ZM220.837 276.687H353.472V170.893H220.837V276.687Z" fill="#010101"/>
<path d="M368.576 104.702H204.818V132.976H368.576V104.702Z" fill="#FAF7F2"/>
<path d="M368.576 134.029H204.818C204.539 134.029 204.271 133.918 204.073 133.72C203.876 133.523 203.765 133.255 203.765 132.976V104.702C203.765 104.423 203.876 104.155 204.073 103.958C204.271 103.76 204.539 103.649 204.818 103.649H368.576C368.855 103.649 369.123 103.76 369.321 103.958C369.518 104.155 369.629 104.423 369.629 104.702V132.976C369.629 133.114 369.602 133.251 369.549 133.379C369.496 133.506 369.418 133.622 369.321 133.72C369.223 133.818 369.107 133.896 368.979 133.948C368.851 134.001 368.714 134.029 368.576 134.029ZM205.871 131.923H367.509V105.755H205.871V131.923Z" fill="#010101"/>
<path d="M406.636 494.452V504.897C406.636 510.333 404.476 515.546 400.632 519.39C396.789 523.233 391.575 525.393 386.139 525.393H187.257C184.565 525.395 181.899 524.866 179.411 523.836C176.924 522.807 174.664 521.297 172.76 519.394C170.856 517.49 169.347 515.23 168.317 512.742C167.288 510.255 166.759 507.589 166.761 504.897V494.452H406.636Z" fill="#010101"/>
<path d="M386.139 526.446H187.256C181.545 526.438 176.069 524.165 172.032 520.125C167.995 516.085 165.725 510.608 165.721 504.897V494.452C165.721 494.173 165.832 493.905 166.03 493.708C166.227 493.51 166.495 493.399 166.774 493.399H406.635C406.914 493.399 407.182 493.51 407.379 493.708C407.577 493.905 407.688 494.173 407.688 494.452V504.897C407.68 510.61 405.408 516.086 401.368 520.126C397.328 524.165 391.852 526.438 386.139 526.446ZM167.827 495.561V504.953C167.831 510.106 169.878 515.047 173.521 518.692C177.163 522.337 182.103 524.389 187.256 524.396H386.139C391.293 524.389 396.234 522.338 399.879 518.693C403.524 515.048 405.574 510.107 405.582 504.953V495.505L167.827 495.561Z" fill="#010101"/>
<path d="M236.237 234.937L222.353 272.841C216.737 272.307 209.016 273.978 202.278 277.179C200.536 277.998 198.852 278.936 197.238 279.986L184.407 266.748C185.707 265.419 186.926 264.013 188.057 262.537C192.217 257.133 194.876 250.726 195.764 243.964L236.237 234.937Z" fill="#F8D637"/>
<path d="M197.237 281.138C197.095 281.138 196.955 281.109 196.825 281.053C196.695 280.998 196.577 280.917 196.479 280.815L183.605 267.562C183.433 267.369 183.337 267.119 183.337 266.861C183.337 266.602 183.433 266.352 183.605 266.159C184.884 264.829 186.079 263.423 187.185 261.947C191.24 256.699 193.832 250.469 194.696 243.894C194.722 243.678 194.815 243.476 194.961 243.315C195.106 243.155 195.298 243.043 195.51 242.995L235.983 233.926C236.169 233.883 236.364 233.891 236.546 233.95C236.728 234.009 236.89 234.116 237.016 234.261C237.141 234.405 237.225 234.581 237.259 234.769C237.292 234.958 237.273 235.152 237.204 235.33L223.32 273.234C223.242 273.456 223.092 273.644 222.893 273.769C222.694 273.894 222.459 273.948 222.225 273.922C216.792 273.402 209.31 275.031 202.698 278.133C200.998 278.956 199.356 279.894 197.784 280.941C197.624 281.057 197.434 281.125 197.237 281.138ZM185.866 266.832L197.391 278.723C198.818 277.831 200.295 277.02 201.813 276.294C207.977 273.263 214.767 271.724 221.635 271.802L234.593 236.397L196.689 244.82C195.681 251.5 192.99 257.815 188.87 263.168C187.929 264.474 186.918 265.695 185.866 266.818V266.832Z" fill="#010101"/>
<path d="M184.547 258.945L177.322 265.954L197.184 286.429L204.409 279.42L184.547 258.945Z" fill="#0D9CE8"/>
<path d="M197.197 287.511C197.055 287.511 196.915 287.482 196.785 287.427C196.655 287.371 196.537 287.29 196.439 287.188L176.588 266.72C176.391 266.523 176.281 266.255 176.281 265.976C176.281 265.697 176.391 265.43 176.588 265.232L183.818 258.213C184.016 258.016 184.283 257.905 184.562 257.905C184.841 257.905 185.109 258.016 185.306 258.213L205.171 278.681C205.368 278.878 205.479 279.146 205.479 279.425C205.479 279.704 205.368 279.972 205.171 280.169L197.941 287.188C197.844 287.289 197.729 287.369 197.601 287.424C197.474 287.48 197.336 287.509 197.197 287.511ZM178.821 266.004L197.211 284.97L202.925 279.425L184.534 260.459L178.821 266.004Z" fill="#010101"/>
<path d="M148.777 324.442L192.679 281.854L181.829 270.669L137.927 313.258L148.777 324.442Z" fill="#0D9CE8"/>
<path d="M148.778 325.457C148.636 325.457 148.496 325.429 148.366 325.373C148.236 325.318 148.118 325.236 148.02 325.134L137.168 313.904C136.971 313.706 136.86 313.439 136.86 313.16C136.86 312.881 136.971 312.613 137.168 312.416L181.108 269.907C181.306 269.71 181.573 269.599 181.852 269.599C182.131 269.599 182.399 269.71 182.596 269.907L193.448 281.138C193.645 281.335 193.756 281.603 193.756 281.882C193.756 282.161 193.645 282.429 193.448 282.626L149.536 325.219C149.324 325.394 149.052 325.48 148.778 325.457ZM139.414 313.244L148.806 322.916L191.202 281.798L181.81 272.125L139.414 313.244Z" fill="#010101"/>
<path d="M209.199 260.698C208.988 260.698 208.781 260.634 208.606 260.515C208.431 260.396 208.296 260.226 208.219 260.029C208.142 259.832 208.125 259.617 208.173 259.41C208.22 259.204 208.328 259.017 208.483 258.873L235.549 234.179C235.76 234.021 236.021 233.948 236.283 233.973C236.545 233.999 236.788 234.121 236.964 234.316C237.14 234.512 237.236 234.766 237.234 235.029C237.232 235.292 237.132 235.545 236.953 235.737L209.873 260.431C209.687 260.597 209.448 260.691 209.199 260.698Z" fill="#010101"/>
<path d="M212.879 263.423C214.983 261.382 215.034 258.022 212.993 255.919C210.953 253.815 207.593 253.764 205.489 255.805C203.386 257.846 203.335 261.205 205.376 263.309C207.416 265.412 210.776 265.463 212.879 263.423Z" fill="#FAF7F2"/>
<path d="M209.198 266.004C207.726 266.002 206.301 265.487 205.166 264.549C204.032 263.611 203.259 262.307 202.98 260.862C202.701 259.416 202.933 257.919 203.637 256.626C204.341 255.333 205.472 254.325 206.837 253.774C208.203 253.224 209.717 253.165 211.121 253.608C212.525 254.052 213.731 254.969 214.532 256.204C215.334 257.439 215.681 258.914 215.515 260.376C215.348 261.839 214.679 263.198 213.62 264.222C212.435 265.369 210.848 266.009 209.198 266.004ZM209.198 255.405C208.072 255.405 206.992 255.853 206.195 256.649C205.399 257.446 204.951 258.526 204.951 259.652C204.951 260.778 205.399 261.858 206.195 262.655C206.992 263.451 208.072 263.899 209.198 263.899C210.32 263.901 211.399 263.474 212.216 262.705C212.839 262.128 213.273 261.376 213.46 260.548C213.648 259.72 213.581 258.855 213.269 258.066C212.956 257.276 212.412 256.6 211.708 256.125C211.004 255.651 210.173 255.4 209.324 255.405H209.198Z" fill="#010101"/>
<path d="M429.869 416.159H422.85C422.57 416.159 422.303 416.049 422.105 415.851C421.908 415.654 421.797 415.386 421.797 415.107C421.797 414.827 421.908 414.56 422.105 414.362C422.303 414.165 422.57 414.054 422.85 414.054H428.816V408.888C428.816 408.608 428.927 408.341 429.124 408.143C429.322 407.946 429.59 407.835 429.869 407.835C430.148 407.835 430.416 407.946 430.613 408.143C430.811 408.341 430.922 408.608 430.922 408.888V415.121C430.918 415.397 430.805 415.662 430.608 415.856C430.411 416.05 430.146 416.159 429.869 416.159ZM415.83 416.159H408.811C408.532 416.159 408.264 416.049 408.067 415.851C407.869 415.654 407.758 415.386 407.758 415.107C407.758 414.827 407.869 414.56 408.067 414.362C408.264 414.165 408.532 414.054 408.811 414.054H415.83C416.11 414.054 416.377 414.165 416.575 414.362C416.772 414.56 416.883 414.827 416.883 415.107C416.883 415.386 416.772 415.654 416.575 415.851C416.377 416.049 416.11 416.159 415.83 416.159ZM401.792 416.159H394.773C394.494 416.159 394.226 416.049 394.028 415.851C393.831 415.654 393.72 415.386 393.72 415.107C393.72 414.827 393.831 414.56 394.028 414.362C394.226 414.165 394.494 414.054 394.773 414.054H401.792C402.071 414.054 402.339 414.165 402.536 414.362C402.734 414.56 402.845 414.827 402.845 415.107C402.845 415.386 402.734 415.654 402.536 415.851C402.339 416.049 402.071 416.159 401.792 416.159ZM387.754 416.159H380.734C380.455 416.159 380.187 416.049 379.99 415.851C379.792 415.654 379.681 415.386 379.681 415.107C379.681 414.827 379.792 414.56 379.99 414.362C380.187 414.165 380.455 414.054 380.734 414.054H387.754C388.033 414.054 388.301 414.165 388.498 414.362C388.695 414.56 388.806 414.827 388.806 415.107C388.806 415.386 388.695 415.654 388.498 415.851C388.301 416.049 388.033 416.159 387.754 416.159ZM373.715 416.159H366.696C366.417 416.159 366.149 416.049 365.951 415.851C365.754 415.654 365.643 415.386 365.643 415.107C365.643 414.827 365.754 414.56 365.951 414.362C366.149 414.165 366.417 414.054 366.696 414.054H373.715C373.994 414.054 374.262 414.165 374.46 414.362C374.657 414.56 374.768 414.827 374.768 415.107C374.768 415.386 374.657 415.654 374.46 415.851C374.262 416.049 373.994 416.159 373.715 416.159ZM359.677 416.159H352.657C352.378 416.159 352.11 416.049 351.913 415.851C351.716 415.654 351.605 415.386 351.605 415.107C351.605 414.827 351.716 414.56 351.913 414.362C352.11 414.165 352.378 414.054 352.657 414.054H359.677C359.956 414.054 360.224 414.165 360.421 414.362C360.619 414.56 360.73 414.827 360.73 415.107C360.73 415.386 360.619 415.654 360.421 415.851C360.224 416.049 359.956 416.159 359.677 416.159ZM345.638 416.159H338.619C338.34 416.159 338.072 416.049 337.875 415.851C337.677 415.654 337.566 415.386 337.566 415.107C337.566 414.827 337.677 414.56 337.875 414.362C338.072 414.165 338.34 414.054 338.619 414.054H345.638C345.917 414.054 346.185 414.165 346.383 414.362C346.58 414.56 346.691 414.827 346.691 415.107C346.691 415.386 346.58 415.654 346.383 415.851C346.185 416.049 345.917 416.159 345.638 416.159ZM331.6 416.159H324.581C324.301 416.159 324.034 416.049 323.836 415.851C323.639 415.654 323.528 415.386 323.528 415.107C323.528 414.827 323.639 414.56 323.836 414.362C324.034 414.165 324.301 414.054 324.581 414.054H331.6C331.879 414.054 332.147 414.165 332.344 414.362C332.542 414.56 332.653 414.827 332.653 415.107C332.653 415.386 332.542 415.654 332.344 415.851C332.147 416.049 331.879 416.159 331.6 416.159ZM317.561 416.159H310.542C310.263 416.159 309.995 416.049 309.798 415.851C309.6 415.654 309.489 415.386 309.489 415.107C309.489 414.827 309.6 414.56 309.798 414.362C309.995 414.165 310.263 414.054 310.542 414.054H317.561C317.841 414.054 318.108 414.165 318.306 414.362C318.503 414.56 318.614 414.827 318.614 415.107C318.614 415.386 318.503 415.654 318.306 415.851C318.108 416.049 317.841 416.159 317.561 416.159ZM303.523 416.159H300.126C299.846 416.159 299.579 416.049 299.381 415.851C299.184 415.654 299.073 415.386 299.073 415.107V411.443C299.073 411.163 299.184 410.896 299.381 410.698C299.579 410.501 299.846 410.39 300.126 410.39C300.405 410.39 300.673 410.501 300.87 410.698C301.068 410.896 301.179 411.163 301.179 411.443V414.054H303.481C303.76 414.054 304.028 414.165 304.225 414.362C304.423 414.56 304.534 414.827 304.534 415.107C304.534 415.386 304.423 415.654 304.225 415.851C304.028 416.049 303.76 416.159 303.481 416.159H303.523ZM300.126 405.49C299.846 405.49 299.579 405.379 299.381 405.182C299.184 404.984 299.073 404.717 299.073 404.437V397.418C299.073 397.139 299.184 396.871 299.381 396.674C299.579 396.476 299.846 396.365 300.126 396.365C300.405 396.365 300.673 396.476 300.87 396.674C301.068 396.871 301.179 397.139 301.179 397.418V404.437C301.179 404.717 301.068 404.984 300.87 405.182C300.673 405.379 300.405 405.49 300.126 405.49ZM429.827 402.907C429.547 402.907 429.28 402.796 429.082 402.599C428.885 402.401 428.774 402.134 428.774 401.854V394.835C428.774 394.556 428.885 394.288 429.082 394.091C429.28 393.893 429.547 393.782 429.827 393.782C430.106 393.782 430.374 393.893 430.571 394.091C430.769 394.288 430.88 394.556 430.88 394.835V401.854C430.88 402.126 430.775 402.388 430.586 402.584C430.398 402.781 430.141 402.896 429.869 402.907H429.827ZM300.126 391.452C299.846 391.452 299.579 391.341 299.381 391.143C299.184 390.946 299.073 390.678 299.073 390.399V383.38C299.073 383.1 299.184 382.833 299.381 382.635C299.579 382.438 299.846 382.327 300.126 382.327C300.405 382.327 300.673 382.438 300.87 382.635C301.068 382.833 301.179 383.1 301.179 383.38V390.399C301.179 390.678 301.068 390.946 300.87 391.143C300.673 391.341 300.405 391.452 300.126 391.452ZM429.827 388.869C429.547 388.869 429.28 388.758 429.082 388.56C428.885 388.363 428.774 388.095 428.774 387.816V380.797C428.774 380.517 428.885 380.25 429.082 380.052C429.28 379.855 429.547 379.744 429.827 379.744C430.106 379.744 430.374 379.855 430.571 380.052C430.769 380.25 430.88 380.517 430.88 380.797V387.816C430.88 388.088 430.775 388.35 430.586 388.546C430.398 388.742 430.141 388.858 429.869 388.869H429.827ZM300.126 377.413C299.846 377.413 299.579 377.302 299.381 377.105C299.184 376.908 299.073 376.64 299.073 376.361V369.341C299.073 369.062 299.184 368.794 299.381 368.597C299.579 368.399 299.846 368.288 300.126 368.288C300.405 368.288 300.673 368.399 300.87 368.597C301.068 368.794 301.179 369.062 301.179 369.341V376.361C301.179 376.64 301.068 376.908 300.87 377.105C300.673 377.302 300.405 377.413 300.126 377.413ZM429.827 374.83C429.547 374.83 429.28 374.719 429.082 374.522C428.885 374.324 428.774 374.057 428.774 373.777V366.758C428.774 366.479 428.885 366.211 429.082 366.014C429.28 365.816 429.547 365.705 429.827 365.705C430.106 365.705 430.374 365.816 430.571 366.014C430.769 366.211 430.88 366.479 430.88 366.758V373.777C430.88 374.05 430.775 374.311 430.586 374.507C430.398 374.704 430.141 374.819 429.869 374.83H429.827ZM423.341 367.278H416.322C416.042 367.278 415.775 367.167 415.577 366.969C415.38 366.772 415.269 366.504 415.269 366.225C415.269 365.946 415.38 365.678 415.577 365.48C415.775 365.283 416.042 365.172 416.322 365.172H423.341C423.62 365.172 423.888 365.283 424.085 365.48C424.283 365.678 424.394 365.946 424.394 366.225C424.394 366.504 424.283 366.772 424.085 366.969C423.888 367.167 423.62 367.278 423.341 367.278ZM409.303 367.278H402.283C402.004 367.278 401.736 367.167 401.539 366.969C401.341 366.772 401.23 366.504 401.23 366.225C401.23 365.946 401.341 365.678 401.539 365.48C401.736 365.283 402.004 365.172 402.283 365.172H409.303C409.582 365.172 409.85 365.283 410.047 365.48C410.244 365.678 410.355 365.946 410.355 366.225C410.355 366.504 410.244 366.772 410.047 366.969C409.85 367.167 409.582 367.278 409.303 367.278ZM395.264 367.278H388.245C387.966 367.278 387.698 367.167 387.5 366.969C387.303 366.772 387.192 366.504 387.192 366.225C387.192 365.946 387.303 365.678 387.5 365.48C387.698 365.283 387.966 365.172 388.245 365.172H395.264C395.543 365.172 395.811 365.283 396.009 365.48C396.206 365.678 396.317 365.946 396.317 366.225C396.317 366.504 396.206 366.772 396.009 366.969C395.811 367.167 395.543 367.278 395.264 367.278ZM381.226 367.278H374.206C373.927 367.278 373.659 367.167 373.462 366.969C373.265 366.772 373.154 366.504 373.154 366.225C373.154 365.946 373.265 365.678 373.462 365.48C373.659 365.283 373.927 365.172 374.206 365.172H381.226C381.505 365.172 381.773 365.283 381.97 365.48C382.168 365.678 382.279 365.946 382.279 366.225C382.279 366.504 382.168 366.772 381.97 366.969C381.773 367.167 381.505 367.278 381.226 367.278ZM367.187 367.278H360.168C359.889 367.278 359.621 367.167 359.424 366.969C359.226 366.772 359.115 366.504 359.115 366.225C359.115 365.946 359.226 365.678 359.424 365.48C359.621 365.283 359.889 365.172 360.168 365.172H367.187C367.466 365.172 367.734 365.283 367.932 365.48C368.129 365.678 368.24 365.946 368.24 366.225C368.24 366.504 368.129 366.772 367.932 366.969C367.734 367.167 367.466 367.278 367.187 367.278ZM353.149 367.278H346.13C345.85 367.278 345.583 367.167 345.385 366.969C345.188 366.772 345.077 366.504 345.077 366.225C345.077 365.946 345.188 365.678 345.385 365.48C345.583 365.283 345.85 365.172 346.13 365.172H353.149C353.428 365.172 353.696 365.283 353.893 365.48C354.091 365.678 354.202 365.946 354.202 366.225C354.202 366.504 354.091 366.772 353.893 366.969C353.696 367.167 353.428 367.278 353.149 367.278ZM339.11 367.278H332.091C331.812 367.278 331.544 367.167 331.347 366.969C331.149 366.772 331.038 366.504 331.038 366.225C331.038 365.946 331.149 365.678 331.347 365.48C331.544 365.283 331.812 365.172 332.091 365.172H339.11C339.39 365.172 339.657 365.283 339.855 365.48C340.052 365.678 340.163 365.946 340.163 366.225C340.163 366.504 340.052 366.772 339.855 366.969C339.657 367.167 339.39 367.278 339.11 367.278ZM325.072 367.278H318.053C317.773 367.278 317.506 367.167 317.308 366.969C317.111 366.772 317 366.504 317 366.225C317 365.946 317.111 365.678 317.308 365.48C317.506 365.283 317.773 365.172 318.053 365.172H325.072C325.351 365.172 325.619 365.283 325.816 365.48C326.014 365.678 326.125 365.946 326.125 366.225C326.125 366.504 326.014 366.772 325.816 366.969C325.619 367.167 325.351 367.278 325.072 367.278ZM311.033 367.278H304.014C303.735 367.278 303.467 367.167 303.27 366.969C303.072 366.772 302.961 366.504 302.961 366.225C302.961 365.946 303.072 365.678 303.27 365.48C303.467 365.283 303.735 365.172 304.014 365.172H311.033C311.313 365.172 311.581 365.283 311.778 365.48C311.975 365.678 312.086 365.946 312.086 366.225C312.086 366.504 311.975 366.772 311.778 366.969C311.581 367.167 311.313 367.278 311.033 367.278Z" fill="#010101"/>
<path d="M328.075 380.095C327.935 380.094 327.797 380.065 327.668 380.011L317.701 375.799C317.461 375.68 317.276 375.474 317.183 375.223C317.09 374.972 317.096 374.695 317.199 374.449C317.303 374.202 317.497 374.004 317.741 373.895C317.986 373.786 318.262 373.774 318.515 373.862L328.075 377.877L337.635 373.862C337.764 373.798 337.905 373.761 338.049 373.753C338.192 373.745 338.336 373.767 338.471 373.817C338.606 373.867 338.729 373.945 338.833 374.044C338.937 374.144 339.02 374.264 339.075 374.396C339.131 374.529 339.159 374.672 339.157 374.816C339.156 374.96 339.125 375.102 339.066 375.233C339.008 375.365 338.923 375.483 338.817 375.58C338.711 375.677 338.586 375.752 338.45 375.799L328.482 380.011C328.354 380.065 328.215 380.094 328.075 380.095Z" fill="#010101"/>
<path d="M338.029 407.484C337.889 407.484 337.75 407.455 337.621 407.4L328.061 403.385L318.515 407.484C318.262 407.572 317.986 407.56 317.741 407.451C317.497 407.342 317.303 407.144 317.199 406.897C317.096 406.65 317.09 406.374 317.183 406.123C317.276 405.872 317.461 405.666 317.701 405.547L327.668 401.335C327.797 401.281 327.935 401.253 328.075 401.253C328.215 401.253 328.353 401.281 328.482 401.335L338.45 405.547C338.634 405.661 338.778 405.83 338.862 406.03C338.947 406.23 338.967 406.451 338.921 406.664C338.875 406.876 338.765 407.068 338.605 407.215C338.445 407.362 338.244 407.456 338.029 407.484Z" fill="#010101"/>
<path d="M328.077 403.272C327.797 403.272 327.53 403.161 327.332 402.964C327.135 402.766 327.024 402.499 327.024 402.219V379.042C327.024 378.763 327.135 378.495 327.332 378.297C327.53 378.1 327.797 377.989 328.077 377.989C328.356 377.989 328.624 378.1 328.821 378.297C329.019 378.495 329.13 378.763 329.13 379.042V402.276C329.115 402.545 328.998 402.798 328.802 402.984C328.606 403.169 328.346 403.273 328.077 403.272Z" fill="#010101"/>
<path d="M334.73 396.758H321.422C321.143 396.758 320.875 396.647 320.677 396.45C320.48 396.253 320.369 395.985 320.369 395.705C320.369 395.426 320.48 395.158 320.677 394.961C320.875 394.764 321.143 394.653 321.422 394.653H334.73C335.01 394.653 335.277 394.764 335.475 394.961C335.672 395.158 335.783 395.426 335.783 395.705C335.783 395.985 335.672 396.253 335.475 396.45C335.277 396.647 335.01 396.758 334.73 396.758Z" fill="#010101"/>
<path d="M353.077 406.473C354.054 406.473 354.846 405.681 354.846 404.704C354.846 403.727 354.054 402.935 353.077 402.935C352.1 402.935 351.308 403.727 351.308 404.704C351.308 405.681 352.1 406.473 353.077 406.473Z" fill="#010101"/>
<path d="M360.743 406.473C361.72 406.473 362.512 405.681 362.512 404.704C362.512 403.727 361.72 402.935 360.743 402.935C359.766 402.935 358.974 403.727 358.974 404.704C358.974 405.681 359.766 406.473 360.743 406.473Z" fill="#010101"/>
<path d="M368.393 406.473C369.369 406.473 370.161 405.681 370.161 404.704C370.161 403.727 369.369 402.935 368.393 402.935C367.416 402.935 366.624 403.727 366.624 404.704C366.624 405.681 367.416 406.473 368.393 406.473Z" fill="#010101"/>
<path d="M406.636 70.3219V76.92H166.761V70.3219C166.761 64.8897 168.919 59.68 172.76 55.8389C176.601 51.9978 181.811 49.8398 187.243 49.8398H386.139C388.83 49.838 391.495 50.3664 393.982 51.3949C396.469 52.4234 398.728 53.9318 400.632 55.8339C402.535 57.7361 404.045 59.9946 405.075 62.4805C406.105 64.9664 406.636 67.631 406.636 70.3219Z" fill="#010101"/>
<path d="M406.636 77.9731H166.761C166.482 77.9731 166.214 77.8622 166.016 77.6648C165.819 77.4673 165.708 77.1995 165.708 76.9202V70.3222C165.719 64.613 167.994 59.1413 172.034 55.107C176.073 51.0726 181.548 48.805 187.257 48.8013H386.139C391.851 48.805 397.328 51.0746 401.368 55.112C405.408 59.1493 407.681 64.6246 407.688 70.3362V76.9343C407.685 77.2111 407.572 77.4753 407.375 77.6697C407.178 77.8642 406.912 77.9732 406.636 77.9731ZM167.828 75.8674H405.583V70.3222C405.571 65.1715 403.519 60.2354 399.874 56.596C396.229 52.9565 391.29 50.9107 386.139 50.907H187.257C182.105 50.9108 177.165 52.9589 173.523 56.6018C169.88 60.2447 167.831 65.1844 167.828 70.3362V75.8674Z" fill="#010101"/>
<path d="M286.705 516.955C290.589 516.955 293.738 513.806 293.738 509.922C293.738 506.038 290.589 502.889 286.705 502.889C282.82 502.889 279.671 506.038 279.671 509.922C279.671 513.806 282.82 516.955 286.705 516.955Z" fill="#FAF7F2"/>
<path d="M319.976 60.9443H253.433C251.953 60.9443 250.752 62.1448 250.752 63.6257V64.1311C250.752 65.6119 251.953 66.8124 253.433 66.8124H319.976C321.456 66.8124 322.657 65.6119 322.657 64.1311V63.6257C322.657 62.1448 321.456 60.9443 319.976 60.9443Z" fill="#FAF7F2"/>
<path d="M331.865 440.418H241.528C234.116 440.418 228.107 446.427 228.107 453.839V456.38C228.107 463.792 234.116 469.8 241.528 469.8H331.865C339.277 469.8 345.286 463.792 345.286 456.38V453.839C345.286 446.427 339.277 440.418 331.865 440.418Z" fill="#F8D637"/>
<path d="M331.866 470.853H241.529C237.704 470.831 234.042 469.297 231.344 466.585C228.646 463.874 227.129 460.205 227.126 456.38V453.811C227.129 449.973 228.655 446.294 231.369 443.58C234.082 440.867 237.762 439.341 241.599 439.337H331.937C335.762 439.359 339.423 440.893 342.122 443.605C344.82 446.316 346.336 449.985 346.34 453.811V456.351C346.342 458.254 345.969 460.138 345.243 461.897C344.516 463.655 343.451 465.253 342.107 466.6C340.763 467.947 339.166 469.015 337.409 469.745C335.652 470.475 333.769 470.851 331.866 470.853ZM241.529 441.471C238.25 441.474 235.106 442.779 232.788 445.097C230.469 447.416 229.165 450.56 229.161 453.839V456.38C229.165 459.659 230.469 462.802 232.788 465.121C235.106 467.439 238.25 468.744 241.529 468.747H331.866C335.145 468.744 338.289 467.439 340.608 465.121C342.926 462.802 344.231 459.659 344.234 456.38V453.811C344.231 450.532 342.926 447.388 340.608 445.069C338.289 442.751 335.145 441.446 331.866 441.443L241.529 441.471Z" fill="#010101"/>
<path d="M308.449 456.169H264.93C264.651 456.169 264.383 456.058 264.186 455.861C263.988 455.663 263.877 455.396 263.877 455.116C263.877 454.837 263.988 454.569 264.186 454.372C264.383 454.174 264.651 454.063 264.93 454.063H308.449C308.729 454.063 308.996 454.174 309.194 454.372C309.391 454.569 309.502 454.837 309.502 455.116C309.502 455.396 309.391 455.663 309.194 455.861C308.996 456.058 308.729 456.169 308.449 456.169Z" fill="#010101"/>
<path d="M462.408 300.033H392.132V349.744H462.408V300.033Z" fill="#FAF7F2"/>
<mask id="path-45-inside-1_35_177" fill="white">
<path d="M430.549 338.984C430.442 338.984 430.442 338.984 430.335 338.984C429.8 338.877 429.372 338.235 429.479 337.701L430.87 331.501H421.132L419.634 338.128C419.527 338.663 418.885 339.09 418.35 338.984C417.815 338.877 417.386 338.235 417.493 337.701L418.885 331.501H414.069C413.427 331.501 412.999 331.074 412.999 330.432C412.999 329.791 413.427 329.363 414.069 329.363H419.313L421.453 319.637H415.46C414.818 319.637 414.39 319.209 414.39 318.568C414.39 317.926 414.818 317.499 415.46 317.499H421.881L423.379 310.872C423.486 310.337 424.128 309.91 424.663 310.016C425.198 310.123 425.626 310.765 425.519 311.299L424.128 317.499H433.866L435.364 310.872C435.471 310.337 436.113 309.91 436.648 310.016C437.184 310.123 437.612 310.765 437.505 311.299L436.113 317.499H440.929C441.571 317.499 441.999 317.926 441.999 318.568C441.999 319.209 441.571 319.637 440.929 319.637H435.685L433.545 329.363H439.538C440.18 329.363 440.608 329.791 440.608 330.432C440.608 331.074 440.18 331.501 439.538 331.501H433.117L431.619 338.128C431.512 338.663 430.977 338.984 430.549 338.984ZM421.56 329.363H431.298L433.438 319.637H423.7L421.56 329.363Z"/>
</mask>
<path d="M430.549 338.984C430.442 338.984 430.442 338.984 430.335 338.984C429.8 338.877 429.372 338.235 429.479 337.701L430.87 331.501H421.132L419.634 338.128C419.527 338.663 418.885 339.09 418.35 338.984C417.815 338.877 417.386 338.235 417.493 337.701L418.885 331.501H414.069C413.427 331.501 412.999 331.074 412.999 330.432C412.999 329.791 413.427 329.363 414.069 329.363H419.313L421.453 319.637H415.46C414.818 319.637 414.39 319.209 414.39 318.568C414.39 317.926 414.818 317.499 415.46 317.499H421.881L423.379 310.872C423.486 310.337 424.128 309.91 424.663 310.016C425.198 310.123 425.626 310.765 425.519 311.299L424.128 317.499H433.866L435.364 310.872C435.471 310.337 436.113 309.91 436.648 310.016C437.184 310.123 437.612 310.765 437.505 311.299L436.113 317.499H440.929C441.571 317.499 441.999 317.926 441.999 318.568C441.999 319.209 441.571 319.637 440.929 319.637H435.685L433.545 329.363H439.538C440.18 329.363 440.608 329.791 440.608 330.432C440.608 331.074 440.18 331.501 439.538 331.501H433.117L431.619 338.128C431.512 338.663 430.977 338.984 430.549 338.984ZM421.56 329.363H431.298L433.438 319.637H423.7L421.56 329.363Z" fill="#0D9CE8"/>
<path d="M430.335 338.984L429.747 341.925L430.038 341.984H430.335V338.984ZM429.479 337.701L426.552 337.044L426.544 337.078L426.537 337.112L429.479 337.701ZM430.87 331.501L433.797 332.158L434.618 328.501H430.87V331.501ZM421.132 331.501V328.501H418.734L418.206 330.84L421.132 331.501ZM419.634 338.128L416.708 337.467L416.699 337.503L416.692 337.539L419.634 338.128ZM417.493 337.701L414.566 337.044L414.559 337.078L414.552 337.112L417.493 337.701ZM418.885 331.501L421.812 332.158L422.632 328.501H418.885V331.501ZM419.313 329.363V332.363H421.724L422.243 330.008L419.313 329.363ZM421.453 319.637L424.383 320.281L425.185 316.637H421.453V319.637ZM421.881 317.499V320.499H424.278L424.807 318.16L421.881 317.499ZM423.379 310.872L426.305 311.533L426.313 311.497L426.321 311.461L423.379 310.872ZM425.519 311.299L428.447 311.956L428.454 311.922L428.461 311.888L425.519 311.299ZM424.128 317.499L421.201 316.842L420.38 320.499H424.128V317.499ZM433.866 317.499V320.499H436.264L436.792 318.16L433.866 317.499ZM435.364 310.872L438.29 311.533L438.299 311.497L438.306 311.461L435.364 310.872ZM437.505 311.299L440.432 311.956L440.439 311.922L440.446 311.888L437.505 311.299ZM436.113 317.499L433.186 316.842L432.366 320.499H436.113V317.499ZM435.685 319.637V316.637H433.274L432.755 318.992L435.685 319.637ZM433.545 329.363L430.615 328.719L429.813 332.363H433.545V329.363ZM433.117 331.501V328.501H430.72L430.191 330.84L433.117 331.501ZM431.619 338.128L428.693 337.467L428.685 337.503L428.677 337.539L431.619 338.128ZM421.56 329.363L418.63 328.719L417.828 332.363H421.56V329.363ZM431.298 329.363V332.363H433.71L434.228 330.008L431.298 329.363ZM433.438 319.637L436.368 320.281L437.17 316.637H433.438V319.637ZM423.7 319.637V316.637H421.288L420.77 318.992L423.7 319.637ZM430.549 335.984C430.549 335.984 430.548 335.984 430.548 335.984C430.548 335.984 430.548 335.984 430.548 335.984C430.547 335.984 430.547 335.984 430.547 335.984C430.547 335.984 430.547 335.984 430.546 335.984C430.546 335.984 430.546 335.984 430.546 335.984C430.546 335.984 430.545 335.984 430.545 335.984C430.545 335.984 430.545 335.984 430.545 335.984C430.544 335.984 430.544 335.984 430.544 335.984C430.544 335.984 430.543 335.984 430.543 335.984C430.543 335.984 430.543 335.984 430.543 335.984C430.542 335.984 430.542 335.984 430.542 335.984C430.542 335.984 430.542 335.984 430.541 335.984C430.541 335.984 430.541 335.984 430.541 335.984C430.541 335.984 430.54 335.984 430.54 335.984C430.54 335.984 430.54 335.984 430.54 335.984C430.54 335.984 430.539 335.984 430.539 335.984C430.539 335.984 430.539 335.984 430.539 335.984C430.538 335.984 430.538 335.984 430.538 335.984C430.538 335.984 430.538 335.984 430.537 335.984C430.537 335.984 430.537 335.984 430.537 335.984C430.537 335.984 430.536 335.984 430.536 335.984C430.536 335.984 430.536 335.984 430.536 335.984C430.535 335.984 430.535 335.984 430.535 335.984C430.535 335.984 430.535 335.984 430.534 335.984C430.534 335.984 430.534 335.984 430.534 335.984C430.534 335.984 430.534 335.984 430.533 335.984C430.533 335.984 430.533 335.984 430.533 335.984C430.533 335.984 430.532 335.984 430.532 335.984C430.532 335.984 430.532 335.984 430.532 335.984C430.531 335.984 430.531 335.984 430.531 335.984C430.531 335.984 430.531 335.984 430.531 335.984C430.53 335.984 430.53 335.984 430.53 335.984C430.53 335.984 430.53 335.984 430.529 335.984C430.529 335.984 430.529 335.984 430.529 335.984C430.529 335.984 430.529 335.984 430.528 335.984C430.528 335.984 430.528 335.984 430.528 335.984C430.528 335.984 430.527 335.984 430.527 335.984C430.527 335.984 430.527 335.984 430.527 335.984C430.527 335.984 430.526 335.984 430.526 335.984C430.526 335.984 430.526 335.984 430.526 335.984C430.525 335.984 430.525 335.984 430.525 335.984C430.525 335.984 430.525 335.984 430.525 335.984C430.524 335.984 430.524 335.984 430.524 335.984C430.524 335.984 430.524 335.984 430.523 335.984C430.523 335.984 430.523 335.984 430.523 335.984C430.523 335.984 430.523 335.984 430.522 335.984C430.522 335.984 430.522 335.984 430.522 335.984C430.522 335.984 430.522 335.984 430.521 335.984C430.521 335.984 430.521 335.984 430.521 335.984C430.521 335.984 430.521 335.984 430.52 335.984C430.52 335.984 430.52 335.984 430.52 335.984C430.52 335.984 430.519 335.984 430.519 335.984C430.519 335.984 430.519 335.984 430.519 335.984C430.519 335.984 430.518 335.984 430.518 335.984C430.518 335.984 430.518 335.984 430.518 335.984C430.518 335.984 430.517 335.984 430.517 335.984C430.517 335.984 430.517 335.984 430.517 335.984C430.517 335.984 430.516 335.984 430.516 335.984C430.516 335.984 430.516 335.984 430.516 335.984C430.516 335.984 430.515 335.984 430.515 335.984C430.515 335.984 430.515 335.984 430.515 335.984C430.515 335.984 430.514 335.984 430.514 335.984C430.514 335.984 430.514 335.984 430.514 335.984C430.514 335.984 430.513 335.984 430.513 335.984C430.513 335.984 430.513 335.984 430.513 335.984C430.513 335.984 430.512 335.984 430.512 335.984C430.512 335.984 430.512 335.984 430.512 335.984C430.512 335.984 430.512 335.984 430.511 335.984C430.511 335.984 430.511 335.984 430.511 335.984C430.511 335.984 430.511 335.984 430.51 335.984C430.51 335.984 430.51 335.984 430.51 335.984C430.51 335.984 430.51 335.984 430.509 335.984C430.509 335.984 430.509 335.984 430.509 335.984C430.509 335.984 430.509 335.984 430.508 335.984C430.508 335.984 430.508 335.984 430.508 335.984C430.508 335.984 430.508 335.984 430.508 335.984C430.507 335.984 430.507 335.984 430.507 335.984C430.507 335.984 430.507 335.984 430.507 335.984C430.506 335.984 430.506 335.984 430.506 335.984C430.506 335.984 430.506 335.984 430.506 335.984C430.506 335.984 430.505 335.984 430.505 335.984C430.505 335.984 430.505 335.984 430.505 335.984C430.505 335.984 430.504 335.984 430.504 335.984C430.504 335.984 430.504 335.984 430.504 335.984C430.504 335.984 430.504 335.984 430.503 335.984C430.503 335.984 430.503 335.984 430.503 335.984C430.503 335.984 430.503 335.984 430.503 335.984C430.502 335.984 430.502 335.984 430.502 335.984C430.502 335.984 430.502 335.984 430.502 335.984C430.501 335.984 430.501 335.984 430.501 335.984C430.501 335.984 430.501 335.984 430.501 335.984C430.501 335.984 430.5 335.984 430.5 335.984C430.5 335.984 430.5 335.984 430.5 335.984C430.5 335.984 430.5 335.984 430.499 335.984C430.499 335.984 430.499 335.984 430.499 335.984C430.499 335.984 430.499 335.984 430.499 335.984C430.498 335.984 430.498 335.984 430.498 335.984C430.498 335.984 430.498 335.984 430.498 335.984C430.498 335.984 430.497 335.984 430.497 335.984C430.497 335.984 430.497 335.984 430.497 335.984C430.497 335.984 430.497 335.984 430.496 335.984C430.496 335.984 430.496 335.984 430.496 335.984C430.496 335.984 430.496 335.984 430.496 335.984C430.495 335.984 430.495 335.984 430.495 335.984C430.495 335.984 430.495 335.984 430.495 335.984C430.495 335.984 430.494 335.984 430.494 335.984C430.494 335.984 430.494 335.984 430.494 335.984C430.494 335.984 430.494 335.984 430.493 335.984C430.493 335.984 430.493 335.984 430.493 335.984C430.493 335.984 430.493 335.984 430.493 335.984C430.492 335.984 430.492 335.984 430.492 335.984C430.492 335.984 430.492 335.984 430.492 335.984C430.492 335.984 430.491 335.984 430.491 335.984C430.491 335.984 430.491 335.984 430.491 335.984C430.491 335.984 430.491 335.984 430.491 335.984C430.49 335.984 430.49 335.984 430.49 335.984C430.49 335.984 430.49 335.984 430.49 335.984C430.49 335.984 430.489 335.984 430.489 335.984C430.489 335.984 430.489 335.984 430.489 335.984C430.489 335.984 430.489 335.984 430.488 335.984C430.488 335.984 430.488 335.984 430.488 335.984C430.488 335.984 430.488 335.984 430.488 335.984C430.488 335.984 430.487 335.984 430.487 335.984C430.487 335.984 430.487 335.984 430.487 335.984C430.487 335.984 430.487 335.984 430.486 335.984C430.486 335.984 430.486 335.984 430.486 335.984C430.486 335.984 430.486 335.984 430.486 335.984C430.486 335.984 430.485 335.984 430.485 335.984C430.485 335.984 430.485 335.984 430.485 335.984C430.485 335.984 430.485 335.984 430.485 335.984C430.484 335.984 430.484 335.984 430.484 335.984C430.484 335.984 430.484 335.984 430.484 335.984C430.484 335.984 430.483 335.984 430.483 335.984C430.483 335.984 430.483 335.984 430.483 335.984C430.483 335.984 430.483 335.984 430.483 335.984C430.482 335.984 430.482 335.984 430.482 335.984C430.482 335.984 430.482 335.984 430.482 335.984C430.482 335.984 430.482 335.984 430.481 335.984C430.481 335.984 430.481 335.984 430.481 335.984C430.481 335.984 430.481 335.984 430.481 335.984C430.481 335.984 430.48 335.984 430.48 335.984C430.48 335.984 430.48 335.984 430.48 335.984C430.48 335.984 430.48 335.984 430.48 335.984C430.479 335.984 430.479 335.984 430.479 335.984C430.479 335.984 430.479 335.984 430.479 335.984C430.479 335.984 430.479 335.984 430.478 335.984C430.478 335.984 430.478 335.984 430.478 335.984C430.478 335.984 430.478 335.984 430.478 335.984C430.478 335.984 430.477 335.984 430.477 335.984C430.477 335.984 430.477 335.984 430.477 335.984C430.477 335.984 430.477 335.984 430.477 335.984C430.476 335.984 430.476 335.984 430.476 335.984C430.476 335.984 430.476 335.984 430.476 335.984C430.476 335.984 430.476 335.984 430.475 335.984C430.475 335.984 430.475 335.984 430.475 335.984C430.475 335.984 430.475 335.984 430.475 335.984C430.475 335.984 430.475 335.984 430.474 335.984C430.474 335.984 430.474 335.984 430.474 335.984C430.474 335.984 430.474 335.984 430.474 335.984C430.474 335.984 430.473 335.984 430.473 335.984C430.473 335.984 430.473 335.984 430.473 335.984C430.473 335.984 430.473 335.984 430.473 335.984C430.473 335.984 430.472 335.984 430.472 335.984C430.472 335.984 430.472 335.984 430.472 335.984C430.472 335.984 430.472 335.984 430.472 335.984C430.471 335.984 430.471 335.984 430.471 335.984C430.471 335.984 430.471 335.984 430.471 335.984C430.471 335.984 430.471 335.984 430.471 335.984C430.47 335.984 430.47 335.984 430.47 335.984C430.47 335.984 430.47 335.984 430.47 335.984C430.47 335.984 430.47 335.984 430.469 335.984C430.469 335.984 430.469 335.984 430.469 335.984C430.469 335.984 430.469 335.984 430.469 335.984C430.469 335.984 430.469 335.984 430.468 335.984C430.468 335.984 430.468 335.984 430.468 335.984C430.468 335.984 430.468 335.984 430.468 335.984C430.468 335.984 430.467 335.984 430.467 335.984C430.467 335.984 430.467 335.984 430.467 335.984C430.467 335.984 430.467 335.984 430.467 335.984C430.467 335.984 430.466 335.984 430.466 335.984C430.466 335.984 430.466 335.984 430.466 335.984C430.466 335.984 430.466 335.984 430.466 335.984C430.466 335.984 430.465 335.984 430.465 335.984C430.465 335.984 430.465 335.984 430.465 335.984C430.465 335.984 430.465 335.984 430.465 335.984C430.465 335.984 430.464 335.984 430.464 335.984C430.464 335.984 430.464 335.984 430.464 335.984C430.464 335.984 430.464 335.984 430.464 335.984C430.464 335.984 430.463 335.984 430.463 335.984C430.463 335.984 430.463 335.984 430.463 335.984C430.463 335.984 430.463 335.984 430.463 335.984C430.463 335.984 430.462 335.984 430.462 335.984C430.462 335.984 430.462 335.984 430.462 335.984C430.462 335.984 430.462 335.984 430.462 335.984C430.462 335.984 430.461 335.984 430.461 335.984C430.461 335.984 430.461 335.984 430.461 335.984C430.461 335.984 430.461 335.984 430.461 335.984C430.461 335.984 430.46 335.984 430.46 335.984C430.46 335.984 430.46 335.984 430.46 335.984C430.46 335.984 430.46 335.984 430.46 335.984C430.46 335.984 430.459 335.984 430.459 335.984C430.459 335.984 430.459 335.984 430.459 335.984C430.459 335.984 430.459 335.984 430.459 335.984C430.459 335.984 430.458 335.984 430.458 335.984C430.458 335.984 430.458 335.984 430.458 335.984C430.458 335.984 430.458 335.984 430.458 335.984C430.458 335.984 430.457 335.984 430.457 335.984C430.457 335.984 430.457 335.984 430.457 335.984C430.457 335.984 430.457 335.984 430.457 335.984C430.457 335.984 430.457 335.984 430.456 335.984C430.456 335.984 430.456 335.984 430.456 335.984C430.456 335.984 430.456 335.984 430.456 335.984C430.456 335.984 430.456 335.984 430.455 335.984C430.455 335.984 430.455 335.984 430.455 335.984C430.455 335.984 430.455 335.984 430.455 335.984C430.455 335.984 430.455 335.984 430.454 335.984C430.454 335.984 430.454 335.984 430.454 335.984C430.454 335.984 430.454 335.984 430.454 335.984C430.454 335.984 430.454 335.984 430.454 335.984C430.453 335.984 430.453 335.984 430.453 335.984C430.453 335.984 430.453 335.984 430.453 335.984C430.453 335.984 430.453 335.984 430.453 335.984C430.452 335.984 430.452 335.984 430.452 335.984C430.452 335.984 430.452 335.984 430.452 335.984C430.452 335.984 430.452 335.984 430.452 335.984C430.451 335.984 430.451 335.984 430.451 335.984C430.451 335.984 430.451 335.984 430.451 335.984C430.451 335.984 430.451 335.984 430.451 335.984C430.451 335.984 430.45 335.984 430.45 335.984C430.45 335.984 430.45 335.984 430.45 335.984C430.45 335.984 430.45 335.984 430.45 335.984C430.45 335.984 430.449 335.984 430.449 335.984C430.449 335.984 430.449 335.984 430.449 335.984C430.449 335.984 430.449 335.984 430.449 335.984C430.449 335.984 430.449 335.984 430.448 335.984C430.448 335.984 430.448 335.984 430.448 335.984C430.448 335.984 430.448 335.984 430.448 335.984C430.448 335.984 430.448 335.984 430.447 335.984C430.447 335.984 430.447 335.984 430.447 335.984C430.447 335.984 430.447 335.984 430.447 335.984C430.447 335.984 430.447 335.984 430.447 335.984C430.446 335.984 430.446 335.984 430.446 335.984C430.446 335.984 430.446 335.984 430.446 335.984C430.446 335.984 430.446 335.984 430.446 335.984C430.445 335.984 430.445 335.984 430.445 335.984C430.445 335.984 430.445 335.984 430.445 335.984C430.445 335.984 430.445 335.984 430.445 335.984C430.445 335.984 430.444 335.984 430.444 335.984C430.444 335.984 430.444 335.984 430.444 335.984C430.444 335.984 430.444 335.984 430.444 335.984C430.444 335.984 430.443 335.984 430.443 335.984C430.443 335.984 430.443 335.984 430.443 335.984C430.443 335.984 430.443 335.984 430.443 335.984C430.443 335.984 430.443 335.984 430.442 335.984C430.442 335.984 430.442 335.984 430.442 335.984C430.442 335.984 430.442 335.984 430.442 335.984C430.442 335.984 430.442 335.984 430.442 335.984C430.441 335.984 430.441 335.984 430.441 335.984C430.441 335.984 430.441 335.984 430.441 335.984C430.441 335.984 430.441 335.984 430.441 335.984C430.44 335.984 430.44 335.984 430.44 335.984C430.44 335.984 430.44 335.984 430.44 335.984C430.44 335.984 430.44 335.984 430.44 335.984C430.44 335.984 430.439 335.984 430.439 335.984C430.439 335.984 430.439 335.984 430.439 335.984C430.439 335.984 430.439 335.984 430.439 335.984C430.439 335.984 430.438 335.984 430.438 335.984C430.438 335.984 430.438 335.984 430.438 335.984C430.438 335.984 430.438 335.984 430.438 335.984C430.438 335.984 430.438 335.984 430.437 335.984C430.437 335.984 430.437 335.984 430.437 335.984C430.437 335.984 430.437 335.984 430.437 335.984C430.437 335.984 430.437 335.984 430.436 335.984C430.436 335.984 430.436 335.984 430.436 335.984C430.436 335.984 430.436 335.984 430.436 335.984C430.436 335.984 430.436 335.984 430.436 335.984C430.435 335.984 430.435 335.984 430.435 335.984C430.435 335.984 430.435 335.984 430.435 335.984C430.435 335.984 430.435 335.984 430.435 335.984C430.434 335.984 430.434 335.984 430.434 335.984C430.434 335.984 430.434 335.984 430.434 335.984C430.434 335.984 430.434 335.984 430.434 335.984C430.434 335.984 430.433 335.984 430.433 335.984C430.433 335.984 430.433 335.984 430.433 335.984C430.433 335.984 430.433 335.984 430.433 335.984C430.433 335.984 430.432 335.984 430.432 335.984C430.432 335.984 430.432 335.984 430.432 335.984C430.432 335.984 430.432 335.984 430.432 335.984C430.432 335.984 430.432 335.984 430.431 335.984C430.431 335.984 430.431 335.984 430.431 335.984C430.431 335.984 430.431 335.984 430.431 335.984C430.431 335.984 430.431 335.984 430.43 335.984C430.43 335.984 430.43 335.984 430.43 335.984C430.43 335.984 430.43 335.984 430.43 335.984C430.43 335.984 430.43 335.984 430.43 335.984C430.429 335.984 430.429 335.984 430.429 335.984C430.429 335.984 430.429 335.984 430.429 335.984C430.429 335.984 430.429 335.984 430.429 335.984C430.428 335.984 430.428 335.984 430.428 335.984C430.428 335.984 430.428 335.984 430.428 335.984C430.428 335.984 430.428 335.984 430.428 335.984C430.427 335.984 430.427 335.984 430.427 335.984C430.427 335.984 430.427 335.984 430.427 335.984C430.427 335.984 430.427 335.984 430.427 335.984C430.426 335.984 430.426 335.984 430.426 335.984C430.426 335.984 430.426 335.984 430.426 335.984C430.426 335.984 430.426 335.984 430.426 335.984C430.426 335.984 430.425 335.984 430.425 335.984C430.425 335.984 430.425 335.984 430.425 335.984C430.425 335.984 430.425 335.984 430.425 335.984C430.425 335.984 430.424 335.984 430.424 335.984C430.424 335.984 430.424 335.984 430.424 335.984C430.424 335.984 430.424 335.984 430.424 335.984C430.424 335.984 430.423 335.984 430.423 335.984C430.423 335.984 430.423 335.984 430.423 335.984C430.423 335.984 430.423 335.984 430.423 335.984C430.423 335.984 430.422 335.984 430.422 335.984C430.422 335.984 430.422 335.984 430.422 335.984C430.422 335.984 430.422 335.984 430.422 335.984C430.422 335.984 430.421 335.984 430.421 335.984C430.421 335.984 430.421 335.984 430.421 335.984C430.421 335.984 430.421 335.984 430.421 335.984C430.421 335.984 430.42 335.984 430.42 335.984C430.42 335.984 430.42 335.984 430.42 335.984C430.42 335.984 430.42 335.984 430.42 335.984C430.42 335.984 430.419 335.984 430.419 335.984C430.419 335.984 430.419 335.984 430.419 335.984C430.419 335.984 430.419 335.984 430.419 335.984C430.419 335.984 430.418 335.984 430.418 335.984C430.418 335.984 430.418 335.984 430.418 335.984C430.418 335.984 430.418 335.984 430.418 335.984C430.418 335.984 430.417 335.984 430.417 335.984C430.417 335.984 430.417 335.984 430.417 335.984C430.417 335.984 430.417 335.984 430.417 335.984C430.417 335.984 430.416 335.984 430.416 335.984C430.416 335.984 430.416 335.984 430.416 335.984C430.416 335.984 430.416 335.984 430.416 335.984C430.415 335.984 430.415 335.984 430.415 335.984C430.415 335.984 430.415 335.984 430.415 335.984C430.415 335.984 430.415 335.984 430.415 335.984C430.414 335.984 430.414 335.984 430.414 335.984C430.414 335.984 430.414 335.984 430.414 335.984C430.414 335.984 430.414 335.984 430.414 335.984C430.413 335.984 430.413 335.984 430.413 335.984C430.413 335.984 430.413 335.984 430.413 335.984C430.413 335.984 430.413 335.984 430.412 335.984C430.412 335.984 430.412 335.984 430.412 335.984C430.412 335.984 430.412 335.984 430.412 335.984C430.412 335.984 430.412 335.984 430.411 335.984C430.411 335.984 430.411 335.984 430.411 335.984C430.411 335.984 430.411 335.984 430.411 335.984C430.411 335.984 430.41 335.984 430.41 335.984C430.41 335.984 430.41 335.984 430.41 335.984C430.41 335.984 430.41 335.984 430.41 335.984C430.409 335.984 430.409 335.984 430.409 335.984C430.409 335.984 430.409 335.984 430.409 335.984C430.409 335.984 430.409 335.984 430.409 335.984C430.408 335.984 430.408 335.984 430.408 335.984C430.408 335.984 430.408 335.984 430.408 335.984C430.408 335.984 430.408 335.984 430.407 335.984C430.407 335.984 430.407 335.984 430.407 335.984C430.407 335.984 430.407 335.984 430.407 335.984C430.407 335.984 430.406 335.984 430.406 335.984C430.406 335.984 430.406 335.984 430.406 335.984C430.406 335.984 430.406 335.984 430.406 335.984C430.405 335.984 430.405 335.984 430.405 335.984C430.405 335.984 430.405 335.984 430.405 335.984C430.405 335.984 430.405 335.984 430.404 335.984C430.404 335.984 430.404 335.984 430.404 335.984C430.404 335.984 430.404 335.984 430.404 335.984C430.404 335.984 430.403 335.984 430.403 335.984C430.403 335.984 430.403 335.984 430.403 335.984C430.403 335.984 430.403 335.984 430.403 335.984C430.402 335.984 430.402 335.984 430.402 335.984C430.402 335.984 430.402 335.984 430.402 335.984C430.402 335.984 430.402 335.984 430.401 335.984C430.401 335.984 430.401 335.984 430.401 335.984C430.401 335.984 430.401 335.984 430.401 335.984C430.401 335.984 430.4 335.984 430.4 335.984C430.4 335.984 430.4 335.984 430.4 335.984C430.4 335.984 430.4 335.984 430.4 335.984C430.399 335.984 430.399 335.984 430.399 335.984C430.399 335.984 430.399 335.984 430.399 335.984C430.399 335.984 430.398 335.984 430.398 335.984C430.398 335.984 430.398 335.984 430.398 335.984C430.398 335.984 430.398 335.984 430.398 335.984C430.397 335.984 430.397 335.984 430.397 335.984C430.397 335.984 430.397 335.984 430.397 335.984C430.397 335.984 430.397 335.984 430.396 335.984C430.396 335.984 430.396 335.984 430.396 335.984C430.396 335.984 430.396 335.984 430.396 335.984C430.395 335.984 430.395 335.984 430.395 335.984C430.395 335.984 430.395 335.984 430.395 335.984C430.395 335.984 430.395 335.984 430.394 335.984C430.394 335.984 430.394 335.984 430.394 335.984C430.394 335.984 430.394 335.984 430.394 335.984C430.393 335.984 430.393 335.984 430.393 335.984C430.393 335.984 430.393 335.984 430.393 335.984C430.393 335.984 430.392 335.984 430.392 335.984C430.392 335.984 430.392 335.984 430.392 335.984C430.392 335.984 430.392 335.984 430.392 335.984C430.391 335.984 430.391 335.984 430.391 335.984C430.391 335.984 430.391 335.984 430.391 335.984C430.391 335.984 430.39 335.984 430.39 335.984C430.39 335.984 430.39 335.984 430.39 335.984C430.39 335.984 430.39 335.984 430.389 335.984C430.389 335.984 430.389 335.984 430.389 335.984C430.389 335.984 430.389 335.984 430.389 335.984C430.388 335.984 430.388 335.984 430.388 335.984C430.388 335.984 430.388 335.984 430.388 335.984C430.388 335.984 430.387 335.984 430.387 335.984C430.387 335.984 430.387 335.984 430.387 335.984C430.387 335.984 430.387 335.984 430.386 335.984C430.386 335.984 430.386 335.984 430.386 335.984C430.386 335.984 430.386 335.984 430.386 335.984C430.385 335.984 430.385 335.984 430.385 335.984C430.385 335.984 430.385 335.984 430.385 335.984C430.385 335.984 430.384 335.984 430.384 335.984C430.384 335.984 430.384 335.984 430.384 335.984C430.384 335.984 430.384 335.984 430.383 335.984C430.383 335.984 430.383 335.984 430.383 335.984C430.383 335.984 430.383 335.984 430.382 335.984C430.382 335.984 430.382 335.984 430.382 335.984C430.382 335.984 430.382 335.984 430.382 335.984C430.381 335.984 430.381 335.984 430.381 335.984C430.381 335.984 430.381 335.984 430.381 335.984C430.381 335.984 430.38 335.984 430.38 335.984C430.38 335.984 430.38 335.984 430.38 335.984C430.38 335.984 430.379 335.984 430.379 335.984C430.379 335.984 430.379 335.984 430.379 335.984C430.379 335.984 430.379 335.984 430.378 335.984C430.378 335.984 430.378 335.984 430.378 335.984C430.378 335.984 430.378 335.984 430.377 335.984C430.377 335.984 430.377 335.984 430.377 335.984C430.377 335.984 430.377 335.984 430.377 335.984C430.376 335.984 430.376 335.984 430.376 335.984C430.376 335.984 430.376 335.984 430.376 335.984C430.375 335.984 430.375 335.984 430.375 335.984C430.375 335.984 430.375 335.984 430.375 335.984C430.375 335.984 430.374 335.984 430.374 335.984C430.374 335.984 430.374 335.984 430.374 335.984C430.374 335.984 430.373 335.984 430.373 335.984C430.373 335.984 430.373 335.984 430.373 335.984C430.373 335.984 430.372 335.984 430.372 335.984C430.372 335.984 430.372 335.984 430.372 335.984C430.372 335.984 430.371 335.984 430.371 335.984C430.371 335.984 430.371 335.984 430.371 335.984C430.371 335.984 430.371 335.984 430.37 335.984C430.37 335.984 430.37 335.984 430.37 335.984C430.37 335.984 430.37 335.984 430.369 335.984C430.369 335.984 430.369 335.984 430.369 335.984C430.369 335.984 430.369 335.984 430.368 335.984C430.368 335.984 430.368 335.984 430.368 335.984C430.368 335.984 430.368 335.984 430.367 335.984C430.367 335.984 430.367 335.984 430.367 335.984C430.367 335.984 430.367 335.984 430.366 335.984C430.366 335.984 430.366 335.984 430.366 335.984C430.366 335.984 430.366 335.984 430.365 335.984C430.365 335.984 430.365 335.984 430.365 335.984C430.365 335.984 430.365 335.984 430.364 335.984C430.364 335.984 430.364 335.984 430.364 335.984C430.364 335.984 430.363 335.984 430.363 335.984C430.363 335.984 430.363 335.984 430.363 335.984C430.363 335.984 430.362 335.984 430.362 335.984C430.362 335.984 430.362 335.984 430.362 335.984C430.362 335.984 430.361 335.984 430.361 335.984C430.361 335.984 430.361 335.984 430.361 335.984C430.361 335.984 430.36 335.984 430.36 335.984C430.36 335.984 430.36 335.984 430.36 335.984C430.359 335.984 430.359 335.984 430.359 335.984C430.359 335.984 430.359 335.984 430.359 335.984C430.358 335.984 430.358 335.984 430.358 335.984C430.358 335.984 430.358 335.984 430.358 335.984C430.357 335.984 430.357 335.984 430.357 335.984C430.357 335.984 430.357 335.984 430.356 335.984C430.356 335.984 430.356 335.984 430.356 335.984C430.356 335.984 430.356 335.984 430.355 335.984C430.355 335.984 430.355 335.984 430.355 335.984C430.355 335.984 430.354 335.984 430.354 335.984C430.354 335.984 430.354 335.984 430.354 335.984C430.353 335.984 430.353 335.984 430.353 335.984C430.353 335.984 430.353 335.984 430.353 335.984C430.352 335.984 430.352 335.984 430.352 335.984C430.352 335.984 430.352 335.984 430.351 335.984C430.351 335.984 430.351 335.984 430.351 335.984C430.351 335.984 430.351 335.984 430.35 335.984C430.35 335.984 430.35 335.984 430.35 335.984C430.35 335.984 430.349 335.984 430.349 335.984C430.349 335.984 430.349 335.984 430.349 335.984C430.348 335.984 430.348 335.984 430.348 335.984C430.348 335.984 430.348 335.984 430.347 335.984C430.347 335.984 430.347 335.984 430.347 335.984C430.347 335.984 430.346 335.984 430.346 335.984C430.346 335.984 430.346 335.984 430.346 335.984C430.346 335.984 430.345 335.984 430.345 335.984C430.345 335.984 430.345 335.984 430.345 335.984C430.344 335.984 430.344 335.984 430.344 335.984C430.344 335.984 430.344 335.984 430.343 335.984C430.343 335.984 430.343 335.984 430.343 335.984C430.343 335.984 430.342 335.984 430.342 335.984C430.342 335.984 430.342 335.984 430.342 335.984C430.341 335.984 430.341 335.984 430.341 335.984C430.341 335.984 430.341 335.984 430.34 335.984C430.34 335.984 430.34 335.984 430.34 335.984C430.34 335.984 430.339 335.984 430.339 335.984C430.339 335.984 430.339 335.984 430.339 335.984C430.338 335.984 430.338 335.984 430.338 335.984C430.338 335.984 430.338 335.984 430.337 335.984C430.337 335.984 430.337 335.984 430.337 335.984C430.336 335.984 430.336 335.984 430.336 335.984C430.336 335.984 430.336 335.984 430.335 335.984C430.335 335.984 430.335 335.984 430.335 335.984V341.984C430.335 341.984 430.335 341.984 430.335 341.984C430.336 341.984 430.336 341.984 430.336 341.984C430.336 341.984 430.336 341.984 430.337 341.984C430.337 341.984 430.337 341.984 430.337 341.984C430.338 341.984 430.338 341.984 430.338 341.984C430.338 341.984 430.338 341.984 430.339 341.984C430.339 341.984 430.339 341.984 430.339 341.984C430.339 341.984 430.34 341.984 430.34 341.984C430.34 341.984 430.34 341.984 430.34 341.984C430.341 341.984 430.341 341.984 430.341 341.984C430.341 341.984 430.341 341.984 430.342 341.984C430.342 341.984 430.342 341.984 430.342 341.984C430.342 341.984 430.343 341.984 430.343 341.984C430.343 341.984 430.343 341.984 430.343 341.984C430.344 341.984 430.344 341.984 430.344 341.984C430.344 341.984 430.344 341.984 430.345 341.984C430.345 341.984 430.345 341.984 430.345 341.984C430.345 341.984 430.346 341.984 430.346 341.984C430.346 341.984 430.346 341.984 430.346 341.984C430.346 341.984 430.347 341.984 430.347 341.984C430.347 341.984 430.347 341.984 430.347 341.984C430.348 341.984 430.348 341.984 430.348 341.984C430.348 341.984 430.348 341.984 430.349 341.984C430.349 341.984 430.349 341.984 430.349 341.984C430.349 341.984 430.35 341.984 430.35 341.984C430.35 341.984 430.35 341.984 430.35 341.984C430.351 341.984 430.351 341.984 430.351 341.984C430.351 341.984 430.351 341.984 430.351 341.984C430.352 341.984 430.352 341.984 430.352 341.984C430.352 341.984 430.352 341.984 430.353 341.984C430.353 341.984 430.353 341.984 430.353 341.984C430.353 341.984 430.353 341.984 430.354 341.984C430.354 341.984 430.354 341.984 430.354 341.984C430.354 341.984 430.355 341.984 430.355 341.984C430.355 341.984 430.355 341.984 430.355 341.984C430.356 341.984 430.356 341.984 430.356 341.984C430.356 341.984 430.356 341.984 430.356 341.984C430.357 341.984 430.357 341.984 430.357 341.984C430.357 341.984 430.357 341.984 430.358 341.984C430.358 341.984 430.358 341.984 430.358 341.984C430.358 341.984 430.358 341.984 430.359 341.984C430.359 341.984 430.359 341.984 430.359 341.984C430.359 341.984 430.359 341.984 430.36 341.984C430.36 341.984 430.36 341.984 430.36 341.984C430.36 341.984 430.361 341.984 430.361 341.984C430.361 341.984 430.361 341.984 430.361 341.984C430.361 341.984 430.362 341.984 430.362 341.984C430.362 341.984 430.362 341.984 430.362 341.984C430.362 341.984 430.363 341.984 430.363 341.984C430.363 341.984 430.363 341.984 430.363 341.984C430.363 341.984 430.364 341.984 430.364 341.984C430.364 341.984 430.364 341.984 430.364 341.984C430.365 341.984 430.365 341.984 430.365 341.984C430.365 341.984 430.365 341.984 430.365 341.984C430.366 341.984 430.366 341.984 430.366 341.984C430.366 341.984 430.366 341.984 430.366 341.984C430.367 341.984 430.367 341.984 430.367 341.984C430.367 341.984 430.367 341.984 430.367 341.984C430.368 341.984 430.368 341.984 430.368 341.984C430.368 341.984 430.368 341.984 430.368 341.984C430.369 341.984 430.369 341.984 430.369 341.984C430.369 341.984 430.369 341.984 430.369 341.984C430.37 341.984 430.37 341.984 430.37 341.984C430.37 341.984 430.37 341.984 430.37 341.984C430.371 341.984 430.371 341.984 430.371 341.984C430.371 341.984 430.371 341.984 430.371 341.984C430.371 341.984 430.372 341.984 430.372 341.984C430.372 341.984 430.372 341.984 430.372 341.984C430.372 341.984 430.373 341.984 430.373 341.984C430.373 341.984 430.373 341.984 430.373 341.984C430.373 341.984 430.374 341.984 430.374 341.984C430.374 341.984 430.374 341.984 430.374 341.984C430.374 341.984 430.375 341.984 430.375 341.984C430.375 341.984 430.375 341.984 430.375 341.984C430.375 341.984 430.375 341.984 430.376 341.984C430.376 341.984 430.376 341.984 430.376 341.984C430.376 341.984 430.376 341.984 430.377 341.984C430.377 341.984 430.377 341.984 430.377 341.984C430.377 341.984 430.377 341.984 430.377 341.984C430.378 341.984 430.378 341.984 430.378 341.984C430.378 341.984 430.378 341.984 430.378 341.984C430.379 341.984 430.379 341.984 430.379 341.984C430.379 341.984 430.379 341.984 430.379 341.984C430.379 341.984 430.38 341.984 430.38 341.984C430.38 341.984 430.38 341.984 430.38 341.984C430.38 341.984 430.381 341.984 430.381 341.984C430.381 341.984 430.381 341.984 430.381 341.984C430.381 341.984 430.381 341.984 430.382 341.984C430.382 341.984 430.382 341.984 430.382 341.984C430.382 341.984 430.382 341.984 430.382 341.984C430.383 341.984 430.383 341.984 430.383 341.984C430.383 341.984 430.383 341.984 430.383 341.984C430.384 341.984 430.384 341.984 430.384 341.984C430.384 341.984 430.384 341.984 430.384 341.984C430.384 341.984 430.385 341.984 430.385 341.984C430.385 341.984 430.385 341.984 430.385 341.984C430.385 341.984 430.385 341.984 430.386 341.984C430.386 341.984 430.386 341.984 430.386 341.984C430.386 341.984 430.386 341.984 430.386 341.984C430.387 341.984 430.387 341.984 430.387 341.984C430.387 341.984 430.387 341.984 430.387 341.984C430.387 341.984 430.388 341.984 430.388 341.984C430.388 341.984 430.388 341.984 430.388 341.984C430.388 341.984 430.388 341.984 430.389 341.984C430.389 341.984 430.389 341.984 430.389 341.984C430.389 341.984 430.389 341.984 430.389 341.984C430.39 341.984 430.39 341.984 430.39 341.984C430.39 341.984 430.39 341.984 430.39 341.984C430.39 341.984 430.391 341.984 430.391 341.984C430.391 341.984 430.391 341.984 430.391 341.984C430.391 341.984 430.391 341.984 430.392 341.984C430.392 341.984 430.392 341.984 430.392 341.984C430.392 341.984 430.392 341.984 430.392 341.984C430.392 341.984 430.393 341.984 430.393 341.984C430.393 341.984 430.393 341.984 430.393 341.984C430.393 341.984 430.393 341.984 430.394 341.984C430.394 341.984 430.394 341.984 430.394 341.984C430.394 341.984 430.394 341.984 430.394 341.984C430.395 341.984 430.395 341.984 430.395 341.984C430.395 341.984 430.395 341.984 430.395 341.984C430.395 341.984 430.395 341.984 430.396 341.984C430.396 341.984 430.396 341.984 430.396 341.984C430.396 341.984 430.396 341.984 430.396 341.984C430.397 341.984 430.397 341.984 430.397 341.984C430.397 341.984 430.397 341.984 430.397 341.984C430.397 341.984 430.397 341.984 430.398 341.984C430.398 341.984 430.398 341.984 430.398 341.984C430.398 341.984 430.398 341.984 430.398 341.984C430.398 341.984 430.399 341.984 430.399 341.984C430.399 341.984 430.399 341.984 430.399 341.984C430.399 341.984 430.399 341.984 430.4 341.984C430.4 341.984 430.4 341.984 430.4 341.984C430.4 341.984 430.4 341.984 430.4 341.984C430.4 341.984 430.401 341.984 430.401 341.984C430.401 341.984 430.401 341.984 430.401 341.984C430.401 341.984 430.401 341.984 430.401 341.984C430.402 341.984 430.402 341.984 430.402 341.984C430.402 341.984 430.402 341.984 430.402 341.984C430.402 341.984 430.402 341.984 430.403 341.984C430.403 341.984 430.403 341.984 430.403 341.984C430.403 341.984 430.403 341.984 430.403 341.984C430.403 341.984 430.404 341.984 430.404 341.984C430.404 341.984 430.404 341.984 430.404 341.984C430.404 341.984 430.404 341.984 430.404 341.984C430.405 341.984 430.405 341.984 430.405 341.984C430.405 341.984 430.405 341.984 430.405 341.984C430.405 341.984 430.405 341.984 430.406 341.984C430.406 341.984 430.406 341.984 430.406 341.984C430.406 341.984 430.406 341.984 430.406 341.984C430.406 341.984 430.407 341.984 430.407 341.984C430.407 341.984 430.407 341.984 430.407 341.984C430.407 341.984 430.407 341.984 430.407 341.984C430.408 341.984 430.408 341.984 430.408 341.984C430.408 341.984 430.408 341.984 430.408 341.984C430.408 341.984 430.408 341.984 430.409 341.984C430.409 341.984 430.409 341.984 430.409 341.984C430.409 341.984 430.409 341.984 430.409 341.984C430.409 341.984 430.409 341.984 430.41 341.984C430.41 341.984 430.41 341.984 430.41 341.984C430.41 341.984 430.41 341.984 430.41 341.984C430.41 341.984 430.411 341.984 430.411 341.984C430.411 341.984 430.411 341.984 430.411 341.984C430.411 341.984 430.411 341.984 430.411 341.984C430.412 341.984 430.412 341.984 430.412 341.984C430.412 341.984 430.412 341.984 430.412 341.984C430.412 341.984 430.412 341.984 430.412 341.984C430.413 341.984 430.413 341.984 430.413 341.984C430.413 341.984 430.413 341.984 430.413 341.984C430.413 341.984 430.413 341.984 430.414 341.984C430.414 341.984 430.414 341.984 430.414 341.984C430.414 341.984 430.414 341.984 430.414 341.984C430.414 341.984 430.414 341.984 430.415 341.984C430.415 341.984 430.415 341.984 430.415 341.984C430.415 341.984 430.415 341.984 430.415 341.984C430.415 341.984 430.415 341.984 430.416 341.984C430.416 341.984 430.416 341.984 430.416 341.984C430.416 341.984 430.416 341.984 430.416 341.984C430.416 341.984 430.417 341.984 430.417 341.984C430.417 341.984 430.417 341.984 430.417 341.984C430.417 341.984 430.417 341.984 430.417 341.984C430.417 341.984 430.418 341.984 430.418 341.984C430.418 341.984 430.418 341.984 430.418 341.984C430.418 341.984 430.418 341.984 430.418 341.984C430.418 341.984 430.419 341.984 430.419 341.984C430.419 341.984 430.419 341.984 430.419 341.984C430.419 341.984 430.419 341.984 430.419 341.984C430.419 341.984 430.42 341.984 430.42 341.984C430.42 341.984 430.42 341.984 430.42 341.984C430.42 341.984 430.42 341.984 430.42 341.984C430.42 341.984 430.421 341.984 430.421 341.984C430.421 341.984 430.421 341.984 430.421 341.984C430.421 341.984 430.421 341.984 430.421 341.984C430.421 341.984 430.422 341.984 430.422 341.984C430.422 341.984 430.422 341.984 430.422 341.984C430.422 341.984 430.422 341.984 430.422 341.984C430.422 341.984 430.423 341.984 430.423 341.984C430.423 341.984 430.423 341.984 430.423 341.984C430.423 341.984 430.423 341.984 430.423 341.984C430.423 341.984 430.424 341.984 430.424 341.984C430.424 341.984 430.424 341.984 430.424 341.984C430.424 341.984 430.424 341.984 430.424 341.984C430.424 341.984 430.425 341.984 430.425 341.984C430.425 341.984 430.425 341.984 430.425 341.984C430.425 341.984 430.425 341.984 430.425 341.984C430.425 341.984 430.426 341.984 430.426 341.984C430.426 341.984 430.426 341.984 430.426 341.984C430.426 341.984 430.426 341.984 430.426 341.984C430.426 341.984 430.426 341.984 430.427 341.984C430.427 341.984 430.427 341.984 430.427 341.984C430.427 341.984 430.427 341.984 430.427 341.984C430.427 341.984 430.427 341.984 430.428 341.984C430.428 341.984 430.428 341.984 430.428 341.984C430.428 341.984 430.428 341.984 430.428 341.984C430.428 341.984 430.428 341.984 430.429 341.984C430.429 341.984 430.429 341.984 430.429 341.984C430.429 341.984 430.429 341.984 430.429 341.984C430.429 341.984 430.429 341.984 430.43 341.984C430.43 341.984 430.43 341.984 430.43 341.984C430.43 341.984 430.43 341.984 430.43 341.984C430.43 341.984 430.43 341.984 430.43 341.984C430.431 341.984 430.431 341.984 430.431 341.984C430.431 341.984 430.431 341.984 430.431 341.984C430.431 341.984 430.431 341.984 430.431 341.984C430.432 341.984 430.432 341.984 430.432 341.984C430.432 341.984 430.432 341.984 430.432 341.984C430.432 341.984 430.432 341.984 430.432 341.984C430.432 341.984 430.433 341.984 430.433 341.984C430.433 341.984 430.433 341.984 430.433 341.984C430.433 341.984 430.433 341.984 430.433 341.984C430.433 341.984 430.434 341.984 430.434 341.984C430.434 341.984 430.434 341.984 430.434 341.984C430.434 341.984 430.434 341.984 430.434 341.984C430.434 341.984 430.434 341.984 430.435 341.984C430.435 341.984 430.435 341.984 430.435 341.984C430.435 341.984 430.435 341.984 430.435 341.984C430.435 341.984 430.435 341.984 430.436 341.984C430.436 341.984 430.436 341.984 430.436 341.984C430.436 341.984 430.436 341.984 430.436 341.984C430.436 341.984 430.436 341.984 430.436 341.984C430.437 341.984 430.437 341.984 430.437 341.984C430.437 341.984 430.437 341.984 430.437 341.984C430.437 341.984 430.437 341.984 430.437 341.984C430.438 341.984 430.438 341.984 430.438 341.984C430.438 341.984 430.438 341.984 430.438 341.984C430.438 341.984 430.438 341.984 430.438 341.984C430.438 341.984 430.439 341.984 430.439 341.984C430.439 341.984 430.439 341.984 430.439 341.984C430.439 341.984 430.439 341.984 430.439 341.984C430.439 341.984 430.44 341.984 430.44 341.984C430.44 341.984 430.44 341.984 430.44 341.984C430.44 341.984 430.44 341.984 430.44 341.984C430.44 341.984 430.44 341.984 430.441 341.984C430.441 341.984 430.441 341.984 430.441 341.984C430.441 341.984 430.441 341.984 430.441 341.984C430.441 341.984 430.441 341.984 430.442 341.984C430.442 341.984 430.442 341.984 430.442 341.984C430.442 341.984 430.442 341.984 430.442 341.984C430.442 341.984 430.442 341.984 430.442 341.984C430.443 341.984 430.443 341.984 430.443 341.984C430.443 341.984 430.443 341.984 430.443 341.984C430.443 341.984 430.443 341.984 430.443 341.984C430.443 341.984 430.444 341.984 430.444 341.984C430.444 341.984 430.444 341.984 430.444 341.984C430.444 341.984 430.444 341.984 430.444 341.984C430.444 341.984 430.445 341.984 430.445 341.984C430.445 341.984 430.445 341.984 430.445 341.984C430.445 341.984 430.445 341.984 430.445 341.984C430.445 341.984 430.445 341.984 430.446 341.984C430.446 341.984 430.446 341.984 430.446 341.984C430.446 341.984 430.446 341.984 430.446 341.984C430.446 341.984 430.446 341.984 430.447 341.984C430.447 341.984 430.447 341.984 430.447 341.984C430.447 341.984 430.447 341.984 430.447 341.984C430.447 341.984 430.447 341.984 430.447 341.984C430.448 341.984 430.448 341.984 430.448 341.984C430.448 341.984 430.448 341.984 430.448 341.984C430.448 341.984 430.448 341.984 430.448 341.984C430.449 341.984 430.449 341.984 430.449 341.984C430.449 341.984 430.449 341.984 430.449 341.984C430.449 341.984 430.449 341.984 430.449 341.984C430.449 341.984 430.45 341.984 430.45 341.984C430.45 341.984 430.45 341.984 430.45 341.984C430.45 341.984 430.45 341.984 430.45 341.984C430.45 341.984 430.451 341.984 430.451 341.984C430.451 341.984 430.451 341.984 430.451 341.984C430.451 341.984 430.451 341.984 430.451 341.984C430.451 341.984 430.451 341.984 430.452 341.984C430.452 341.984 430.452 341.984 430.452 341.984C430.452 341.984 430.452 341.984 430.452 341.984C430.452 341.984 430.452 341.984 430.453 341.984C430.453 341.984 430.453 341.984 430.453 341.984C430.453 341.984 430.453 341.984 430.453 341.984C430.453 341.984 430.453 341.984 430.454 341.984C430.454 341.984 430.454 341.984 430.454 341.984C430.454 341.984 430.454 341.984 430.454 341.984C430.454 341.984 430.454 341.984 430.454 341.984C430.455 341.984 430.455 341.984 430.455 341.984C430.455 341.984 430.455 341.984 430.455 341.984C430.455 341.984 430.455 341.984 430.455 341.984C430.456 341.984 430.456 341.984 430.456 341.984C430.456 341.984 430.456 341.984 430.456 341.984C430.456 341.984 430.456 341.984 430.456 341.984C430.457 341.984 430.457 341.984 430.457 341.984C430.457 341.984 430.457 341.984 430.457 341.984C430.457 341.984 430.457 341.984 430.457 341.984C430.457 341.984 430.458 341.984 430.458 341.984C430.458 341.984 430.458 341.984 430.458 341.984C430.458 341.984 430.458 341.984 430.458 341.984C430.458 341.984 430.459 341.984 430.459 341.984C430.459 341.984 430.459 341.984 430.459 341.984C430.459 341.984 430.459 341.984 430.459 341.984C430.459 341.984 430.46 341.984 430.46 341.984C430.46 341.984 430.46 341.984 430.46 341.984C430.46 341.984 430.46 341.984 430.46 341.984C430.46 341.984 430.461 341.984 430.461 341.984C430.461 341.984 430.461 341.984 430.461 341.984C430.461 341.984 430.461 341.984 430.461 341.984C430.461 341.984 430.462 341.984 430.462 341.984C430.462 341.984 430.462 341.984 430.462 341.984C430.462 341.984 430.462 341.984 430.462 341.984C430.462 341.984 430.463 341.984 430.463 341.984C430.463 341.984 430.463 341.984 430.463 341.984C430.463 341.984 430.463 341.984 430.463 341.984C430.463 341.984 430.464 341.984 430.464 341.984C430.464 341.984 430.464 341.984 430.464 341.984C430.464 341.984 430.464 341.984 430.464 341.984C430.464 341.984 430.465 341.984 430.465 341.984C430.465 341.984 430.465 341.984 430.465 341.984C430.465 341.984 430.465 341.984 430.465 341.984C430.465 341.984 430.466 341.984 430.466 341.984C430.466 341.984 430.466 341.984 430.466 341.984C430.466 341.984 430.466 341.984 430.466 341.984C430.466 341.984 430.467 341.984 430.467 341.984C430.467 341.984 430.467 341.984 430.467 341.984C430.467 341.984 430.467 341.984 430.467 341.984C430.467 341.984 430.468 341.984 430.468 341.984C430.468 341.984 430.468 341.984 430.468 341.984C430.468 341.984 430.468 341.984 430.468 341.984C430.469 341.984 430.469 341.984 430.469 341.984C430.469 341.984 430.469 341.984 430.469 341.984C430.469 341.984 430.469 341.984 430.469 341.984C430.47 341.984 430.47 341.984 430.47 341.984C430.47 341.984 430.47 341.984 430.47 341.984C430.47 341.984 430.47 341.984 430.471 341.984C430.471 341.984 430.471 341.984 430.471 341.984C430.471 341.984 430.471 341.984 430.471 341.984C430.471 341.984 430.471 341.984 430.472 341.984C430.472 341.984 430.472 341.984 430.472 341.984C430.472 341.984 430.472 341.984 430.472 341.984C430.472 341.984 430.473 341.984 430.473 341.984C430.473 341.984 430.473 341.984 430.473 341.984C430.473 341.984 430.473 341.984 430.473 341.984C430.473 341.984 430.474 341.984 430.474 341.984C430.474 341.984 430.474 341.984 430.474 341.984C430.474 341.984 430.474 341.984 430.474 341.984C430.475 341.984 430.475 341.984 430.475 341.984C430.475 341.984 430.475 341.984 430.475 341.984C430.475 341.984 430.475 341.984 430.475 341.984C430.476 341.984 430.476 341.984 430.476 341.984C430.476 341.984 430.476 341.984 430.476 341.984C430.476 341.984 430.476 341.984 430.477 341.984C430.477 341.984 430.477 341.984 430.477 341.984C430.477 341.984 430.477 341.984 430.477 341.984C430.477 341.984 430.478 341.984 430.478 341.984C430.478 341.984 430.478 341.984 430.478 341.984C430.478 341.984 430.478 341.984 430.478 341.984C430.479 341.984 430.479 341.984 430.479 341.984C430.479 341.984 430.479 341.984 430.479 341.984C430.479 341.984 430.479 341.984 430.48 341.984C430.48 341.984 430.48 341.984 430.48 341.984C430.48 341.984 430.48 341.984 430.48 341.984C430.48 341.984 430.481 341.984 430.481 341.984C430.481 341.984 430.481 341.984 430.481 341.984C430.481 341.984 430.481 341.984 430.481 341.984C430.482 341.984 430.482 341.984 430.482 341.984C430.482 341.984 430.482 341.984 430.482 341.984C430.482 341.984 430.482 341.984 430.483 341.984C430.483 341.984 430.483 341.984 430.483 341.984C430.483 341.984 430.483 341.984 430.483 341.984C430.483 341.984 430.484 341.984 430.484 341.984C430.484 341.984 430.484 341.984 430.484 341.984C430.484 341.984 430.484 341.984 430.485 341.984C430.485 341.984 430.485 341.984 430.485 341.984C430.485 341.984 430.485 341.984 430.485 341.984C430.485 341.984 430.486 341.984 430.486 341.984C430.486 341.984 430.486 341.984 430.486 341.984C430.486 341.984 430.486 341.984 430.486 341.984C430.487 341.984 430.487 341.984 430.487 341.984C430.487 341.984 430.487 341.984 430.487 341.984C430.487 341.984 430.488 341.984 430.488 341.984C430.488 341.984 430.488 341.984 430.488 341.984C430.488 341.984 430.488 341.984 430.488 341.984C430.489 341.984 430.489 341.984 430.489 341.984C430.489 341.984 430.489 341.984 430.489 341.984C430.489 341.984 430.49 341.984 430.49 341.984C430.49 341.984 430.49 341.984 430.49 341.984C430.49 341.984 430.49 341.984 430.491 341.984C430.491 341.984 430.491 341.984 430.491 341.984C430.491 341.984 430.491 341.984 430.491 341.984C430.491 341.984 430.492 341.984 430.492 341.984C430.492 341.984 430.492 341.984 430.492 341.984C430.492 341.984 430.492 341.984 430.493 341.984C430.493 341.984 430.493 341.984 430.493 341.984C430.493 341.984 430.493 341.984 430.493 341.984C430.494 341.984 430.494 341.984 430.494 341.984C430.494 341.984 430.494 341.984 430.494 341.984C430.494 341.984 430.495 341.984 430.495 341.984C430.495 341.984 430.495 341.984 430.495 341.984C430.495 341.984 430.495 341.984 430.496 341.984C430.496 341.984 430.496 341.984 430.496 341.984C430.496 341.984 430.496 341.984 430.496 341.984C430.497 341.984 430.497 341.984 430.497 341.984C430.497 341.984 430.497 341.984 430.497 341.984C430.497 341.984 430.498 341.984 430.498 341.984C430.498 341.984 430.498 341.984 430.498 341.984C430.498 341.984 430.498 341.984 430.499 341.984C430.499 341.984 430.499 341.984 430.499 341.984C430.499 341.984 430.499 341.984 430.499 341.984C430.5 341.984 430.5 341.984 430.5 341.984C430.5 341.984 430.5 341.984 430.5 341.984C430.5 341.984 430.501 341.984 430.501 341.984C430.501 341.984 430.501 341.984 430.501 341.984C430.501 341.984 430.501 341.984 430.502 341.984C430.502 341.984 430.502 341.984 430.502 341.984C430.502 341.984 430.502 341.984 430.503 341.984C430.503 341.984 430.503 341.984 430.503 341.984C430.503 341.984 430.503 341.984 430.503 341.984C430.504 341.984 430.504 341.984 430.504 341.984C430.504 341.984 430.504 341.984 430.504 341.984C430.504 341.984 430.505 341.984 430.505 341.984C430.505 341.984 430.505 341.984 430.505 341.984C430.505 341.984 430.506 341.984 430.506 341.984C430.506 341.984 430.506 341.984 430.506 341.984C430.506 341.984 430.506 341.984 430.507 341.984C430.507 341.984 430.507 341.984 430.507 341.984C430.507 341.984 430.507 341.984 430.508 341.984C430.508 341.984 430.508 341.984 430.508 341.984C430.508 341.984 430.508 341.984 430.508 341.984C430.509 341.984 430.509 341.984 430.509 341.984C430.509 341.984 430.509 341.984 430.509 341.984C430.51 341.984 430.51 341.984 430.51 341.984C430.51 341.984 430.51 341.984 430.51 341.984C430.511 341.984 430.511 341.984 430.511 341.984C430.511 341.984 430.511 341.984 430.511 341.984C430.512 341.984 430.512 341.984 430.512 341.984C430.512 341.984 430.512 341.984 430.512 341.984C430.512 341.984 430.513 341.984 430.513 341.984C430.513 341.984 430.513 341.984 430.513 341.984C430.513 341.984 430.514 341.984 430.514 341.984C430.514 341.984 430.514 341.984 430.514 341.984C430.514 341.984 430.515 341.984 430.515 341.984C430.515 341.984 430.515 341.984 430.515 341.984C430.515 341.984 430.516 341.984 430.516 341.984C430.516 341.984 430.516 341.984 430.516 341.984C430.516 341.984 430.517 341.984 430.517 341.984C430.517 341.984 430.517 341.984 430.517 341.984C430.517 341.984 430.518 341.984 430.518 341.984C430.518 341.984 430.518 341.984 430.518 341.984C430.518 341.984 430.519 341.984 430.519 341.984C430.519 341.984 430.519 341.984 430.519 341.984C430.519 341.984 430.52 341.984 430.52 341.984C430.52 341.984 430.52 341.984 430.52 341.984C430.521 341.984 430.521 341.984 430.521 341.984C430.521 341.984 430.521 341.984 430.521 341.984C430.522 341.984 430.522 341.984 430.522 341.984C430.522 341.984 430.522 341.984 430.522 341.984C430.523 341.984 430.523 341.984 430.523 341.984C430.523 341.984 430.523 341.984 430.523 341.984C430.524 341.984 430.524 341.984 430.524 341.984C430.524 341.984 430.524 341.984 430.525 341.984C430.525 341.984 430.525 341.984 430.525 341.984C430.525 341.984 430.525 341.984 430.526 341.984C430.526 341.984 430.526 341.984 430.526 341.984C430.526 341.984 430.527 341.984 430.527 341.984C430.527 341.984 430.527 341.984 430.527 341.984C430.527 341.984 430.528 341.984 430.528 341.984C430.528 341.984 430.528 341.984 430.528 341.984C430.529 341.984 430.529 341.984 430.529 341.984C430.529 341.984 430.529 341.984 430.529 341.984C430.53 341.984 430.53 341.984 430.53 341.984C430.53 341.984 430.53 341.984 430.531 341.984C430.531 341.984 430.531 341.984 430.531 341.984C430.531 341.984 430.531 341.984 430.532 341.984C430.532 341.984 430.532 341.984 430.532 341.984C430.532 341.984 430.533 341.984 430.533 341.984C430.533 341.984 430.533 341.984 430.533 341.984C430.534 341.984 430.534 341.984 430.534 341.984C430.534 341.984 430.534 341.984 430.534 341.984C430.535 341.984 430.535 341.984 430.535 341.984C430.535 341.984 430.535 341.984 430.536 341.984C430.536 341.984 430.536 341.984 430.536 341.984C430.536 341.984 430.537 341.984 430.537 341.984C430.537 341.984 430.537 341.984 430.537 341.984C430.538 341.984 430.538 341.984 430.538 341.984C430.538 341.984 430.538 341.984 430.539 341.984C430.539 341.984 430.539 341.984 430.539 341.984C430.539 341.984 430.54 341.984 430.54 341.984C430.54 341.984 430.54 341.984 430.54 341.984C430.54 341.984 430.541 341.984 430.541 341.984C430.541 341.984 430.541 341.984 430.541 341.984C430.542 341.984 430.542 341.984 430.542 341.984C430.542 341.984 430.542 341.984 430.543 341.984C430.543 341.984 430.543 341.984 430.543 341.984C430.543 341.984 430.544 341.984 430.544 341.984C430.544 341.984 430.544 341.984 430.545 341.984C430.545 341.984 430.545 341.984 430.545 341.984C430.545 341.984 430.546 341.984 430.546 341.984C430.546 341.984 430.546 341.984 430.546 341.984C430.547 341.984 430.547 341.984 430.547 341.984C430.547 341.984 430.547 341.984 430.548 341.984C430.548 341.984 430.548 341.984 430.548 341.984C430.548 341.984 430.549 341.984 430.549 341.984V335.984ZM430.923 336.042C431.611 336.179 431.991 336.582 432.161 336.837C432.331 337.092 432.559 337.599 432.42 338.29L426.537 337.112C426.292 338.337 426.68 339.432 427.171 340.168C427.662 340.904 428.524 341.681 429.747 341.925L430.923 336.042ZM432.406 338.358L433.797 332.158L427.943 330.844L426.552 337.044L432.406 338.358ZM430.87 328.501H421.132V334.501H430.87V328.501ZM418.206 330.84L416.708 337.467L422.56 338.79L424.058 332.163L418.206 330.84ZM416.692 337.539C416.83 336.849 417.235 336.469 417.489 336.299C417.744 336.13 418.249 335.904 418.937 336.042L417.762 341.925C418.985 342.17 420.079 341.784 420.815 341.293C421.551 340.803 422.33 339.942 422.575 338.717L416.692 337.539ZM418.937 336.042C419.626 336.179 420.006 336.582 420.176 336.837C420.346 337.092 420.573 337.599 420.435 338.29L414.552 337.112C414.307 338.337 414.694 339.432 415.185 340.168C415.677 340.904 416.539 341.681 417.762 341.925L418.937 336.042ZM420.421 338.358L421.812 332.158L415.957 330.844L414.566 337.044L420.421 338.358ZM418.885 328.501H414.069V334.501H418.885V328.501ZM414.069 328.501C414.429 328.501 414.962 328.634 415.413 329.085C415.865 329.536 415.999 330.07 415.999 330.432H409.999C409.999 331.436 410.347 332.505 411.173 333.33C411.999 334.155 413.067 334.501 414.069 334.501V328.501ZM415.999 330.432C415.999 330.794 415.865 331.329 415.413 331.78C414.962 332.231 414.429 332.363 414.069 332.363V326.363C413.067 326.363 411.999 326.71 411.173 327.535C410.347 328.36 409.999 329.429 409.999 330.432H415.999ZM414.069 332.363H419.313V326.363H414.069V332.363ZM422.243 330.008L424.383 320.281L418.523 318.992L416.383 328.719L422.243 330.008ZM421.453 316.637H415.46V322.637H421.453V316.637ZM415.46 316.637C415.82 316.637 416.353 316.769 416.805 317.22C417.256 317.671 417.39 318.206 417.39 318.568H411.39C411.39 319.571 411.738 320.64 412.564 321.465C413.39 322.29 414.459 322.637 415.46 322.637V316.637ZM417.39 318.568C417.39 318.93 417.256 319.464 416.805 319.915C416.353 320.366 415.82 320.499 415.46 320.499V314.499C414.459 314.499 413.39 314.845 412.564 315.67C411.738 316.495 411.39 317.564 411.39 318.568H417.39ZM415.46 320.499H421.881V314.499H415.46V320.499ZM424.807 318.16L426.305 311.533L420.453 310.21L418.955 316.837L424.807 318.16ZM426.321 311.461C426.182 312.151 425.778 312.531 425.523 312.701C425.269 312.87 424.764 313.096 424.076 312.958L425.251 307.075C424.028 306.83 422.934 307.216 422.198 307.707C421.462 308.197 420.683 309.058 420.437 310.283L426.321 311.461ZM424.076 312.958C423.387 312.821 423.007 312.418 422.837 312.163C422.667 311.908 422.439 311.401 422.578 310.71L428.461 311.888C428.706 310.663 428.319 309.568 427.827 308.832C427.336 308.096 426.474 307.319 425.251 307.075L424.076 312.958ZM422.592 310.642L421.201 316.842L427.055 318.156L428.447 311.956L422.592 310.642ZM424.128 320.499H433.866V314.499H424.128V320.499ZM436.792 318.16L438.29 311.533L432.438 310.21L430.94 316.837L436.792 318.16ZM438.306 311.461C438.168 312.151 437.763 312.531 437.509 312.701C437.254 312.87 436.749 313.096 436.061 312.958L437.236 307.075C436.013 306.83 434.919 307.216 434.183 307.707C433.447 308.197 432.668 309.058 432.423 310.283L438.306 311.461ZM436.061 312.958C435.372 312.821 434.992 312.418 434.822 312.163C434.652 311.908 434.425 311.401 434.563 310.71L440.446 311.888C440.691 310.663 440.304 309.568 439.813 308.832C439.321 308.096 438.46 307.319 437.236 307.075L436.061 312.958ZM434.577 310.642L433.186 316.842L439.041 318.156L440.432 311.956L434.577 310.642ZM436.113 320.499H440.929V314.499H436.113V320.499ZM440.929 320.499C440.569 320.499 440.036 320.366 439.585 319.915C439.133 319.464 438.999 318.93 438.999 318.568H444.999C444.999 317.564 444.651 316.495 443.825 315.67C442.999 314.845 441.931 314.499 440.929 314.499V320.499ZM438.999 318.568C438.999 318.206 439.133 317.671 439.585 317.22C440.036 316.769 440.569 316.637 440.929 316.637V322.637C441.931 322.637 442.999 322.29 443.825 321.465C444.651 320.64 444.999 319.571 444.999 318.568H438.999ZM440.929 316.637H435.685V322.637H440.929V316.637ZM432.755 318.992L430.615 328.719L436.475 330.008L438.615 320.281L432.755 318.992ZM433.545 332.363H439.538V326.363H433.545V332.363ZM439.538 332.363C439.178 332.363 438.645 332.231 438.193 331.78C437.742 331.329 437.608 330.794 437.608 330.432H443.608C443.608 329.429 443.26 328.36 442.434 327.535C441.608 326.71 440.54 326.363 439.538 326.363V332.363ZM437.608 330.432C437.608 330.07 437.742 329.536 438.193 329.085C438.645 328.634 439.178 328.501 439.538 328.501V334.501C440.54 334.501 441.608 334.155 442.434 333.33C443.26 332.505 443.608 331.436 443.608 330.432H437.608ZM439.538 328.501H433.117V334.501H439.538V328.501ZM430.191 330.84L428.693 337.467L434.545 338.79L436.043 332.163L430.191 330.84ZM428.677 337.539C428.796 336.945 429.14 336.55 429.432 336.336C429.696 336.143 430.067 335.984 430.549 335.984V341.984C432.116 341.984 434.119 340.92 434.561 338.717L428.677 337.539ZM421.56 332.363H431.298V326.363H421.56V332.363ZM434.228 330.008L436.368 320.281L430.508 318.992L428.368 328.719L434.228 330.008ZM433.438 316.637H423.7V322.637H433.438V316.637ZM420.77 318.992L418.63 328.719L424.49 330.008L426.63 320.281L420.77 318.992Z" fill="black" mask="url(#path-45-inside-1_35_177)"/>
<path d="M329.399 347.1C329.299 347.1 329.299 347.1 329.199 347.1C328.699 347 328.299 346.4 328.399 345.9L329.699 340.1H320.599L319.199 346.3C319.099 346.8 318.499 347.2 317.999 347.1C317.499 347 317.099 346.4 317.199 345.9L318.499 340.1H313.999C313.399 340.1 312.999 339.7 312.999 339.1C312.999 338.5 313.399 338.1 313.999 338.1H318.899L320.899 329H315.299C314.699 329 314.299 328.6 314.299 328C314.299 327.4 314.699 327 315.299 327H321.299L322.699 320.8C322.799 320.3 323.399 319.9 323.899 320C324.399 320.1 324.799 320.7 324.699 321.2L323.399 327H332.499L333.899 320.8C333.999 320.3 334.599 319.9 335.099 320C335.599 320.1 335.999 320.7 335.899 321.2L334.599 327H339.099C339.699 327 340.099 327.4 340.099 328C340.099 328.6 339.699 329 339.099 329H334.199L332.199 338.1H337.799C338.399 338.1 338.799 338.5 338.799 339.1C338.799 339.7 338.399 340.1 337.799 340.1H331.799L330.399 346.3C330.299 346.8 329.799 347.1 329.399 347.1ZM320.999 338.1H330.099L332.099 329H322.999L320.999 338.1Z" fill="white"/>
<path d="M262.718 225.647L262.715 225.651C260.85 228.116 262.587 231.853 265.805 231.853H278.368L278.043 253.631C278.014 255.562 279.306 256.876 280.782 257.296C282.238 257.71 284.028 257.305 285.124 255.776L310.207 222.583C311.209 221.311 311.376 219.759 310.781 218.486C310.19 217.22 308.904 216.368 307.347 216.368H294.783L295.109 194.59C295.137 192.66 293.845 191.345 292.369 190.925C290.914 190.511 289.125 190.916 288.03 192.442L262.718 225.647Z" fill="#FF577F" stroke="black" stroke-width="3"/>
<path d="M462.394 350.796H392.132C391.852 350.796 391.585 350.685 391.387 350.488C391.19 350.29 391.079 350.023 391.079 349.743V300.033C391.079 299.754 391.19 299.486 391.387 299.289C391.585 299.091 391.852 298.98 392.132 298.98H462.394C462.673 298.98 462.941 299.091 463.139 299.289C463.336 299.486 463.447 299.754 463.447 300.033V349.743C463.447 350.023 463.336 350.29 463.139 350.488C462.941 350.685 462.673 350.796 462.394 350.796ZM393.185 348.691H461.341V301.086H393.185V348.691Z" fill="#010101"/>
<path d="M236.263 345.406H134.287V395.705H236.263V345.406Z" fill="#FAF7F2"/>
<path d="M236.278 396.758H134.289C134.01 396.758 133.742 396.648 133.545 396.45C133.347 396.253 133.236 395.985 133.236 395.706V345.406C133.236 345.127 133.347 344.859 133.545 344.661C133.742 344.464 134.01 344.353 134.289 344.353H236.264C236.544 344.353 236.811 344.464 237.009 344.661C237.206 344.859 237.317 345.127 237.317 345.406V395.706C237.317 395.982 237.208 396.248 237.014 396.445C236.819 396.642 236.555 396.755 236.278 396.758ZM135.356 394.653H235.225V346.459H135.342L135.356 394.653Z" fill="#010101"/>
<path d="M184.336 353.24H186.217C188.865 353.24 191.403 354.291 193.275 356.163C195.147 358.035 196.199 360.574 196.199 363.221V377.554H174.369V363.221C174.369 360.574 175.421 358.035 177.292 356.163C179.164 354.291 181.703 353.24 184.35 353.24H184.336Z" fill="#FAF7F2"/>
<path d="M196.241 378.607H174.369C174.09 378.607 173.822 378.496 173.624 378.298C173.427 378.101 173.316 377.833 173.316 377.554V363.221C173.32 360.295 174.483 357.491 176.552 355.423C178.62 353.354 181.425 352.19 184.35 352.187H186.231C189.158 352.187 191.964 353.349 194.034 355.418C196.103 357.488 197.266 360.294 197.266 363.221V377.554C197.266 377.828 197.159 378.092 196.967 378.289C196.776 378.485 196.515 378.6 196.241 378.607ZM175.464 376.501H195.188V363.221C195.188 362.048 194.957 360.887 194.508 359.804C194.06 358.721 193.402 357.736 192.573 356.907C191.744 356.078 190.759 355.421 189.676 354.972C188.593 354.523 187.432 354.292 186.259 354.292H184.378C182.01 354.292 179.739 355.233 178.065 356.907C176.391 358.582 175.45 360.853 175.45 363.221L175.464 376.501Z" fill="#010101"/>
<path d="M171.939 367.236H198.612V382.917C198.612 384.231 198.09 385.491 197.161 386.421C196.231 387.35 194.971 387.872 193.657 387.872H176.895C175.58 387.872 174.32 387.35 173.391 386.421C172.461 385.491 171.939 384.231 171.939 382.917V367.236Z" fill="#FF577F"/>
<path d="M193.671 388.925H176.895C175.302 388.921 173.776 388.287 172.65 387.161C171.524 386.035 170.89 384.509 170.886 382.917V367.236C170.886 366.957 170.997 366.689 171.195 366.491C171.392 366.294 171.66 366.183 171.939 366.183H198.612C198.891 366.183 199.159 366.294 199.357 366.491C199.554 366.689 199.665 366.957 199.665 367.236V382.917C199.661 384.507 199.029 386.031 197.906 387.156C196.783 388.282 195.261 388.918 193.671 388.925ZM172.992 368.289V382.917C172.996 383.951 173.408 384.941 174.139 385.672C174.87 386.403 175.861 386.816 176.895 386.819H193.671C194.189 386.827 194.703 386.731 195.184 386.539C195.664 386.346 196.102 386.06 196.472 385.697C196.841 385.334 197.135 384.902 197.336 384.424C197.537 383.947 197.642 383.435 197.644 382.917V368.289H172.992Z" fill="#010101"/>
<path d="M188.858 375.967C188.86 375.335 188.694 374.713 188.378 374.165C188.062 373.617 187.606 373.163 187.057 372.848C186.508 372.534 185.885 372.37 185.253 372.375C184.62 372.379 184 372.551 183.455 372.873C182.911 373.196 182.461 373.656 182.153 374.209C181.844 374.761 181.687 375.385 181.699 376.018C181.71 376.65 181.888 377.269 182.216 377.81C182.544 378.351 183.01 378.795 183.565 379.098V380.586C183.565 381.04 183.746 381.476 184.067 381.797C184.388 382.118 184.824 382.299 185.278 382.299C185.732 382.299 186.168 382.118 186.489 381.797C186.81 381.476 186.991 381.04 186.991 380.586V379.098C187.555 378.792 188.026 378.34 188.354 377.789C188.683 377.238 188.857 376.609 188.858 375.967Z" fill="#010101"/>
<path d="M278.451 325.935H224.993C224.714 325.935 224.446 325.824 224.249 325.626C224.051 325.429 223.94 325.161 223.94 324.882C223.94 324.602 224.051 324.335 224.249 324.137C224.446 323.94 224.714 323.829 224.993 323.829H278.451C278.731 323.829 278.999 323.94 279.196 324.137C279.393 324.335 279.504 324.602 279.504 324.882C279.504 325.161 279.393 325.429 279.196 325.626C278.999 325.824 278.731 325.935 278.451 325.935Z" fill="#010101"/>
<path d="M346.454 307.713H224.993C224.714 307.713 224.446 307.602 224.249 307.404C224.051 307.207 223.94 306.939 223.94 306.66C223.94 306.381 224.051 306.113 224.249 305.915C224.446 305.718 224.714 305.607 224.993 305.607H346.454C346.733 305.607 347.001 305.718 347.198 305.915C347.396 306.113 347.507 306.381 347.507 306.66C347.507 306.939 347.396 307.207 347.198 307.404C347.001 307.602 346.733 307.713 346.454 307.713Z" fill="#010101"/>
<path d="M358.132 166.205H350.411V173.926H358.132V166.205Z" fill="#010101"/>
<path d="M358.132 174.979H350.411C350.132 174.979 349.864 174.868 349.666 174.67C349.469 174.473 349.358 174.205 349.358 173.926V166.205C349.358 165.925 349.469 165.658 349.666 165.46C349.864 165.263 350.132 165.152 350.411 165.152H358.132C358.411 165.152 358.679 165.263 358.877 165.46C359.074 165.658 359.185 165.925 359.185 166.205V173.926C359.185 174.205 359.074 174.473 358.877 174.67C358.679 174.868 358.411 174.979 358.132 174.979ZM351.464 172.873H357.079V167.258H351.464V172.873Z" fill="#010101"/>
<path d="M223.854 166.205H216.133V173.926H223.854V166.205Z" fill="#010101"/>
<path d="M223.854 174.979H216.133C215.854 174.979 215.586 174.868 215.388 174.67C215.191 174.473 215.08 174.205 215.08 173.926V166.205C215.08 165.925 215.191 165.658 215.388 165.46C215.586 165.263 215.854 165.152 216.133 165.152H223.854C224.133 165.152 224.401 165.263 224.598 165.46C224.796 165.658 224.907 165.925 224.907 166.205V173.926C224.907 174.205 224.796 174.473 224.598 174.67C224.401 174.868 224.133 174.979 223.854 174.979ZM217.186 172.873H222.801V167.258H217.186V172.873Z" fill="#010101"/>
<path d="M358.132 273.656H350.411V281.377H358.132V273.656Z" fill="#010101"/>
<path d="M358.132 282.429H350.411C350.132 282.429 349.864 282.318 349.666 282.121C349.469 281.924 349.358 281.656 349.358 281.377V273.655C349.358 273.376 349.469 273.108 349.666 272.911C349.864 272.713 350.132 272.603 350.411 272.603H358.132C358.411 272.603 358.679 272.713 358.877 272.911C359.074 273.108 359.185 273.376 359.185 273.655V281.377C359.185 281.656 359.074 281.924 358.877 282.121C358.679 282.318 358.411 282.429 358.132 282.429ZM351.464 280.324H357.079V274.708H351.464V280.324Z" fill="#010101"/>
<path d="M223.854 273.656H216.133V281.377H223.854V273.656Z" fill="#010101"/>
<path d="M223.854 282.429H216.133C215.854 282.429 215.586 282.318 215.388 282.121C215.191 281.924 215.08 281.656 215.08 281.377V273.655C215.08 273.376 215.191 273.108 215.388 272.911C215.586 272.713 215.854 272.603 216.133 272.603H223.854C224.133 272.603 224.401 272.713 224.598 272.911C224.796 273.108 224.907 273.376 224.907 273.655V281.377C224.907 281.656 224.796 281.924 224.598 282.121C224.401 282.318 224.133 282.429 223.854 282.429ZM217.186 280.324H222.801V274.708H217.186V280.324Z" fill="#010101"/>
<path d="M467.086 85.8066L463.234 100.28L467.052 113.989L441.857 99.8658L467.086 85.8066Z" fill="#FAF7F2"/>
<path d="M467.159 115.036C466.944 115.056 466.727 115.009 466.539 114.902L441.344 100.779C441.182 100.687 441.046 100.554 440.952 100.393C440.857 100.232 440.808 100.049 440.807 99.8624C440.807 99.6758 440.856 99.4925 440.95 99.3312C441.044 99.17 441.179 99.0365 441.342 98.9446L466.57 84.8854C466.756 84.7722 466.973 84.7195 467.19 84.7344C467.407 84.7494 467.614 84.8314 467.783 84.969C467.952 85.1066 468.074 85.2932 468.132 85.503C468.19 85.7128 468.182 85.9354 468.108 86.1404L464.318 100.24L468.05 113.662C468.092 113.81 468.101 113.965 468.076 114.117C468.051 114.269 467.993 114.414 467.907 114.541C467.82 114.668 467.707 114.775 467.574 114.853C467.442 114.932 467.294 114.98 467.141 114.996L467.159 115.036ZM444.018 99.8725L465.351 111.819L462.22 100.566C462.154 100.392 462.135 100.205 462.165 100.021L465.37 87.9421L444.018 99.8725Z" fill="#010101"/>
<path d="M412.572 282.429C412.33 282.427 412.096 282.343 411.909 282.189C411.722 282.035 411.593 281.821 411.546 281.584C411.498 281.346 411.533 281.1 411.646 280.885C411.759 280.671 411.942 280.502 412.165 280.407C518.225 235.779 563.598 201.792 568.792 163.242C570.196 152.615 567.22 142.746 559.878 133.916C544.702 115.666 511.81 103.579 471.899 101.628C471.76 101.621 471.625 101.586 471.5 101.526C471.375 101.467 471.263 101.383 471.17 101.28C471.078 101.177 471.006 101.057 470.96 100.926C470.914 100.795 470.894 100.657 470.902 100.519C470.907 100.38 470.94 100.243 470.999 100.117C471.058 99.9914 471.142 99.8787 471.246 99.7857C471.349 99.6928 471.47 99.6215 471.602 99.5762C471.733 99.5309 471.872 99.5125 472.011 99.522C512.498 101.529 545.965 113.897 561.506 132.596C569.241 141.904 572.4 152.25 570.884 163.481C565.577 202.929 519.826 237.351 412.979 282.302C412.854 282.372 412.715 282.415 412.572 282.429Z" fill="#010101"/>
<path d="M463.283 101.333L441.906 100.919C441.627 100.914 441.361 100.798 441.167 100.597C440.974 100.395 440.868 100.125 440.873 99.8459C440.878 99.5666 440.995 99.3008 441.196 99.1071C441.397 98.9133 441.667 98.8075 441.947 98.8128L463.198 99.2393C463.459 99.2544 463.705 99.366 463.888 99.5523C464.071 99.7386 464.178 99.9864 464.189 100.248C464.2 100.509 464.113 100.764 463.945 100.965C463.778 101.166 463.542 101.297 463.283 101.333Z" fill="#010101"/>
<path d="M206.32 600.751C202.165 600.751 197.851 600.643 193.377 600.428C152.666 598.449 112.74 586.937 80.8309 568.013C50.0446 549.763 31.2332 526.937 29.2116 505.388C27.2743 484.709 38.6455 465.701 63.0162 448.883C87.3869 432.065 118.693 421.522 140.705 415.626C140.839 415.59 140.978 415.581 141.115 415.599C141.252 415.617 141.385 415.662 141.505 415.731C141.625 415.8 141.73 415.892 141.814 416.002C141.899 416.111 141.96 416.237 141.996 416.37C142.032 416.504 142.042 416.643 142.024 416.781C142.006 416.918 141.961 417.05 141.892 417.17C141.823 417.29 141.731 417.395 141.621 417.48C141.511 417.564 141.386 417.626 141.252 417.662C119.394 423.516 88.2853 433.974 64.2094 450.596C40.5126 466.951 29.4503 485.313 31.3033 505.177C33.2547 526.053 51.7012 548.289 81.8417 566.188C113.456 584.944 153.087 596.343 193.419 598.308C232.095 600.19 258.866 593.886 273.003 579.553C282.605 569.824 286.719 556.291 285.638 538.168C285.628 538.029 285.646 537.891 285.69 537.759C285.735 537.628 285.804 537.506 285.896 537.402C285.987 537.298 286.098 537.212 286.222 537.151C286.347 537.09 286.482 537.054 286.62 537.045C286.896 537.033 287.166 537.129 287.373 537.312C287.58 537.495 287.708 537.752 287.729 538.027C288.895 556.783 284.585 570.849 274.547 581.027C261.646 594.195 238.721 600.751 206.32 600.751Z" fill="#010101"/>
<path d="M148.258 415.837C147.999 415.839 147.747 415.746 147.553 415.576C147.358 415.405 147.232 415.168 147.201 414.911C147.17 414.654 147.235 414.394 147.383 414.181C147.531 413.969 147.753 413.818 148.005 413.759C150.813 413.057 153.719 412.355 156.555 411.765C156.816 411.731 157.081 411.796 157.297 411.947C157.513 412.099 157.664 412.326 157.721 412.584C157.777 412.842 157.735 413.111 157.602 413.339C157.469 413.567 157.256 413.737 157.004 413.815C154.196 414.447 151.388 415.107 148.496 415.808L148.258 415.837Z" fill="#010101"/>
</svg>
