<svg width="194" height="122" viewBox="0 0 194 122" fill="none" xmlns="http://www.w3.org/2000/svg">
<path d="M193.314 61C193.314 94.6894 168.093 122 136.981 122H113.314V84.4615H136.981C148.947 84.4615 158.647 73.9575 158.647 61C158.647 48.0426 148.947 37.5385 136.981 37.5385H132.691C127.499 18.4721 109.229 4.93428 98 0H136.981C168.093 4.21815e-06 193.314 27.3106 193.314 61Z" fill="url(#paint0_linear_254_79)"/>
<mask id="mask0_254_79" style="mask-type:alpha" maskUnits="userSpaceOnUse" x="0" y="0" width="130" height="122">
<path d="M65 0C29.1015 0 0 29.1015 0 65V122H40V65C40 51.1929 51.1929 40 65 40C78.8071 40 90 51.1929 90 65V102C90 113.046 98.9543 122 110 122L130 122V84.4615V65C130 29.1015 100.899 0 65 0Z" fill="#D9D9D9"/>
</mask>
<g mask="url(#mask0_254_79)">
<rect width="130" height="122" fill="url(#paint1_linear_254_79)"/>
</g>
<defs>
<linearGradient id="paint0_linear_254_79" x1="89.5" y1="-2" x2="153.919" y2="-9.77882" gradientUnits="userSpaceOnUse">
<stop stop-color="#A28BFF" stop-opacity="0"/>
<stop offset="1" stop-color="#A28BFF"/>
</linearGradient>
<linearGradient id="paint1_linear_254_79" x1="1.80243" y1="5.97421" x2="139.919" y2="20.8017" gradientUnits="userSpaceOnUse">
<stop stop-color="#A28BFF" stop-opacity="0"/>
<stop offset="0.614583" stop-color="#A28BFF"/>
<stop offset="0.984375" stop-color="#A28BFF"/>
</linearGradient>
</defs>
</svg>
